<svg width="595" height="554" viewBox="0 0 595 554" fill="none" xmlns="http://www.w3.org/2000/svg">
<path fill-rule="evenodd" clip-rule="evenodd" d="M138.077 304.068C138.8 307.559 137.991 311.204 136.668 314.514C137 314.83 137.331 315.145 137.663 315.461C144.282 310.308 151.004 305.048 155.817 298.177C157.844 295.283 155.449 291.057 152.202 289.663C148.955 288.268 145.263 288.698 141.732 288.549C137.484 288.369 133.275 287.3 129.456 285.43C123.91 282.717 118.822 278.24 112.649 278.148C111.968 278.138 111.238 278.2 110.702 278.622C109.397 279.65 110.194 281.743 111.175 283.085C116.042 289.744 123.337 294.586 131.363 296.484C134.833 297.304 137.354 300.577 138.077 304.068Z" fill="#303841"/>
<path fill-rule="evenodd" clip-rule="evenodd" d="M244.562 405.771L156.811 425.356C138.876 429.359 121.092 418.064 117.089 400.129C115.16 391.484 116.757 382.427 121.527 374.964L169.942 299.203C184.847 275.88 189.838 247.577 183.809 220.562L164.225 132.811C160.222 114.876 171.516 97.092 189.451 93.0892C198.096 91.1599 207.153 92.7569 214.616 97.5265L290.377 145.942C313.7 160.847 342.004 165.838 369.018 159.809L456.769 140.225C474.704 136.222 492.488 147.516 496.491 165.451C498.42 174.096 496.823 183.153 492.054 190.616L443.638 266.377C428.733 289.7 423.742 318.004 429.771 345.018L449.356 432.769C453.359 450.704 442.064 468.488 424.129 472.491C415.484 474.42 406.427 472.823 398.964 468.054L323.203 419.638C299.88 404.733 271.577 399.742 244.562 405.771Z" fill="#303841"/>
<path d="M553.197 371.608C553.197 371.608 159.941 371.816 4.24133 371.608C-7.97944 344.967 7.39464 309.369 35.1676 300C26.4758 309.916 17.784 319.832 9.09221 329.747C24.3632 329.594 553.197 329.747 553.197 329.747V371.608Z" fill="white"/>
<path fill-rule="evenodd" clip-rule="evenodd" d="M426.363 371.667C231.103 371.742 90.396 371.723 4.24134 371.608C-7.97943 344.967 291.669 356.186 405.294 356.186C518.92 356.186 466.353 371.651 426.363 371.667Z" fill="#E7EAEE"/>
<path fill-rule="evenodd" clip-rule="evenodd" d="M345.044 66.1912C346.432 64.609 349.171 64.492 350.689 65.9502C345.787 56.2413 331.445 53.3308 328.364 42.9001C324.42 29.5476 318.601 16.7502 311.133 5C308.025 16.5523 302.088 27.3326 293.987 36.1347C291.879 36.1442 289.771 36.1537 287.663 36.1632C282.875 36.1847 278.044 36.2108 273.368 37.2403C264.954 39.0924 257.413 44.1098 248.889 45.3582C249.521 44.567 250.152 43.7757 250.784 42.9845C250.608 42.1679 249.425 41.7943 248.812 42.362C247.733 38.0672 244.254 34.6947 240.309 32.6843C236.363 30.6739 230.545 26.932 218.9 27.9163C233.029 43.7329 228.653 109.579 232.129 122.058C233.314 122.374 234.222 121.078 234.993 120.124C235.764 119.17 237.564 118.583 237.981 119.738C240.875 127.76 241.286 140.106 250.158 144.886C251.87 145.808 252.888 144.085 252.756 143.245C252.586 142.173 253.874 141.347 254.947 141.51C256.021 141.672 256.879 142.45 257.716 143.141C271.828 154.793 294.935 148.787 309.063 160.419C311.855 162.717 314.315 165.712 317.799 166.68C319.878 167.257 322.093 167.03 324.218 166.649C336.864 164.382 348.125 156.878 356.908 147.501C365.692 138.124 372.25 126.912 378.356 115.607C372.73 112.421 366.816 108.949 363.759 103.251C361.351 98.7623 359.871 92.3277 354.806 91.7791C356.412 96.9965 358.019 102.214 359.625 107.431C360.213 109.342 360.808 111.334 360.497 113.309C360.187 115.283 358.677 117.223 356.681 117.323C353.972 117.459 352.064 114.393 349.373 114.044C348.863 124.135 344.989 134.028 338.509 141.781C336.26 144.471 331.937 146.914 329.655 144.252C333.119 138.657 336.582 133.061 340.045 127.466C342.204 123.979 344.418 120.331 344.814 116.249C345.21 112.168 343.186 107.538 339.261 106.348C339.087 105.268 340.225 104.342 341.318 104.309C342.411 104.277 343.417 104.856 344.356 105.416C347.849 107.499 351.343 109.583 354.836 111.667C353.722 103.383 351.443 95.2561 348.087 87.6006C351.338 87.2926 354.663 87.7894 357.682 89.0346C355.357 82.3092 351.095 76.2661 345.54 71.8192C343.896 70.5038 343.656 67.7735 345.044 66.1912Z" fill="white"/>
<path fill-rule="evenodd" clip-rule="evenodd" d="M275.275 48.339C278.153 50.2441 280.424 53.0531 281.683 56.2668C282.074 57.2662 283.187 57.7483 283.937 58.5157C284.688 59.2831 284.812 60.9232 283.76 61.1376C283.3 61.2313 282.849 60.9779 282.446 60.7373C275.993 56.8841 268.145 53.773 261.105 56.4047C262.263 56.9959 262.847 58.5131 262.386 59.7281C263.823 59.78 265.162 60.4263 266.453 61.0597C267.59 61.6176 268.727 62.1755 269.864 62.7333C269.744 63.069 269.625 63.4046 269.506 63.7403C264.366 61.1231 258.088 60.851 252.741 63.0136C254.518 63.2836 256.329 63.3329 258.118 63.1602C260.727 64.4751 263.336 65.7899 265.945 67.1048C266.525 67.3973 267.137 67.7189 267.464 68.2808C267.79 68.8428 267.666 69.7141 267.059 69.9458C262.345 65.7883 255.677 63.95 249.498 65.1045C248.777 65.2393 248.284 64.2336 248.59 63.567C248.896 62.9004 249.63 62.5583 250.312 62.2896C253.737 60.9412 257.349 60.0689 261.012 59.7058C259.179 58.0073 257.057 56.6225 254.765 55.6294C254.387 54.3382 256.25 53.1006 257.294 53.949C265.227 52.394 273.726 53.937 280.605 58.1814C280.663 56.8318 279.662 55.697 278.725 54.7234C275.798 51.6802 272.871 48.637 269.943 45.5938C275.069 46.2432 280.094 47.6865 284.783 49.8564C285.844 50.3471 286.891 50.877 287.852 51.5421C291.47 54.0467 293.623 58.527 293.318 62.9166C291.126 58.2846 287.657 54.2649 283.396 51.4192C280.96 49.7927 278.198 48.5262 275.275 48.339V48.339Z" fill="#E7EAEE"/>
<path d="M295.315 0C328.259 0 326.884 42.2807 347.185 54.0166C350.593 55.9872 354.628 57.314 356.895 60.5332C359.162 63.7526 357.703 69.6661 353.769 69.5127C360.903 94.1612 383.328 109.908 405.547 122.209C448.653 146.075 494.489 166.03 506.27 210.116C509.353 221.655 510.13 232.558 516.744 242.526C530.646 263.477 555.809 278.545 572.176 297.632C591.571 320.25 599.034 349.03 592.253 378.043C584.829 409.806 555.667 435.619 530.228 456.036C513.066 469.81 496.075 478.583 492.654 500.321C490.625 513.214 502.569 533.617 494.654 543.994C486.671 554.461 471.009 554.358 458.075 551.908C445.532 549.533 432.983 545.773 422.534 538.438C394.481 518.746 389.017 477.156 402.213 445.522C415.409 413.889 442.939 390.604 471.337 371.412C315.64 372.256 159.94 372.575 4.24127 372.368C-7.9795 345.727 7.39504 310.129 35.168 300.76C26.4762 310.676 17.7837 320.591 9.09185 330.507C40.0328 330.196 70.9742 329.885 101.915 329.574C94.1183 319.382 88.2896 307.691 84.8428 295.33C82.1636 285.722 81.5157 273.933 88.9385 267.271C97.6109 259.486 112.595 263.034 121.228 255.206C114.144 249.592 115.573 237.732 121.66 231.051C127.748 224.37 136.826 221.477 145.396 218.604C189.947 203.67 232.255 182.063 270.473 154.727C265.951 152.755 263.377 148.262 256.71 147.073C244.674 146.735 234.886 135.541 237.603 123.811C232.025 127.719 225.927 122.095 227.216 114.181C228.504 106.267 233.663 56.21 225.521 42.5938C217.378 28.9777 218.899 32.9399 213.19 25.7539C227.676 21.4231 245.545 27.1372 252.591 40.5137C264.778 33.4163 279.269 30.3508 293.286 31.9053C301.349 21.895 293.416 12.7127 295.315 0ZM391.927 122.578C382.496 152.473 354.891 175.802 323.842 180.116C321.721 180.411 321.237 183.225 321.285 185.366C321.958 214.932 322.631 244.498 323.304 274.063C323.596 286.91 322.746 302.064 311.992 309.098C307.559 311.998 306.186 318.687 309.117 323.1C312.049 327.512 318.748 328.838 323.14 325.875C318.045 317.27 323.871 304.4 333.698 302.551C337.319 301.87 338.472 297.337 338.869 293.675C340.65 277.253 342.43 260.832 344.21 244.41C344.897 263.145 345.584 281.88 346.271 300.614C364.509 292.398 385.76 307.166 405.357 303.147C389.133 291.907 374.161 277.499 367.343 258.977C360.525 240.455 363.714 217.271 378.896 204.659C369.853 219.107 368.068 237.859 374.222 253.754C380.156 269.081 392.552 280.908 405.194 291.41C409.112 294.665 413.325 298.204 414.537 303.151C415.749 308.099 411.941 314.425 406.926 313.534C389.066 306.818 369.721 304.085 350.699 305.591C344.806 306.057 338.623 307.059 334.03 310.782C329.438 314.505 327.239 321.765 330.794 326.489C371.813 326.657 412.833 326.825 453.853 326.993C463.342 327.032 476.845 326.69 483.742 320.173C490.208 314.063 492.461 306.473 491.48 297.632C490.498 288.79 483.696 277.896 483.437 269.004C485.468 287.985 512.433 293.294 520.882 310.412C525.448 319.665 523.623 331.08 518.539 340.059C513.455 349.037 505.521 356.017 497.487 362.492C474.854 380.734 446.97 392.662 428.042 414.725C409.114 436.787 394.708 471.191 402.915 499.078C411.279 527.497 447.194 547.337 476.514 543.103C479.342 542.694 482.211 542.064 484.623 540.532C490.343 536.9 492.01 529.215 491.482 522.46C490.953 515.705 488.772 509.095 488.937 502.321C489.296 487.509 500.51 475.414 511.657 465.653C539.146 441.583 572.137 420.077 584.775 385.795C593.401 362.397 590.658 335.095 577.548 313.882C559.745 285.076 525.501 268.967 509.451 239.149C508.976 245.195 507.909 251.195 506.27 257.034C505.568 259.534 504.365 262.386 501.832 262.952C499.175 263.543 528.881 221.328 469.169 168.689C446.965 149.116 419.444 134.904 391.927 122.578ZM498.705 302.042C497.405 311.621 491.91 320.555 483.947 326.036C491.338 326.314 498.729 326.592 506.12 326.87C506.236 330.404 501.478 331.592 497.942 331.606L168.207 332.944C158.165 332.985 147.328 333.282 139.347 339.378C135.978 341.951 131.061 345.453 128.3 342.237C120.706 333.392 107.488 332.725 95.8301 332.736C65.7875 332.765 35.7448 332.794 5.7022 332.822C6.3847 344.906 7.06756 356.99 7.75006 369.074L475.065 365.577C481.263 365.531 486.624 361.492 491.48 357.64C501.157 349.962 511.363 341.524 514.838 329.67C518.313 317.815 511.058 302.177 498.705 302.042ZM132.233 332.237C130.151 331.7 128.242 334.698 129.611 336.357C129.948 336.765 130.414 337.065 130.925 337.202C131.453 337.344 132.026 337.312 132.534 337.111C134.535 336.322 134.316 332.775 132.233 332.237ZM102.843 271.289C103.349 268.183 99.5663 265.685 96.5098 266.437C93.4531 267.188 91.3629 270.044 90.1836 272.963C87.5798 279.407 88.2936 287.094 92.0401 292.948C92.2352 289.68 91.2948 286.466 90.7745 283.233C90.2542 280.001 90.2144 276.462 91.9942 273.714C93.7741 270.966 97.9247 269.595 100.446 271.684C94.4776 272.957 90.7294 280.383 93.2491 285.941C94.3102 282.008 96.6007 278.414 99.7188 275.792C99.0179 284.15 98.3162 292.509 97.6153 300.867C97.1133 306.853 96.747 313.382 100.153 318.33C102.984 322.441 107.848 324.577 112.507 326.367C117.436 328.261 122.918 330.002 127.887 328.215C130.306 327.345 133.164 325.731 135.154 327.357C138.14 329.797 142.761 329.221 145.917 327.007C149.073 324.793 151.07 321.311 152.815 317.873C155.364 312.854 157.601 307.677 159.507 302.381C154.739 307.131 149.97 311.881 145.202 316.632C142.781 319.044 139.784 321.653 136.416 321.071C133.684 320.599 131.678 317.982 131.244 315.243C130.811 312.504 131.681 309.71 132.943 307.241C134.152 304.877 131.07 302.697 128.592 301.745C121.857 299.159 115.185 295.94 110.094 290.829C105.002 285.718 101.682 278.409 102.843 271.289ZM308.954 225.741C303.612 219.914 279.889 209.102 245.664 217.36C238.261 219.147 196.798 236.734 183.601 237.853C170.404 238.971 170.013 238.649 164.708 242.526C161.459 244.901 159.295 248.432 156.713 251.519C154.131 254.605 150.699 257.449 146.676 257.529C156.101 263 166.362 270.111 167.785 280.915C168.26 284.515 167.659 288.164 166.961 291.728C164.476 304.416 160.724 316.857 155.777 328.803C203.123 328.277 250.469 327.751 297.815 327.225C294.518 322.422 298.335 315.945 302.58 311.956C305.228 309.468 308.099 307.219 311.148 305.243C314.19 303.273 315.148 299.32 315.666 295.733C318.442 276.522 315.805 256.988 313.17 237.757C312.584 233.482 311.87 228.922 308.954 225.741ZM301.85 317.436C299.198 319.317 299.455 323.261 299.995 326.467C300.126 327.246 301.362 327.31 301.868 326.703C302.375 326.096 302.351 325.221 302.3 324.433C302.15 322.1 302 319.768 301.85 317.436ZM112.649 278.148C111.968 278.138 111.239 278.201 110.703 278.622C109.397 279.65 110.195 281.743 111.176 283.085C116.042 289.744 123.338 294.586 131.364 296.484C134.834 297.305 137.355 300.578 138.078 304.068C138.801 307.559 137.992 311.204 136.669 314.515C137 314.83 137.332 315.145 137.663 315.461C144.282 310.308 151.005 305.048 155.817 298.178C157.845 295.283 155.45 291.058 152.203 289.663C148.956 288.268 145.264 288.698 141.733 288.549C137.485 288.369 133.275 287.3 129.456 285.431C123.911 282.717 118.822 278.241 112.649 278.148ZM134.201 260.299C127.178 257.607 118.742 259.027 112.987 263.871C109.735 266.609 107.241 270.971 108.502 275.031C112.437 272.075 118.13 273.376 122.417 275.794C126.704 278.212 130.529 281.64 135.281 282.922C142.169 284.779 150.619 282.078 155.909 286.863C157.261 288.086 158.684 289.862 160.455 289.431C161.814 282.43 158.198 275.196 152.908 270.413C147.619 265.63 140.86 262.851 134.201 260.299ZM137.515 231.675C135.934 231.121 134.031 231.273 132.774 232.381C131.258 233.719 130.995 236.065 129.53 237.46C127.758 239.147 124.845 238.909 122.833 240.301C120.089 242.198 120.149 246.589 122.221 249.203C124.293 251.817 127.701 252.973 130.989 253.538C136.031 254.404 141.258 254.181 146.207 252.888C148.634 252.254 151.143 251.255 152.589 249.205C154.035 247.155 153.845 243.812 151.643 242.611C149.423 241.401 148.524 237.854 145.996 237.908C144.074 237.95 142.727 236.128 141.481 234.664C140.395 233.388 139.096 232.229 137.515 231.675ZM279.889 155.701C277.973 155.454 275.774 155.361 274.388 156.706C256.451 174.115 233.708 185.561 211.351 196.737C192.585 206.118 173.656 215.562 153.374 220.929C141.671 224.025 128.521 226.383 121.095 235.943C122.706 236.99 124.929 236.172 126.317 234.844C127.706 233.516 128.614 231.751 129.985 230.405C134.335 226.135 142.997 228.393 144.707 234.244C146.657 231.673 150.927 233.22 152.961 235.725C154.995 238.23 156.247 241.556 159.074 243.111C161.627 238.841 166.381 236.313 171.204 235.093C176.027 233.873 181.05 233.761 185.985 233.136C194.33 232.079 233.586 215.878 243.095 212.536C244.804 211.935 246.834 211.434 248.317 212.475C249.801 213.515 264.869 212.483 272.874 208.612C276.143 207.032 280.024 208.002 283.484 209.102C293.561 212.304 303.354 216.401 312.708 221.33C315.314 205.868 317.751 189.167 310.684 175.17C311.261 181.604 312.36 187.992 313.965 194.249C314.902 197.903 310.421 201.278 306.794 200.242C303.167 199.206 301.025 195.226 300.901 191.456C300.778 187.685 302.228 184.061 303.653 180.568C304.767 177.839 305.881 175.111 306.994 172.382C307.492 171.162 307.998 169.901 307.989 168.583C307.965 164.84 304.055 162.458 300.578 161.07C293.943 158.423 286.974 156.615 279.889 155.701ZM383.641 115.436C382.125 115.263 381.029 116.795 380.29 118.13C374.005 129.484 367.576 140.921 358.789 150.472C350.002 160.023 338.515 167.654 325.653 169.386C323.552 169.669 321.292 169.847 319.637 171.173C317.982 172.499 317.517 175.491 319.336 176.582C321.74 178.023 324.249 174.872 326.91 173.992C340.213 169.593 353.363 164.044 364.294 155.279C375.225 146.514 383.817 134.173 385.729 120.293C385.998 118.337 385.603 115.659 383.641 115.436ZM299.995 4.31543C300.078 16.105 301.984 25.9061 293.883 34.708C291.775 34.7175 289.666 34.7268 287.559 34.7363C282.771 34.7579 277.94 34.7841 273.264 35.8135C264.85 37.6656 257.309 42.6831 248.785 43.9316C249.1 43.5299 244.292 36.0085 237.603 31.9053C230.989 27.8485 223.525 27.0043 218.899 27.916C240.059 37.7655 232.087 96.6748 232.025 98.9453C231.838 105.924 230.193 113.896 232.025 120.632C233.211 120.948 234.118 119.651 234.889 118.697C235.66 117.743 237.461 117.157 237.877 118.312C240.771 126.334 241.183 138.679 250.054 143.459C251.766 144.381 252.784 142.659 252.651 141.819C252.482 140.747 253.77 139.92 254.844 140.083C255.917 140.246 256.775 141.024 257.612 141.715C271.724 153.367 294.831 147.361 308.959 158.992C311.751 161.29 314.21 164.285 317.694 165.253C319.774 165.83 321.989 165.603 324.113 165.223C336.76 162.956 348.02 155.452 356.804 146.075C365.587 136.698 372.146 125.486 378.252 114.181C372.626 110.995 366.712 107.522 363.655 101.825C361.247 97.3363 359.766 90.9013 354.702 90.3525C356.309 95.5699 357.915 100.788 359.522 106.005C360.11 107.915 360.704 109.907 360.394 111.882C360.083 113.856 358.573 115.796 356.577 115.896C353.868 116.032 351.96 112.966 349.27 112.617C348.76 122.709 344.884 132.601 338.404 140.354C336.156 143.045 331.832 145.487 329.551 142.825C333.014 137.23 336.478 131.635 339.941 126.04C342.1 122.553 344.314 118.905 344.71 114.823C345.106 110.742 343.082 106.111 339.157 104.921C338.983 103.842 340.121 102.915 341.214 102.883C342.306 102.851 343.312 103.429 344.251 103.989C347.745 106.073 351.239 108.156 354.732 110.24C353.618 101.956 351.338 93.8293 347.982 86.1738C351.234 85.8659 354.559 86.3633 357.578 87.6084C355.253 80.883 350.991 74.8394 345.436 70.3926C343.792 69.0771 343.552 66.3469 344.94 64.7646C346.329 63.1827 349.067 63.0654 350.585 64.5234C345.683 54.8147 331.341 51.9043 328.26 41.4736C324.315 28.1213 311.802 5.86638 299.995 4.31543ZM265.918 119.661C266.68 119.336 267.562 119.69 267.887 120.452C268.212 121.214 267.858 122.096 267.096 122.421C264.036 123.727 262.234 125.423 259.148 129.425L258.322 130.503C255.479 134.217 253.655 136.124 250.846 137.852C250.139 138.286 245.618 139.306 248.782 137.359C251.947 135.413 253.06 132.371 255.37 129.416L256.471 127.985C260.033 123.323 262.153 121.268 265.918 119.661ZM280.35 126.095C281.179 125.635 282.27 125.541 283.047 126.083C283.824 126.625 284.065 127.892 283.38 128.547C282.781 129.119 281.795 129.048 281.121 129.529C280.34 130.087 279.128 129.378 278.985 128.43C278.843 127.481 279.51 126.56 280.35 126.095ZM265.636 113.275C266.462 113.217 267.179 113.839 267.238 114.665C267.297 115.491 266.675 116.21 265.849 116.269C262.429 116.512 260.074 117.674 256.538 120.523L255.26 121.58C254.888 121.892 254.466 122.244 254.352 122.34C251.235 124.938 249.159 126.354 246.405 127.483C245.639 127.798 240.346 128.875 244.448 126.665C248.551 124.455 253.897 118.809 253.897 118.809L254.68 118.169C258.648 114.976 261.486 113.571 265.636 113.275ZM292.047 113.682C298.113 112.337 301.504 112.508 306.708 113.834L307.806 114.12C312.998 115.476 316.242 115.481 322.833 113.345C323.621 113.089 324.467 113.522 324.723 114.31C324.976 115.098 312.951 118.515 307.453 117.127L306.44 116.862C301.378 115.533 298.431 115.339 292.695 116.61C291.887 116.789 291.087 116.279 290.907 115.471C290.728 114.662 291.238 113.861 292.047 113.682ZM337.686 98.5107C338.429 98.1449 339.328 98.4511 339.693 99.1943C340.057 99.9383 321.72 107.436 312.05 106.313L308.449 105.87C308.102 105.832 307.803 105.802 307.444 105.77C302.031 105.278 297.98 106.091 292.494 109.367C291.783 109.792 290.862 109.559 290.438 108.848C290.013 108.136 290.245 107.216 290.956 106.791C296.852 103.27 301.448 102.287 307.243 102.742L308.119 102.82C308.378 102.845 308.625 102.871 308.904 102.902L311.361 103.207C321.096 104.45 327.011 103.765 337.686 98.5107ZM249.403 79.9424C250.786 79.23 252.552 79.6594 253.749 80.6514C254.946 81.6434 255.665 83.0966 256.187 84.5615C257.73 88.901 257.795 93.7522 256.366 98.1309C255.5 100.786 253.35 103.659 250.599 103.179C249.08 102.914 247.928 101.668 247.084 100.377C243.43 94.7851 243.677 86.9196 247.673 81.5674C248.15 80.9278 248.694 80.308 249.403 79.9424ZM297.058 72.0674C298.718 71.4069 300.63 72.2498 301.94 73.4658C305.188 76.4826 305.88 81.3691 305.602 85.7939C305.481 87.7166 305.197 89.6832 304.255 91.3633C303.312 93.0433 301.588 94.3954 299.662 94.4238C297.728 94.4522 295.963 93.144 294.957 91.4922C293.951 89.8403 293.582 87.8851 293.335 85.9668C292.837 82.0933 292.815 77.961 294.657 74.5176C295.208 73.4881 295.973 72.499 297.058 72.0674ZM269.943 40.5938C275.069 41.2432 280.094 42.6866 284.783 44.8564C285.844 45.3471 286.891 45.877 287.852 46.542C291.469 49.0466 293.622 53.5273 293.317 57.917C291.126 53.285 287.657 49.2646 283.396 46.4189C280.96 44.7925 278.197 43.5261 275.274 43.3389C278.153 45.244 280.423 48.053 281.683 51.2666C282.074 52.266 283.187 52.7483 283.938 53.5156C284.688 54.283 284.812 55.9231 283.761 56.1377C283.301 56.2314 282.849 55.9779 282.446 55.7373C275.993 51.8841 268.146 48.7727 261.106 51.4043C262.263 51.9955 262.848 53.5135 262.386 54.7285C263.823 54.7805 265.162 55.4262 266.453 56.0596C267.59 56.6174 268.727 57.1756 269.863 57.7334C269.744 58.069 269.625 58.4046 269.506 58.7402C264.366 56.1232 258.088 55.8512 252.741 58.0137C254.518 58.2836 256.329 58.3329 258.118 58.1602C260.727 59.4749 263.336 60.7897 265.944 62.1045C266.525 62.397 267.137 62.7193 267.464 63.2812C267.79 63.8432 267.666 64.7147 267.059 64.9463C262.345 60.7888 255.677 58.9499 249.498 60.1045C248.777 60.239 248.284 59.2339 248.59 58.5674C248.896 57.9008 249.63 57.5588 250.313 57.29C253.737 55.9416 257.349 55.0691 261.012 54.7061C259.18 53.0076 257.057 51.623 254.765 50.6299C254.387 49.3387 256.25 48.1009 257.294 48.9492C265.227 47.3942 273.726 48.9372 280.606 53.1816C280.663 51.8321 279.662 50.6971 278.726 49.7236C275.798 46.6804 272.871 43.6369 269.943 40.5938Z" fill="#00160A"/>
<path fill-rule="evenodd" clip-rule="evenodd" d="M273.141 115.687C271.914 114.581 270.132 114.243 268.933 113.106C267.797 112.028 267.362 110.271 267.865 108.787C268.367 107.304 269.781 106.173 271.338 106.008C275.805 105.534 280.273 105.061 284.74 104.587C285.8 104.475 286.972 104.39 287.831 105.022C289.143 105.987 288.936 108.095 287.988 109.419C287.04 110.742 285.579 111.595 284.437 112.755C282.965 114.25 282.044 116.277 281.887 118.369C281.77 119.923 281.939 121.775 280.708 122.729C279.162 123.928 276.876 122.512 275.93 120.8C274.984 119.088 274.594 116.997 273.141 115.687H273.141Z" fill="#FFB61D"/>
<path fill-rule="evenodd" clip-rule="evenodd" d="M454.286 327.415C463.775 327.454 477.279 327.113 484.176 320.596C490.642 314.486 492.895 306.896 491.913 298.054C490.931 289.213 484.13 278.318 483.871 269.426C485.902 288.408 512.867 293.716 521.315 310.834C525.882 320.087 524.056 331.502 518.972 340.481C513.889 349.46 505.955 356.439 497.921 362.914C475.288 381.156 447.404 393.084 428.476 415.147C409.548 437.209 395.142 471.614 403.349 499.5C411.713 527.919 447.628 547.759 476.948 543.525C479.776 543.117 482.645 542.486 485.057 540.954C490.777 537.322 492.444 529.637 491.915 522.882C491.387 516.127 489.205 509.517 489.37 502.743C489.73 487.931 500.944 475.837 512.091 466.076C539.58 442.005 572.571 420.5 585.209 386.217C593.836 362.819 591.091 335.517 577.981 314.304C560.178 285.498 525.935 269.389 509.885 239.571C509.41 245.617 508.342 251.617 506.703 257.456C506.002 259.955 504.8 262.808 502.266 263.375C499.606 263.969 529.317 221.753 469.602 169.112C447.398 149.539 419.878 135.326 392.36 123C382.93 152.895 355.325 176.224 324.276 180.538C322.154 180.833 321.67 183.648 321.718 185.789C322.392 215.354 323.065 244.92 323.738 274.485C324.03 287.332 323.179 302.486 312.426 309.52C307.992 312.42 306.619 319.11 309.55 323.522C312.482 327.935 319.182 329.261 323.573 326.297C318.478 317.693 324.304 304.823 334.132 302.973C337.752 302.292 338.905 297.76 339.302 294.098C341.083 277.676 342.863 261.254 344.644 244.832C345.33 263.567 346.017 282.302 346.704 301.036C364.942 292.819 386.193 307.587 405.79 303.569C389.566 292.329 374.594 277.921 367.776 259.399C360.958 240.877 364.148 217.694 379.329 205.082C370.286 219.53 368.501 238.281 374.655 254.176C380.589 269.503 392.986 281.33 405.628 291.832C409.546 295.087 413.759 298.626 414.971 303.573C416.183 308.521 412.375 314.848 407.359 313.957C389.5 307.241 370.154 304.508 351.133 306.014C345.239 306.48 339.057 307.482 334.464 311.205C329.871 314.928 327.673 322.188 331.228 326.912C372.247 327.079 413.266 327.247 454.286 327.415Z" fill="white"/>
<path fill-rule="evenodd" clip-rule="evenodd" d="M476.514 543.103C479.342 542.694 482.211 542.063 484.623 540.532C490.344 536.9 492.01 529.215 491.482 522.46C490.953 515.704 488.772 509.095 488.936 502.321C489.296 487.509 500.511 475.415 511.658 465.654C539.146 441.583 572.137 420.077 584.776 385.795C589.836 372.069 526.296 414.043 491.482 463.461C466.951 498.282 464.394 544.853 476.514 543.103Z" fill="#E7EAEE"/>
<path fill-rule="evenodd" clip-rule="evenodd" d="M499.889 201.748C495.582 191.376 483.575 181.389 469.169 168.69C446.965 149.116 419.444 134.904 391.927 122.578C418.909 142.233 451.803 158.641 475.21 183.31C486.618 195.334 494.336 219.565 500.786 227.352C505.723 233.313 512.172 231.328 499.889 201.748Z" fill="#E7EAEE"/>
<path fill-rule="evenodd" clip-rule="evenodd" d="M309.755 197.68C310.734 195.543 311.422 185.683 306.267 185.683C303.052 189.333 303.382 196.338 309.755 197.68Z" fill="#FFB61D"/>
<path fill-rule="evenodd" clip-rule="evenodd" d="M153.374 220.928C141.671 224.025 128.521 226.383 121.095 235.943C122.706 236.99 124.929 236.172 126.318 234.843C127.706 233.515 128.614 231.751 129.985 230.405C134.335 226.134 142.996 228.393 144.707 234.244C146.657 231.673 150.927 233.219 152.961 235.724C154.995 238.229 156.247 241.556 159.074 243.111C161.627 238.841 166.381 236.313 171.204 235.093C176.027 233.873 181.05 233.76 185.985 233.135C194.329 232.078 202.482 229.529 209.942 225.645C209.488 226.576 240.397 213.173 268.681 211.23C289.335 209.811 308.76 219.25 312.708 221.33C315.314 205.868 317.752 189.167 310.684 175.17C311.261 181.604 312.36 187.991 313.965 194.249C314.902 197.903 310.421 201.278 306.794 200.242C303.166 199.206 301.025 195.226 300.902 191.456C300.779 187.685 302.229 184.062 303.654 180.569C304.767 177.84 305.881 175.11 306.994 172.381C307.492 171.161 307.998 169.901 307.989 168.583C307.965 164.84 304.055 162.457 300.578 161.07C293.943 158.423 286.973 156.614 279.888 155.701C277.972 155.454 275.774 155.361 274.387 156.706C256.451 174.115 233.708 185.561 211.351 196.737C192.585 206.118 173.656 215.562 153.374 220.928Z" fill="white"/>
<path fill-rule="evenodd" clip-rule="evenodd" d="M159.074 243.111C161.627 238.841 166.381 236.313 171.204 235.093C176.027 233.873 181.05 233.76 185.985 233.135C187.911 232.891 195.818 231.643 206.082 228.042C220.923 222.835 241.295 214.521 260.705 212.406C286.041 209.646 308.634 219.184 312.708 221.33C315.314 205.868 306.501 207.725 301.769 207.236C197.162 196.431 156.247 241.556 159.074 243.111Z" fill="#E7EAEE"/>
</svg>
