<svg width="271" height="292" viewBox="0 0 271 292" fill="none" xmlns="http://www.w3.org/2000/svg">
<path d="M247.65 221.344C253.58 204.213 253.899 185.334 249.151 167.848C244.361 150.269 234.65 134.153 220.696 122.29C207.19 110.809 190.118 103.723 172.58 101.466C163.807 100.328 154.839 100.434 146.097 101.816C137.29 103.205 128.462 105.871 120.616 110.123C112.535 114.505 105.033 120.975 101.978 129.909C98.7778 139.362 99.1513 150.029 102.143 159.495C105.186 169.074 110.472 178.213 117.914 185.052C121.218 188.085 124.865 190.78 129.072 192.382C132.814 193.812 136.891 194.545 140.897 194.633C148.41 194.809 157.196 192.886 161.751 186.364C164.096 183.005 165.026 178.642 165.603 174.644C166.266 169.996 166.334 165.191 165.688 160.555C165.049 155.983 163.384 151.497 161.722 147.213C159.863 142.454 157.687 137.841 155.211 133.364C150.249 124.439 144.163 116.119 137.098 108.723C130.203 101.498 122.341 94.8289 113.652 89.8514C105.29 85.041 96.0599 82.031 86.552 80.5286C65.4005 77.1675 44.0434 81.5028 23.9702 88.0779C18.775 89.7801 13.6488 91.6317 8.53844 93.5666C7.49422 93.9546 7.09126 95.3384 7.53119 96.2907C8.02287 97.355 9.21942 97.689 10.2636 97.301C29.8839 89.8927 50.5022 83.2715 71.7176 83.4357C80.7913 83.5081 89.8837 84.7486 98.5111 87.5822C107.357 90.4966 115.208 95.1796 122.49 100.938C137.72 112.963 149.818 129.048 157.187 146.961C158.882 151.071 160.58 155.384 161.382 159.768C162.135 163.948 162.155 168.26 161.719 172.465C161.327 176.128 160.629 180.453 158.689 183.514C156.992 186.215 154.35 187.901 151.319 189.041C144.662 191.504 136.45 190.991 129.882 188.3C126.116 186.768 122.699 184.08 119.786 181.207C116.372 177.839 113.453 173.973 111.105 169.823C106.453 161.615 103.583 152.364 103.892 142.879C104.026 138.315 104.763 133.633 106.582 129.428C108.231 125.641 110.887 122.365 113.976 119.636C120.402 113.976 128.586 110.406 136.777 108.078C144.829 105.791 153.249 104.692 161.648 104.825C178.346 105.068 195.011 109.852 209.101 118.87C223.607 128.15 234.695 141.803 241.309 157.641C247.898 173.423 249.95 191.058 246.932 207.871C246.195 211.965 245.129 215.983 243.77 219.909C242.936 222.418 246.788 223.843 247.65 221.344Z" fill="#F6C90E"/>
<path d="M10.8386 76.7971C10.876 77.0741 10.886 77.341 10.9046 77.6265C10.8917 77.4514 10.8975 77.2678 10.8846 77.0928C10.9273 78.9505 10.556 80.7945 10.2134 82.6026C9.86798 84.5026 9.4952 86.3924 9.10373 88.2908C8.87635 89.3676 8.63025 90.453 8.38417 91.5384C8.41728 91.3649 8.45902 91.21 8.51082 91.028C8.23163 92.2868 7.87911 93.5341 7.62723 94.8031C7.30198 96.3545 7.91267 98.0198 9.31419 98.8475C10.3089 99.432 11.4503 99.7456 12.5328 100.177C13.5247 100.559 14.5064 100.968 15.4595 101.414C16.5491 101.909 17.6287 102.432 18.6708 102.972C18.517 102.885 18.3718 102.815 18.1993 102.736C21.0628 104.228 23.781 105.945 26.3727 107.879C27.1014 108.427 27.8388 108.993 28.5661 109.587C28.9427 109.912 29.6025 110.017 30.0841 109.932C30.5931 109.857 31.1654 109.527 31.4372 109.085C31.709 108.644 31.8917 108.108 31.7797 107.571C31.659 107.016 31.3687 106.584 30.9289 106.22C26.3494 102.484 21.2422 99.4189 15.8256 97.1067C15.0896 96.7882 14.3436 96.4969 13.5975 96.2056C12.86 95.9329 12.0751 95.7046 11.3679 95.3502C11.5217 95.438 11.6669 95.5072 11.8394 95.5865C11.6582 95.4885 11.4958 95.382 11.3161 95.2382C11.4412 95.3618 11.585 95.477 11.71 95.6006C11.5936 95.4956 11.4958 95.3821 11.4168 95.26C11.5131 95.4194 11.6094 95.5788 11.7243 95.7296C11.6539 95.6262 11.5936 95.4956 11.5605 95.375C11.6194 95.5516 11.6783 95.7282 11.7185 95.9133C11.6769 95.7741 11.6625 95.645 11.6482 95.5158C11.6611 95.6909 11.6553 95.8744 11.6682 96.0495C11.6596 95.7367 11.7057 95.4441 11.7705 95.143C11.7373 95.3165 11.6956 95.4714 11.6438 95.6535C12.8051 90.6654 13.9938 85.6874 14.7612 80.6311C14.9915 79.1684 15.0838 77.7011 14.9188 76.2161C14.8614 75.6996 14.4734 75.1537 14.068 74.8645C13.6627 74.5753 13.0417 74.4077 12.55 74.52C11.4027 74.684 10.7181 75.6536 10.8386 76.7971Z" fill="#F6C90E"/>
</svg>
