<svg width="590" height="587" viewBox="0 0 590 587" fill="none" xmlns="http://www.w3.org/2000/svg">
<path fill-rule="evenodd" clip-rule="evenodd" d="M568.701 245.619C561.904 295.924 554.231 322.496 509.447 375.177C464.663 427.859 259.726 462.515 183.962 462.515C108.197 462.515 14.8259 404.526 20.7188 337.336C26.6118 270.147 57.3561 215.231 130.944 208.471C206.147 201.562 272.206 233.555 346.038 216.396C409.869 201.562 429.399 145.018 473.239 127.179C561.904 91.1007 573.326 211.396 568.701 245.619Z" fill="#303841"/>
<path d="M523.086 270.188C520.581 274.402 488.871 295.727 469.636 298.883C465.914 299.494 461.849 299.703 458.616 297.774C456.706 296.634 455.282 294.857 453.93 293.099C450.839 289.079 447.89 284.951 445.09 280.725C443.619 278.504 442.16 276.186 441.661 273.575C440.337 266.661 445.952 260.451 451.501 256.071C464.257 246 479.192 238.664 494.995 234.707C497.793 234.006 500.759 233.413 503.53 234.209C508.028 235.5 510.718 240.018 512.434 244.342C514.151 248.666 515.489 253.396 518.92 256.56C519.703 257.282 525.591 265.973 523.086 270.188Z" fill="#F6B50E"/>
<path fill-rule="evenodd" clip-rule="evenodd" d="M352.696 453.907C321.92 459.131 336.588 436.929 340.833 409.14C347.806 363.478 356.406 294.088 356.406 294.088C356.406 294.088 362.014 399.822 362.014 425.568C362.014 451.314 356.405 453.277 352.696 453.907Z" fill="#F6B50E"/>
<path d="M319.812 428.75C320.598 436.103 321.426 443.611 324.574 450.313C322.856 435.138 321.138 419.963 319.421 404.788C319.209 402.914 319.272 400.528 321.008 399.764C322.478 416.9 324.669 433.974 327.574 450.928C327.919 452.941 324.873 454.091 323.162 452.957C321.452 451.823 320.904 449.616 320.515 447.611C317.681 433.002 316.122 418.149 315.863 403.273C312.254 403.978 309.723 407.451 308.993 411.03C308.263 414.608 308.967 418.303 309.67 421.887C311.933 433.422 314.197 444.957 316.46 456.493C317.518 461.888 318.577 467.463 317.409 472.836C312.917 452.479 309.306 431.931 306.588 411.268C272.121 432.188 227.71 436.078 190.084 421.473C181.867 418.283 173.706 414.056 168.278 407.151C164.003 401.712 161.721 394.958 160.526 388.162C156.281 364.024 164.98 339.403 176.787 317.885C181.267 309.72 186.369 301.216 186.008 291.926C185.883 288.728 185.188 285.186 187.07 282.587C187.336 283.068 174.751 193.71 179.8 173.944C191.954 126.36 231.438 119.916 256.719 120.503C273.68 120.896 381.198 142.105 396.732 170.946C417.148 208.852 412.814 240.721 409.188 261.735C408.108 267.992 356.42 293.626 356.406 293.756C353.451 321.023 333.621 380.436 316.989 402.335C317.93 411.14 318.871 419.945 319.812 428.75Z" fill="#F6B50E"/>
<path fill-rule="evenodd" clip-rule="evenodd" d="M71.6352 317.804C61.9418 313.963 50.3902 315.102 41.651 320.76C40.8049 321.308 39.5885 320.697 39.1697 319.786C38.7509 318.875 38.9075 317.814 39.1218 316.836C41.9129 304.087 53.0319 294.331 65.3973 289.848C77.7627 285.365 91.2883 285.353 104.433 286.119C105.737 286.195 107.1 286.296 108.213 286.975C109.325 287.654 110.074 289.105 109.519 290.277C104.349 301.206 100.454 312.727 97.9366 324.536C97.5284 326.451 95.5293 327.722 93.5604 327.881C91.5916 328.041 89.6624 327.32 87.8756 326.485C82.3071 323.884 77.3515 320.069 71.6352 317.804Z" fill="#F6B50E"/>
<path fill-rule="evenodd" clip-rule="evenodd" d="M369.582 125.342C370.063 118.028 369.508 110.648 367.937 103.487L367.903 103.334C367.637 102.123 367.363 100.878 367.608 99.6658C368.152 96.9856 371.151 95.3724 373.904 95.4287C376.658 95.4849 379.209 96.7897 381.646 98.0639C393.332 104.175 405.23 110.439 414.431 119.846C414.72 127.461 412.911 134.976 411.127 142.395L411.126 142.395L410.959 143.092C403.507 174.1 397.405 205.427 392.676 236.957C392.223 239.979 391.363 243.544 388.475 244.602C386.404 245.361 383.995 244.391 382.523 242.757C381.052 241.123 380.348 238.953 379.858 236.816C378.647 231.544 378.501 226.032 379.432 220.704C380 217.446 380.962 214.276 381.924 211.106C382.788 208.26 383.652 205.413 384.232 202.5C384.812 199.588 385.105 196.627 385.388 193.672C386.896 177.956 388.176 162.219 389.226 146.466C389.374 144.24 389.509 141.944 388.774 139.836C387.468 136.086 383.662 133.716 379.817 132.629C379.155 132.442 378.481 132.283 377.809 132.124L377.808 132.124C376.242 131.753 374.676 131.382 373.247 130.66C371.205 129.627 369.433 127.613 369.582 125.342ZM376.723 124.741C382.157 125.879 387.468 127.598 392.534 129.858C393.554 130.313 394.627 130.846 395.178 131.811C395.628 132.6 395.654 133.55 395.667 134.457C395.827 145.104 395.86 155.779 394.724 166.367C394.044 172.707 392.947 178.991 391.85 185.275L391.85 185.276L391.849 185.281L391.848 185.286L391.847 185.29L391.847 185.295L391.846 185.3L391.845 185.304L391.844 185.308C391.499 187.286 391.154 189.265 390.822 191.245C389.169 201.096 387.838 211.001 386.833 220.937C386.104 228.147 385.57 235.599 387.83 242.49C388.989 242.279 389.435 240.894 389.655 239.744L410.536 130.501C411.042 127.854 411.547 125.117 410.951 122.489C409.907 117.888 405.793 114.688 401.825 112.092C394.188 107.094 386.059 102.838 377.591 99.403C376.886 107.828 376.597 116.287 376.723 124.741ZM387.461 196.487C391.284 177.005 393.011 157.118 392.604 137.274C392.573 135.775 392.492 134.164 391.568 132.978C390.891 132.109 389.857 131.6 388.847 131.151C385.054 129.464 381.066 128.21 376.987 127.419C375.807 127.19 374.071 127.438 374.123 128.631L388.784 134.644C389.644 134.997 390.561 135.396 391.047 136.184C391.523 136.956 391.477 137.927 391.415 138.831L387.461 196.487ZM373.817 97.4759C372.608 96.6806 370.862 97.5004 370.189 98.7753C369.515 100.05 369.618 101.576 369.77 103.008C369.994 105.108 370.289 107.208 370.584 109.31L370.584 109.311C371.402 115.141 372.22 120.974 371.525 126.793C372.634 127.171 373.871 126.395 374.409 125.361C374.947 124.327 374.961 123.113 374.963 121.949L375 100.967C375.003 99.6844 374.894 98.1845 373.817 97.4759ZM384.673 242.016C384.008 236.831 383.833 231.584 384.153 226.366C384.324 223.576 384.636 220.796 384.948 218.016C385.36 214.341 385.773 210.666 385.859 206.97C382.814 215.966 381.664 225.59 382.504 235.044C382.723 237.503 383.129 240.081 384.673 242.016ZM386.349 201.656C386.839 201.438 387.045 200.755 386.756 200.305C386.258 200.549 386.047 201.238 386.324 201.716L386.349 201.656ZM381.796 156.599C357.562 141.764 330.16 132.876 302.756 125.207C293.996 122.756 285.163 120.406 276.118 119.4C249.317 116.42 222.147 125.599 199.863 140.674C190.925 146.72 182.302 154.157 178.441 164.185C175.576 171.626 175.596 179.817 175.872 187.778C176.825 215.233 180.374 242.526 183.919 269.772C186.691 269.275 186.965 265.471 186.563 262.704C182.877 237.295 180.81 211.656 180.379 185.989C180.258 178.792 180.296 171.413 182.806 164.66C187.348 152.434 199.064 144.439 210.56 138.147C225.039 130.221 240.779 123.559 257.31 123.206C277.334 122.777 296.315 131.594 313.807 141.277C323.56 146.675 333.448 152.703 339.652 161.918C345.285 170.286 347.332 180.483 348.81 190.44C353.501 222.039 353.673 254.107 353.836 286.047C353.842 287.34 353.763 288.82 352.743 289.624C352.046 290.173 351.094 290.241 350.205 290.287L317.536 291.975C332.759 296.32 349.646 294.606 363.669 287.294L399.968 268.366C403.356 266.6 406.853 264.744 409.188 261.735C412.402 257.593 412.862 252.022 413.014 246.796C413.573 227.497 411.629 208.127 407.244 189.317C408.764 209.665 408.975 230.11 407.875 250.484C407.687 253.964 407.406 257.614 405.5 260.54C403.464 263.666 399.924 265.436 396.552 267.062L357.377 285.961C358.998 255.749 357.741 225.386 353.627 195.408C352.243 185.325 350.478 175.101 345.829 166.032C334.843 144.598 310.527 133.996 288.053 125.012C321.653 134.769 355.636 144.687 385.863 162.215C386.256 159.793 383.899 157.886 381.796 156.599ZM506.991 248.821C508.732 253.277 511.181 258.027 515.682 259.725C516.748 259.807 517.385 258.403 517.035 257.4C516.743 256.563 516.056 255.952 515.381 255.353C515.248 255.235 515.115 255.117 514.986 254.998C512.122 252.357 510.716 248.624 509.331 244.947L509.331 244.946C509.057 244.219 508.784 243.494 508.501 242.781C506.785 238.456 504.095 233.939 499.597 232.647C496.826 231.851 493.859 232.444 491.062 233.145C475.259 237.103 460.323 244.439 447.567 254.509C442.018 258.89 436.404 265.1 437.727 272.014C438.227 274.625 439.686 276.943 441.157 279.163C443.956 283.389 446.905 287.517 449.997 291.537C451.349 293.296 452.772 295.073 454.682 296.212C457.915 298.142 461.98 297.932 465.702 297.321C484.938 294.165 501.401 282.3 517.067 270.78C517.882 270.18 518.73 269.542 519.153 268.626C519.575 267.71 519.395 266.436 518.499 265.964C517.472 265.422 516.26 266.17 515.344 266.882C500.766 278.211 485.194 289.281 467.118 293.261C463.692 294.015 459.915 294.459 456.832 292.794C454.525 291.548 452.967 289.308 451.497 287.148L442.378 273.757C441.61 272.629 440.814 271.416 440.786 270.055C440.757 268.694 441.865 267.222 443.226 267.398C456.007 269.048 468.85 270.234 481.718 270.952C482.743 271.01 483.814 271.056 484.748 270.632C485.95 270.087 486.683 268.88 487.325 267.733C492.773 257.985 496.934 247.529 499.67 236.716C503.306 239.305 505.003 243.688 506.622 247.871C506.745 248.189 506.868 248.506 506.991 248.821ZM495.742 235.861C493.307 244.903 489.704 253.635 485.05 261.776C484.27 263.14 483.404 264.546 482.04 265.339C480.304 266.347 478.145 266.157 476.146 265.936L444.308 262.41C449.59 255.481 457.437 250.984 465.278 247.121C472.7 243.464 480.319 240.201 488.092 237.352C490.553 236.45 493.134 235.577 495.742 235.861ZM319.812 428.75C320.598 436.103 321.426 443.611 324.574 450.313L319.421 404.788C319.209 402.914 319.272 400.528 321.008 399.764C322.478 416.9 324.669 433.974 327.574 450.928C327.919 452.941 324.873 454.091 323.162 452.957C321.452 451.823 320.904 449.616 320.515 447.611C317.681 433.002 316.122 418.149 315.863 403.273C312.254 403.978 309.723 407.451 308.993 411.03C308.263 414.608 308.967 418.303 309.67 421.887L316.46 456.493C317.519 461.888 318.577 467.463 317.409 472.836C312.917 452.479 309.306 431.931 306.588 411.268C272.121 432.188 227.71 436.078 190.085 421.473C181.867 418.283 173.706 414.056 168.278 407.151C164.003 401.712 161.721 394.958 160.526 388.162C156.281 364.024 164.98 339.403 176.787 317.885C177.094 317.324 177.405 316.762 177.716 316.198C181.942 308.549 186.344 300.578 186.008 291.926C185.985 291.354 185.945 290.772 185.904 290.185C185.717 287.491 185.525 284.721 187.07 282.587C189.143 286.33 189.932 290.758 189.279 294.98C224.962 293.456 260.697 293.149 296.4 294.06C296.817 295.689 294.439 296.446 292.745 296.421C259.426 295.927 226.091 296.491 192.808 298.11C191.754 298.161 190.647 298.229 189.754 298.786C188.814 299.372 188.266 300.4 187.761 301.381C178.315 319.727 168.837 338.34 164.272 358.438C161.924 368.773 161.024 380.085 165.837 389.542C167.662 393.129 170.244 396.298 173.127 399.12C188.604 414.273 211.78 418.918 233.517 418.556C247.389 418.324 261.231 416.345 274.606 412.68C288.784 408.795 302.925 402.671 312.603 391.676C318.286 385.22 322.149 377.401 325.532 369.512C331.991 354.449 336.946 338.75 340.299 322.721C342.399 323.16 342.428 326.107 341.944 328.182C335.949 353.852 328.981 381.214 309.235 398.828C291.402 414.737 266.272 419.671 242.332 421.002C228.503 421.77 214.456 421.53 201.062 418.031C187.668 414.532 174.879 407.532 166.375 396.68C168.855 406.066 177.256 412.765 186.002 417.1C208.967 428.482 236.084 427.88 261.441 423.924C278.332 421.288 295.669 416.963 308.815 406.11C320.051 396.833 327.212 383.583 332.601 370.099C338.568 355.173 342.706 339.528 344.897 323.618C346.262 322.762 347.273 325.156 347.1 326.749C344.146 354.016 333.621 380.436 316.99 402.335L319.812 428.75ZM303.842 475.377C302.377 472.921 301.433 470.16 301.091 467.326L298.986 474.407L293.673 454.295C293.261 452.735 292.258 450.783 290.669 451.118C289.123 451.444 288.95 453.549 289.18 455.1C290.338 462.902 292.545 470.55 295.726 477.777L290.076 472.856C289.801 475.199 290.422 477.634 291.787 479.565C288.844 477.413 284.897 476.68 281.369 477.63C283.89 481.106 287.312 483.933 291.214 485.761L286.44 479.146C290.299 481.358 294.342 483.252 298.514 484.805L294.469 479.77L299.467 481.145C295.643 472.509 291.747 463.544 291.839 454.111C293.287 461.784 295.406 469.333 298.165 476.644C298.633 477.883 299.152 479.164 300.148 480.043C301.144 480.922 302.763 481.254 303.806 480.431C304.617 479.791 304.854 478.687 305.038 477.675L307.289 465.283L309.762 480.651C311.636 475.951 317.733 474.773 322.826 474.741C329.551 474.7 336.327 475.435 343.085 476.168C355.267 477.49 367.392 478.806 379.064 475.554C378.721 477.345 378.122 479.088 377.289 480.713C386.707 479.352 396.238 478.755 405.754 478.929C409.772 479.003 413.803 479.213 417.834 479.423H417.834H417.834H417.835H417.835H417.836H417.836H417.837H417.837C428.494 479.978 439.151 480.533 449.592 478.569L380.294 477.965C381.596 477.889 382.593 476.388 382.15 475.171C381.706 473.954 379.971 473.433 378.923 474.202C378.241 472.051 375.178 471.095 373.379 472.471C374.422 469.28 376.484 466.424 379.195 464.42C376.135 464.257 373.028 465.186 370.569 467.001L378.022 432.76C377.392 432.222 376.341 432.584 375.875 433.267C375.414 433.944 375.363 434.805 375.315 435.621L375.313 435.647C374.615 447.339 370.461 458.807 363.499 468.263L360.765 460.412L356.847 469.79C355.071 468.425 352.552 468.08 350.471 468.918C351.002 470.924 352.618 472.611 354.609 473.238L355.536 470.772L361.658 474.842C359.318 472.409 358.811 468.427 360.467 465.493L364.171 471.66L371.351 457.565C371.392 463.224 368.948 468.573 366.553 473.709C369.156 471.685 371.394 469.2 373.129 466.405C374.803 469.348 372.974 473.294 370.062 475.046C367.151 476.797 363.55 476.892 360.148 476.75C354.957 476.532 349.727 475.885 344.504 475.238C332.773 473.787 321.075 472.34 309.932 475.768L308.325 461.062C305.87 465.465 304.335 470.369 303.842 475.377ZM373.756 475.769C373.505 475.471 373.506 474.991 373.76 474.694L373.962 474.77C374.302 473.962 375.734 474.028 375.997 474.865C375.336 475.337 374.561 475.65 373.756 475.769ZM411.616 319.525C403.545 315.476 393.941 316.569 384.982 317.788C382.451 318.132 379.87 318.493 377.577 319.612C375.284 320.731 373.287 322.757 372.891 325.263C351.011 322.551 330.044 312.992 313.716 298.284C310.172 295.092 306.555 290.546 308.149 286.067C308.65 284.659 309.625 283.471 310.639 282.368C318.251 274.084 328.747 269.101 338.965 264.319C327.385 265.327 316.273 270.918 308.609 279.593C306.852 281.581 305.232 283.802 304.628 286.378C303.134 292.737 308.11 298.702 313.09 302.969C328.98 316.581 348.967 325.421 369.79 328.046C371.039 328.204 371.103 329.946 370.989 331.191C370.482 336.725 373.521 342.126 377.734 345.787C381.946 349.447 387.223 351.646 392.459 353.614C408.674 359.71 425.501 364.2 442.61 366.995C443.74 367.18 445.293 367.092 445.531 365.98C441.583 363.388 436.831 362.4 432.184 361.434L432.115 361.42L432.047 361.406C431.841 361.363 431.637 361.321 431.432 361.278C419.652 358.816 408.029 355.61 396.658 351.685C391.993 350.075 387.317 348.317 383.25 345.536C379.182 342.755 375.728 338.827 374.427 334.098C373.785 331.763 374.656 328.277 377.077 328.57C386.934 329.767 397.062 330.948 406.687 328.521C408.865 327.972 411.136 327.144 412.464 325.344C413.791 323.544 413.621 320.531 411.616 319.525ZM386.752 325.99C383.368 325.412 379.912 325.258 376.489 325.531C378.152 322.395 382.214 321.57 385.751 321.092C393.439 320.053 401.445 319.04 408.811 321.459C409.297 321.619 409.817 321.823 410.08 322.259C410.426 322.834 410.173 323.616 409.681 324.074C409.189 324.532 408.518 324.74 407.868 324.92C401.024 326.818 393.755 327.187 386.752 325.99ZM274.784 484.167C280.447 484.01 286.143 485.253 291.218 487.751C289.862 489.687 287.135 489.958 284.762 490.047L222.734 492.383C222.165 492.314 222.058 491.442 222.461 491.038C222.863 490.633 223.493 490.582 224.065 490.554L284.617 487.622C281.118 487.304 277.705 486.104 274.784 484.167ZM155.412 280.548C154.528 284.744 158.105 289.221 162.411 289.538C155.368 300.073 142.682 305.273 130.492 308.943C122.884 311.233 114.445 313.114 107.192 309.882C106.292 310.428 107.252 311.772 108.202 312.227C115.26 315.603 123.628 313.722 131.136 311.498C142.146 308.236 153.494 304.021 160.986 295.375C161.292 295.021 161.597 294.657 161.905 294.291L161.905 294.29L161.905 294.29L161.906 294.289L161.906 294.289C163.834 291.989 165.845 289.59 168.744 289.058C178.078 287.344 185.851 281.542 193.533 275.808L193.533 275.808L193.533 275.808L193.533 275.808L193.533 275.808L193.534 275.808C195.276 274.507 197.013 273.21 198.763 271.966C209.398 264.4 221.194 258.444 233.618 254.367C234.715 254.007 236.049 253.339 235.952 252.196C220.549 253.599 207.085 262.717 194.67 271.875L194.256 272.18C185.819 278.406 177.002 284.912 166.621 286.455C170.012 283.8 169.296 277.666 165.47 275.677C161.644 273.689 156.296 276.352 155.412 280.548ZM158.286 283.112C157.594 281.077 158.663 278.655 160.562 277.624C161.101 277.332 161.704 277.137 162.318 277.136C164.346 277.134 165.827 279.287 165.84 281.3C165.854 283.313 164.826 285.169 163.827 286.921C161.49 286.566 159.043 285.336 158.286 283.112ZM388.773 238.26C388.199 237.626 388.375 236.771 388.558 235.886C388.687 235.26 388.82 234.619 388.693 234.03C388.582 233.519 388.282 233.084 387.981 232.647C387.714 232.261 387.447 231.874 387.31 231.432C387.341 230.848 388.128 230.548 388.665 230.79C389.201 231.033 389.501 231.604 389.688 232.159C390.371 234.182 390.02 236.522 388.773 238.26ZM336.848 193.851C338.283 190.474 341.128 187.479 344.756 186.793C345.93 186.571 345.894 184.65 344.865 184.046C343.837 183.442 342.515 183.799 341.436 184.309C336.41 186.684 333.236 191.911 331.993 197.297C330.75 202.682 331.161 208.291 331.579 213.801L333.801 243.087C333.877 244.083 333.969 245.128 334.528 245.959C335.665 247.65 338.105 247.703 340.15 247.574L350.501 246.922C348.201 245.132 345.113 244.379 342.239 244.906C340.561 245.214 338.875 244.115 337.985 242.669C337.096 241.223 336.836 239.492 336.615 237.812C335.172 226.821 334.643 215.712 335.034 204.635C335.164 200.972 335.413 197.229 336.848 193.851ZM363.277 453.803C362.689 454.227 362.1 453.262 362.014 452.547C358.014 419.172 357.411 385.499 356.812 351.895L356.409 329.24C356.397 328.595 356.406 327.888 356.824 327.394C357.544 326.542 359.056 326.933 359.685 327.852C360.313 328.771 360.314 329.962 360.293 331.073C359.677 364.142 360.081 397.275 363.271 430.197C363.31 430.598 363.349 430.999 363.389 431.4C364.12 438.878 364.862 446.47 363.277 453.803ZM330.021 243.429C329.145 242.952 328.064 243.222 327.105 243.504C282.759 256.522 238.514 269.946 194.921 285.267C194.105 285.554 193.172 285.967 192.985 286.806C192.787 287.694 193.629 288.543 194.531 288.708C195.433 288.873 196.345 288.553 197.205 288.238C240.892 272.287 285.237 258.109 330.091 245.753C331.055 245.488 330.897 243.907 330.021 243.429Z" fill="#EEEEEE"/>
<path fill-rule="evenodd" clip-rule="evenodd" d="M488.021 442.572C486.989 443.022 485.871 443.441 484.76 443.251C483.648 443.062 482.609 442.026 482.832 440.929C484.873 430.897 482.31 420.035 475.994 411.945C473.781 409.11 471.146 406.616 468.989 403.738C467.63 401.925 466.421 399.645 467.111 397.491C468.091 394.426 472.041 393.68 475.274 393.461C482.788 392.953 490.303 392.445 497.817 391.936C501.279 391.702 505.267 391.667 507.579 394.237C514.013 401.39 526.553 401.871 533.524 395.231C534.602 394.203 535.96 396.249 535.918 397.732C535.783 402.396 533.846 406.986 530.593 410.354C529.825 411.148 528.844 411.926 527.741 411.813C526.637 411.699 525.824 410.126 526.703 409.456C528.59 408.017 530.512 406.543 531.835 404.58C533.158 402.617 533.799 400.044 532.897 397.858C528.043 403.954 523.143 410.012 518.196 416.034C509.62 426.475 500.447 437.154 488.021 442.572ZM501.575 411.849C500.341 412.188 499.024 411.927 497.792 411.582C488.922 409.094 480.751 402.216 471.679 403.826C482.257 412.282 487.874 426.462 485.931 439.805C492.901 438.324 498.406 433.159 503.342 428.055C510.649 420.501 517.587 412.595 524.124 404.375C519.426 404.336 514.745 402.991 510.753 400.532C505.821 401.743 506.472 410.505 501.575 411.849ZM508.017 397.96C505.078 394.522 499.798 394.628 495.274 395.023C489.372 395.537 483.471 396.052 477.569 396.566C475.173 396.775 472.421 397.193 471.172 399.233C481.386 401.355 491.345 404.689 500.768 409.14C501.98 405.362 504.409 401.978 507.611 399.607C507.971 399.341 508.384 398.999 508.336 398.555C508.311 398.328 508.165 398.134 508.017 397.96Z" fill="#FF971D"/>
<path fill-rule="evenodd" clip-rule="evenodd" d="M70.4918 315.976C61.603 312.448 51.0103 313.494 42.9965 318.692C42.2207 319.196 41.1053 318.635 40.7212 317.798C40.3372 316.96 40.4808 315.986 40.6773 315.087C43.2367 303.375 53.4327 294.413 64.7716 290.295C76.1106 286.177 88.5134 286.165 100.567 286.869C101.763 286.939 103.013 287.032 104.033 287.655C105.053 288.279 105.74 289.612 105.231 290.689C100.49 300.729 96.9179 311.312 94.6098 322.161C94.2355 323.921 92.4024 325.088 90.5969 325.234C88.7915 325.381 87.0225 324.719 85.384 323.952C80.2778 321.562 75.7335 318.057 70.4918 315.976ZM71.5078 304.125C70.7156 304.764 69.4774 304.427 68.732 303.735C67.9866 303.043 67.5619 302.085 66.976 301.255C63.8331 296.805 56.6209 297.175 52.3459 300.57C48.0708 303.965 46.0021 309.33 44.1184 314.432C56.6603 309.025 72.1078 310.966 82.8972 319.304C84.3703 320.442 85.832 321.725 87.646 322.163C89.46 322.601 91.7452 321.814 92.2046 320.018C94.6593 310.423 97.684 300.971 101.258 291.729C94.4004 300.189 79.9988 297.278 71.5078 304.125ZM68.7787 299.012C69.4831 299.891 70.7618 300.124 71.8749 299.926C72.9881 299.727 73.9995 299.177 75.0367 298.729C78.6077 297.189 82.5628 296.845 86.3913 296.141C90.2197 295.436 94.1686 294.244 96.8637 291.454C90.7828 291.436 84.702 291.418 78.6211 291.4C72.5101 291.382 65.9248 291.51 61.0154 295.122C64.004 295.231 66.9163 296.69 68.7787 299.012Z" fill="#FF971D"/>
<path fill-rule="evenodd" clip-rule="evenodd" d="M356.067 315.167C356.052 309.858 356.038 304.549 356.024 299.24C356.02 297.716 356.015 296.191 356.011 294.666C356.008 293.615 356.186 292.299 357.193 291.972C357.954 291.725 358.792 292.268 359.148 292.981C359.504 293.693 359.5 294.523 359.488 295.318C359.377 302.727 359.266 310.136 359.155 317.544C359.139 318.61 358.959 319.921 357.954 320.295C356.277 319.352 356.072 317.079 356.067 315.167H356.067Z" fill="#EEEEEE"/>
<path fill-rule="evenodd" clip-rule="evenodd" d="M345.388 310.254C344.614 310.591 344.215 309.325 344.334 308.494C344.763 305.521 345.192 302.542 345.92 299.627C346.374 297.813 347.028 295.903 348.538 294.785C350.048 293.668 352.64 293.863 353.379 295.583C353.737 296.416 353.588 297.368 353.424 298.259C352.407 303.774 351.038 309.225 349.327 314.569C349.255 314.796 349.175 315.032 349.002 315.197C348.581 315.597 347.822 315.328 347.53 314.827C347.238 314.325 347.276 313.707 347.323 313.13C348.018 313.08 348.342 312.268 348.509 311.596C349.191 308.853 349.873 306.109 350.555 303.365C351.085 301.23 351.569 298.799 350.335 296.974C349.066 297.749 348.59 299.317 348.212 300.747C347.453 303.624 346.694 306.502 345.934 309.379C345.843 309.723 345.716 310.111 345.388 310.254L345.388 310.254Z" fill="#EEEEEE"/>
</svg>
