<svg width="585" height="515" viewBox="0 0 585 515" fill="none" xmlns="http://www.w3.org/2000/svg">
<path fill-rule="evenodd" clip-rule="evenodd" d="M343.166 514.883C477.764 514.883 496.845 455.003 517.253 443.999C537.662 432.996 524.974 410.913 538.358 394.258C559.738 367.653 572.696 381.364 579.772 346.85C586.848 312.337 573.984 302.573 573.984 271.759C573.984 210.023 603.558 180.798 565.792 148.497C528.025 116.196 464.957 120.007 402.58 120.007C286.804 120.007 217.445 -38.7038 63.0277 8.91122C9.81216 25.3204 15.6936 47.6823 27.3866 126.708C32.4643 161.025 -5.87394 204.656 0.777906 243.654C12.9267 314.879 45.0123 305.217 105.551 353.306C115.707 361.374 130.52 361.29 141.592 369.565C160.154 383.436 161.347 405.007 196.05 419.556C252.007 443.016 247.261 514.883 343.166 514.883Z" fill="#303841"/>
<ellipse cx="85.8533" cy="331.03" rx="34.0298" ry="32" fill="white"/>
<path fill-rule="evenodd" clip-rule="evenodd" d="M72.5078 216.936C66.7066 202.448 71.7741 193.768 75.0223 182.436C77.7355 172.97 98.9539 157.595 108.719 173.627C111.592 178.344 110.44 182.802 116.719 186.947C131.918 196.982 123.626 176.163 124.192 170.901C124.467 168.333 122.298 162.413 123.106 159.936C123.953 157.336 128.469 153.643 128.469 148.254C128.469 142.865 119.283 140.79 116.719 139.466C93.9308 127.7 79.4383 108.049 86.6605 98.0754C96.7229 84.1798 136.159 106.043 148.008 108.049C148.162 108.075 150.278 97.0274 152.006 94.4978C155.465 89.4367 159.286 84.5238 163.846 80.4269C165.888 78.5917 168.657 77.4589 171.378 77.0917C179.521 75.9929 187.852 75.0919 196.009 76.087C198.891 76.4387 216.056 56.5729 222.749 50.1648C274.099 1.00001 377.037 60.9124 320.926 142.324C310.613 157.288 297.426 162.046 295.723 167.335C291.94 179.082 315.755 177.537 325.843 178.792C343.078 180.935 351.572 189.788 340.873 204.963C334.208 214.416 295.109 213.934 277.982 207.098C271.624 204.561 263.768 193.467 257.76 202.567C253.62 208.837 237.48 222.14 220.165 229.665C212.35 233.062 203.449 231.015 196.779 234.048C187.392 238.317 159.68 256.244 148.008 256.24C136.254 256.236 121.043 242.09 119.283 241.162C116.601 239.748 95.8512 235.694 85.6007 219.876C82.501 215.092 74.6313 222.239 72.5078 216.936Z" fill="white"/>
<circle cx="500.696" cy="122.53" r="47.5" fill="white"/>
<ellipse cx="352.171" cy="392.001" rx="138.025" ry="117.971" fill="#F6B50E"/>
<path d="M267.536 470.602C269.296 476.102 269.586 482.066 268.367 487.711C267.15 493.347 268.33 493.361 267.137 487.719C265.945 482.085 266.083 476.174 267.536 470.602ZM277.461 487.863C278.204 492.546 278.355 491.829 275.915 487.764C273.447 483.654 273.191 478.299 275.256 473.972C275.991 478.602 276.726 483.233 277.461 487.863ZM281.068 479.499C282.84 481.945 284.08 484.776 284.677 487.737C285.261 490.638 284.634 489.916 282.716 487.663C280.837 485.456 280.192 482.261 281.068 479.499ZM260.365 467.586C260.498 466.924 261.554 466.903 261.971 467.433C262.387 467.964 262.344 468.709 262.281 469.381C261.766 474.887 261.252 480.394 260.737 485.9C259.945 486.299 259.313 485.133 259.18 484.256C258.809 481.792 258.437 479.301 258.648 476.818C258.751 475.617 258.989 474.432 259.226 473.25C259.606 471.362 259.985 469.474 260.365 467.586ZM253.787 459.665C254.166 459.378 254.752 459.585 255.029 459.971C255.306 460.358 255.355 460.859 255.386 461.334C255.632 465.1 255.357 468.878 255.083 472.642C254.896 475.199 254.71 477.756 254.523 480.312C254.453 481.275 254.373 482.274 253.9 483.116C252.536 480.234 252.389 476.94 252.418 473.752C252.457 469.355 252.782 464.961 253.388 460.606C253.437 460.26 253.508 459.876 253.787 459.665ZM248.206 453.868C248.611 453.367 249.43 453.871 249.718 454.447C250.423 455.86 250.085 457.547 249.732 459.087C248.469 464.598 247.204 470.11 245.94 475.622C245.865 475.951 245.775 476.306 245.516 476.524C245.025 476.939 244.207 476.574 243.936 475.991C243.666 475.407 243.775 474.726 243.891 474.093C245.105 467.474 246.482 460.884 248.02 454.333C248.059 454.169 248.1 453.999 248.206 453.868ZM446.195 423.714C446.976 423.867 447.492 424.597 447.896 425.283C452.715 433.456 453.473 443.777 450.421 452.76C447.368 461.744 440.678 469.328 432.41 473.982C431.638 474.417 430.432 474.705 430.058 473.901C438.221 466.671 446.641 458.655 449.276 448.074C451.217 440.282 449.604 431.677 444.972 425.118C444.513 424.467 445.414 423.561 446.195 423.714ZM405.046 411.569C412.03 411.317 418.995 412.315 425.901 413.385C430.215 414.054 435.272 415.336 436.785 419.43C426.009 415.407 414.299 413.907 402.856 415.085C398.058 415.579 393.245 416.558 388.931 418.716C380.793 422.79 374.974 431.175 374.006 440.224C373.037 449.274 376.951 458.7 384.044 464.403C388.57 468.042 394.124 470.142 398.996 473.303C399.56 473.843 398.29 474.382 397.547 474.142C390.635 471.911 383.922 468.518 378.992 463.184C372.994 456.696 370.069 447.482 371.225 438.722C372.382 429.963 377.6 421.823 385.077 417.115C390.991 413.391 398.061 411.821 405.046 411.569ZM246.311 445.235C247.112 445.266 247.325 446.356 247.245 447.154C246.583 453.741 242.56 459.912 243.287 466.492C243.356 467.115 243.392 467.896 242.846 468.202C241.204 466.966 241.046 464.589 241.171 462.538C241.508 456.982 242.84 451.488 245.083 446.394C245.325 445.845 245.712 445.212 246.311 445.235ZM403.846 424.93C408.414 423.033 413.767 423.926 418.165 426.19C422.372 428.356 447.012 449.053 428.236 462.728C423.763 465.986 416.44 467.431 416.44 467.431L414.993 464.789C415.07 464.768 428.081 461.303 430.066 456.519C432.058 451.721 430.437 446.11 428.236 441.404C425.954 436.523 420.012 432.437 415.217 429.98C412.989 428.839 410.502 428.031 408.011 428.267C406.779 428.384 405.582 428.752 404.436 429.22C398.993 431.447 394.585 436.079 392.631 441.626C390.677 447.173 391.208 453.545 394.055 458.692C393.08 459.879 391.336 458.228 390.789 456.793L390.493 455.998C388.655 450.928 388.647 445.562 389.506 440.311C390.789 432.467 400.433 426.347 403.846 424.93ZM350.268 272.977C352.332 270.357 356.279 270.509 359.591 270.905C367.183 271.813 374.776 272.721 382.369 273.63C384.11 273.838 386.196 274.313 386.745 275.978C388.216 280.442 393.408 282.264 397.908 283.621C413.907 288.445 429.546 294.995 443.129 304.729C456.712 314.463 468.193 327.558 474.284 343.119C464.38 329.581 454.219 315.788 440.473 306.174C436.54 303.423 432.356 301.048 428.109 298.809C418.086 293.526 407.655 288.971 396.818 285.664C346.512 270.309 288.321 284.551 250.791 321.401C245.349 326.744 240.247 332.629 237.161 339.603C238.52 340.025 239.878 340.446 241.237 340.868C234.776 343.756 229.977 350.083 228.938 357.084C231.539 352.63 235.245 348.828 239.631 346.114C236.776 355.651 223.527 360.926 224.279 370.852C226.216 365.77 231.094 361.934 236.489 361.251C227.931 369.612 218.748 379.426 219.02 391.387C222.142 384.48 227.443 378.576 233.975 374.732C230.841 378.945 227.706 383.158 224.571 387.371C221.014 392.15 217.269 397.612 218.082 403.514C221.176 397.961 225.6 393.155 230.878 389.613C228.336 395.393 224.707 400.693 220.237 405.153C224.488 404.64 228.58 402.879 231.876 400.146C230.494 402.075 229.249 404.252 229.203 406.624C229.157 408.996 230.694 411.541 233.042 411.882C233.752 410.293 235.981 409.622 237.451 410.554C232.996 414.89 232.95 422.922 237.355 427.308C237.747 425.247 239.486 423.51 241.548 423.12C238.261 428.866 237.671 436.082 239.978 442.286C240.677 438.771 242.627 435.518 245.398 433.246C243.8 441.584 240.268 449.545 235.158 456.325C235.674 456.699 236.191 457.073 236.707 457.447C233.211 460.584 227.951 456.683 225.002 453.027C220.26 447.148 215.448 440.899 214.005 433.485C213.184 429.266 213.513 424.919 213.845 420.633C214.29 414.874 214.736 409.115 215.181 403.356C215.774 395.7 216.369 388.029 217.694 380.465C221.281 359.993 230.311 340.501 243.606 324.527C245.989 321.664 248.652 318.537 248.606 314.812C248.511 307.078 252.965 299.85 258.813 294.787C264.661 289.724 271.822 286.475 278.873 283.295C282.067 281.854 286.239 280.563 288.715 283.043C293.807 288.144 302.304 284.894 309.03 282.303C317.288 279.123 326.109 277.409 334.957 277.266C340.453 277.177 346.868 277.296 350.268 272.977ZM222.996 410.809C221.93 410.774 220.797 410.856 219.925 411.469C219.052 412.083 218.593 413.388 219.213 414.257C221.057 416.841 222.444 419.751 223.292 422.811C223.788 424.604 224.163 426.561 225.495 427.859C226.393 428.734 226.623 430.07 226.805 431.311C227.298 434.664 227.791 438.017 228.284 441.37C228.553 443.201 228.822 445.068 228.514 446.892C228.206 448.717 227.22 450.526 225.565 451.354C227.327 451.953 229.089 452.553 230.85 453.152C231.617 453.413 232.402 453.677 233.212 453.669C235.994 453.64 237.724 450.528 238.014 447.76C238.362 444.45 237.539 441.141 236.723 437.914C235.11 431.533 233.497 425.153 231.884 418.772C230.195 419.307 231.272 422.255 229.957 423.441C228.732 421.918 228.593 419.611 229.626 417.952C230.669 416.276 229.987 413.93 228.508 412.624C227.028 411.318 224.968 410.874 222.996 410.809ZM281.82 415.423C282.981 414.294 285.32 413.557 285.864 415.082C281.94 418.861 279.357 424.156 279.39 429.604C279.424 435.052 282.281 440.534 287.03 443.204C290.332 445.06 294.221 445.492 297.992 445.857C299.743 446.026 301.502 446.19 303.26 446.109C311.034 445.752 318.293 440.127 320.579 432.688C320.939 431.52 322.905 431.812 323.394 432.932C323.884 434.053 323.38 435.344 322.814 436.428C318.668 444.387 310.614 450.36 301.694 451.345C292.774 452.331 283.311 447.985 278.796 440.229C274.28 432.474 275.385 421.677 281.82 415.423ZM300.302 411.089C302.877 410.411 305.586 409.768 308.176 410.392C310.14 410.865 311.873 412.041 313.337 413.433C315.983 415.95 317.911 419.365 318.091 423.012C318.271 426.66 316.486 430.48 313.27 432.213C312.675 432.106 312.912 431.203 313.237 430.692C315.234 427.552 314.695 423.194 312.431 420.24C310.168 417.286 306.463 415.661 302.756 415.341C298.91 415.008 294.963 415.99 291.722 418.085C290.216 419.058 288.824 420.312 288.078 421.942C287.709 422.748 287.509 423.622 287.389 424.501C286.821 428.675 288.115 433.07 290.856 436.269C293.598 439.468 297.741 441.421 301.954 441.499C302.341 442.529 300.693 443.019 299.606 442.844C295.616 442.203 291.443 440.895 288.922 437.737C287.526 435.988 286.769 433.829 286.036 431.715C285.097 429.006 284.144 426.175 284.515 423.332C284.975 419.818 287.446 416.817 290.427 414.899C293.407 412.982 296.875 411.99 300.302 411.089ZM401.182 373.047C403.35 371.836 406.358 372.439 407.891 374.391C407.978 374.502 408.062 374.62 408.098 374.756C408.22 375.214 407.725 375.637 407.252 375.665C406.779 375.692 406.333 375.468 405.883 375.32C403.403 374.504 400.744 376.006 398.887 377.84C398.035 378.68 397.256 379.617 396.749 380.701C395.193 384.027 396.576 388.175 399.228 390.714C399.812 391.272 400.455 391.774 401.161 392.167C404.849 394.217 410.107 392.534 411.92 388.724C413.051 389.564 412.709 391.37 411.944 392.553C409.843 395.804 405.287 397.202 401.724 395.689C399.962 394.941 398.509 393.604 397.282 392.133C394.2 388.441 392.377 383.061 394.61 378.801C395.982 376.184 398.603 374.488 401.182 373.047ZM408.416 388.497C408.413 389.63 407.438 390.581 406.352 390.905C405.266 391.229 404.099 391.056 402.991 390.816C401.761 390.55 400.257 389.795 400.438 388.549C402.291 389.369 404.345 390.204 406.283 389.616C407.054 389.382 407.741 388.937 408.416 388.497ZM405.471 379.724C406.593 379.652 407.796 379.609 408.753 380.2C410.063 381.008 410.473 382.796 410.14 384.299C409.593 386.771 407.236 388.72 404.706 388.793C402.175 388.865 399.71 387.054 399.022 384.618C398.599 383.119 399.604 381.511 400.954 380.735C402.304 379.959 403.917 379.824 405.471 379.724ZM407.197 383.229C406.112 382.775 404.743 383.136 404.023 384.067C403.895 384.234 403.781 384.432 403.8 384.642C403.844 385.147 404.542 385.273 405.031 385.141C405.995 384.882 406.82 384.153 407.197 383.229ZM266.227 342.501C269.828 341.06 273.949 340.429 277.571 341.817C278.465 342.16 279.33 342.632 279.974 343.341C280.58 344.006 280.961 344.845 281.248 345.697C283.088 351.154 281.22 357.466 277.267 361.654C273.314 365.842 267.559 368.04 261.814 368.452C259.974 368.584 257.997 368.509 256.477 367.464C254.957 366.418 254.203 364.094 255.374 362.668C256.201 362.708 256.458 363.792 257.021 364.398C257.659 365.085 258.715 365.134 259.651 365.094C263.724 364.923 267.859 363.914 271.175 361.542C274.49 359.169 276.872 355.294 276.803 351.217C276.78 349.904 276.494 348.56 275.75 347.477C274.528 345.701 272.219 344.899 270.067 345.041C267.916 345.183 265.899 346.137 264.067 347.274C261.657 348.77 259.429 350.651 257.918 353.052C256.407 355.454 255.667 358.422 256.306 361.186C255.741 362.205 254.063 362.002 253.369 361.066C252.675 360.13 252.719 358.847 252.913 357.698C254.086 350.758 259.692 345.115 266.227 342.501ZM337.753 345.656C338.781 345.642 339.822 345.629 340.823 345.867C342.954 346.374 344.652 347.947 346.164 349.531C346.499 349.882 346.855 350.314 346.772 350.792C346.67 351.384 345.927 351.657 345.338 351.536C344.749 351.415 344.251 351.035 343.704 350.784C341.585 349.812 339.094 350.878 337.191 352.224C336.892 352.436 336.569 352.708 336.561 353.074C336.554 353.442 336.87 353.727 337.167 353.945C339.739 355.829 343.031 356.701 346.198 356.338C346.955 356.251 347.845 355.973 348.042 355.236C348.247 354.467 347.692 353.335 348.427 353.031C348.666 352.932 348.938 353.004 349.186 353.076C350.901 353.574 352.905 354.376 353.237 356.13C353.333 356.636 353.265 357.165 353.103 357.655C352.631 359.089 351.316 360.209 349.825 360.446C349.163 360.551 348.487 360.494 347.819 360.436C346.075 360.286 344.328 360.137 342.599 359.858C339.425 359.347 336.32 358.401 333.4 357.055C332.387 356.588 331.334 356.014 330.82 355.023C330.43 354.27 330.412 353.387 330.402 352.539C330.383 350.865 330.406 349.053 331.417 347.718C332.808 345.882 335.449 345.688 337.753 345.656ZM408.421 339.067C410.377 338.502 412.478 338.68 414.464 339.13C415.133 339.281 415.828 339.481 416.317 339.963C416.705 340.345 416.923 340.868 417.064 341.394C417.741 343.909 416.741 346.79 414.653 348.346C412.565 349.903 409.519 350.036 407.303 348.67C406.907 348.426 406.522 348.121 406.338 347.695C405.926 346.744 406.724 345.636 407.694 345.271C408.665 344.907 409.74 345.045 410.776 345.057C411.813 345.07 412.958 344.897 413.631 344.108C413.868 343.83 414.028 343.421 413.847 343.103C413.659 342.771 413.212 342.714 412.831 342.694C410.189 342.557 407.07 342.638 405.547 344.801C405.219 345.266 404.417 345.109 404.111 344.63C403.805 344.15 403.876 343.521 404.05 342.98C404.673 341.042 406.465 339.632 408.421 339.067ZM430.912 315.955C432.382 315.523 433.823 316.617 434.968 317.635C436.259 318.785 437.578 319.97 438.377 321.503C439.175 323.035 439.354 325.015 438.366 326.433C438.118 326.789 438.548 327.451 438.159 327.643C437.387 328.024 436.463 327.985 435.64 327.732C433.394 327.043 431.888 324.981 430.617 323.005C429.874 321.849 429.134 320.622 429.013 319.253C428.893 317.884 429.593 316.342 430.912 315.955ZM432.831 319.663C432.482 319.768 432.452 320.286 432.662 320.584C432.872 320.882 433.22 321.05 433.481 321.304C434.11 321.916 434.174 322.944 434.795 323.563C435.185 323.952 435.778 324.126 436.317 324.01C435.308 322.447 434.137 320.988 432.831 319.663ZM288.07 287.235C287.306 286.437 285.992 285.74 285.187 286.497C275.808 295.321 265.133 302.768 253.613 308.524C251.522 309.569 251.241 312.385 251.24 314.722C251.24 315.503 251.987 316.599 252.474 315.989C254.85 313.013 257.939 310.702 260.992 308.425C269.583 302.021 278.276 295.556 288.124 291.334C289.319 290.821 290.718 290.097 290.816 288.8C289.735 289.029 288.834 288.034 288.07 287.235ZM385.214 302.657C386.908 301.899 388.782 301.257 390.593 301.664C392.318 302.051 393.693 303.326 394.896 304.622C395.883 305.684 396.816 306.796 397.691 307.953C398.462 308.972 399.203 310.059 399.493 311.303C399.783 312.548 399.533 313.993 398.571 314.835C397.63 315.658 396.182 315.728 395.04 315.219C394.031 314.77 393.169 313.781 393.244 312.678C393.319 311.576 394.673 310.662 395.6 311.263C394.58 308.506 392.115 306.329 389.252 305.659C388.366 305.452 387.366 305.401 386.615 305.914C385.864 306.427 385.605 307.679 386.321 308.24C387.016 308.784 386.596 310.063 385.748 310.305C384.899 310.547 383.986 309.971 383.562 309.197C383.139 308.423 383.094 307.504 383.089 306.622C383.082 305.444 383.19 304.131 384.059 303.338C384.391 303.035 384.804 302.84 385.214 302.657ZM335.406 293.694C337.791 293.526 340.294 294.276 341.973 295.978C342.335 296.344 342.66 296.757 342.854 297.233C343.238 298.172 343.074 299.245 342.764 300.211C341.46 304.277 337.418 307.35 333.147 307.358C332.23 307.36 331.241 307.198 330.596 306.547C329.95 305.895 329.896 304.629 330.685 304.162C330.958 304 331.283 303.954 331.597 303.913C332.644 303.774 333.69 303.636 334.736 303.498C335.779 303.36 336.853 303.211 337.762 302.681C338.67 302.151 339.381 301.137 339.228 300.096C339.075 299.053 338.095 298.284 337.067 298.049C336.039 297.815 334.967 298.005 333.932 298.212C332.741 298.45 331.531 298.719 330.482 299.332C329.433 299.945 328.553 300.964 328.404 302.17C328.351 302.603 327.853 302.881 327.422 302.811C326.99 302.741 326.642 302.409 326.416 302.035C325.824 301.053 325.938 299.763 326.467 298.746C326.995 297.729 327.882 296.944 328.812 296.275C330.753 294.879 333.021 293.863 335.406 293.694ZM355.684 273.382C354.122 272.937 352.785 274.52 351.929 275.901C354.499 275.633 357.087 275.523 359.672 275.571C364.17 275.654 368.644 276.214 373.108 276.773C375.377 277.057 377.662 277.346 379.838 278.049C381.555 278.605 383.37 279.426 385.09 278.877C384.558 277.629 383.046 277.179 381.714 276.928C373.098 275.305 364.116 275.788 355.684 273.382Z" fill="#00160A"/>
<path fill-rule="evenodd" clip-rule="evenodd" d="M86.2473 358.666C79.6067 359.379 72.5731 357.843 67.3882 353.633C63.7161 350.651 61.1358 346.504 59.3253 342.134C57.3596 337.39 56.2294 332.301 56.0022 327.17C55.9167 325.239 55.9626 323.271 56.5302 321.423C57.4644 318.382 59.7141 315.94 62.0106 313.738C66.8963 309.052 72.6389 304.777 79.3363 303.792C83.9 303.12 88.5423 304.035 93.0095 305.185C96.518 306.088 100.022 307.152 103.178 308.932C110.151 312.863 114.983 320.362 115.682 328.337C116.381 336.312 115.521 341.596 104.759 351.504C99.1671 355.155 92.8878 357.954 86.2473 358.666ZM97.9579 333.634C96.8808 333.972 95.8073 334.574 94.6954 334.378C92.4239 333.978 92.0174 330.862 92.5218 328.611C93.9656 322.169 98.4565 316.479 104.387 313.578C103.045 311.143 99.4782 310.964 96.9558 312.134C94.4333 313.305 92.4614 315.414 90.022 316.749C88.808 317.413 87.3694 317.883 86.0488 317.47C83.8758 316.789 83.0463 313.943 83.7577 311.78C84.4691 309.617 86.2446 308.003 87.9494 306.493C81.7718 306.71 75.6589 308.564 70.4019 311.815C66.2865 314.361 62.3828 318.535 62.9288 323.343C66.3316 320.604 70.3267 318.605 74.5588 317.524C75.4564 317.294 76.5831 317.179 77.1448 317.916C77.5703 318.474 77.4481 319.277 77.1755 319.923C75.8228 323.131 71.8446 324.208 69.3772 326.664C69.0532 326.987 68.7425 327.359 68.6641 327.809C68.5104 328.692 69.3516 329.497 70.2354 329.644C71.1191 329.792 72.0063 329.47 72.8446 329.154C74.5856 328.497 76.3266 327.84 78.0675 327.183C79.3279 326.708 80.8242 326.254 81.945 327.001C83.1044 327.774 83.2137 329.532 82.5584 330.762C81.9031 331.992 80.7002 332.817 79.5427 333.593C76.7525 335.463 73.9623 337.333 71.1721 339.203C68.836 340.769 66.2188 342.879 66.4409 345.683C66.6499 348.322 69.5529 350.115 72.1947 349.946C74.8364 349.776 77.1612 348.161 79.1109 346.37C81.0606 344.58 82.8204 342.535 85.0845 341.164C86.562 340.269 88.67 339.772 89.8703 341.014C90.7975 341.974 90.7081 343.517 90.3601 344.805C89.3571 348.519 86.6452 351.733 83.1538 353.347C85.9944 354.002 88.9568 354.126 91.8422 353.71C93.4878 353.472 95.1914 353.016 96.3814 351.855C97.5714 350.693 98.0322 348.65 96.9999 347.347C95.4601 345.402 95.5214 342.558 96.5051 340.281C97.4888 338.004 99.246 336.166 100.967 334.381C100.475 333.365 99.0349 333.296 97.9579 333.634ZM111.109 338.047C112.656 334.471 112.712 330.428 112.321 326.551C111.887 322.265 110.393 317.363 106.354 315.861C100.437 318.317 95.8696 323.797 94.5202 330.061C94.4068 330.587 94.318 331.153 94.5251 331.65C94.7322 332.147 95.3476 332.51 95.8245 332.26C97.4607 331.402 99.4729 330.916 101.136 331.719C102.8 332.523 103.61 335.03 102.263 336.294C100.775 337.69 99.2462 339.143 98.4434 341.02C97.6405 342.896 97.7563 345.325 99.2678 346.696C100.404 347.727 100.407 349.75 99.2737 350.783C102.495 349.843 104.79 347.073 106.879 344.447C108.475 342.439 110.091 340.401 111.109 338.047ZM74.0287 319.556C70.6781 320.946 67.4257 322.572 64.3038 324.419C63.5614 324.859 62.8111 325.324 62.2683 325.994C61.5352 326.899 61.2567 328.081 61.0302 329.223C60.2984 332.915 59.9211 336.889 61.4713 340.318C61.9662 341.413 62.6425 342.414 63.3155 343.409C63.5141 343.703 63.7396 344.017 64.0801 344.116C64.4206 344.214 64.8703 343.94 64.7903 343.595C64.5438 342.53 65.35 341.529 66.1456 340.78C70.8052 336.394 77.0826 333.876 81.2728 329.04C80.6372 328.287 79.4314 328.641 78.5251 329.028C76.3664 329.949 74.1406 330.713 71.8711 331.312C70.7004 331.621 69.3957 331.872 68.3272 331.303C66.7635 330.469 66.5089 328.188 67.3349 326.62C68.1609 325.053 69.7311 324.041 71.2454 323.12C72.7597 322.2 74.3484 321.239 75.257 319.718C75.0917 319.285 74.4568 319.379 74.0287 319.556ZM85.496 348.938C86.9767 347.748 88.5766 346.345 88.7381 344.452C88.8225 343.462 88.1878 342.252 87.199 342.347C86.8952 342.376 86.6177 342.526 86.3556 342.683C82.0497 345.255 79.2159 350.285 74.3585 351.535C75.7311 352.15 77.1623 352.633 78.6263 352.977C79.0623 353.079 79.5162 353.169 79.9547 353.079C80.4649 352.973 80.8919 352.637 81.298 352.31C82.6974 351.186 84.0967 350.062 85.496 348.938ZM89.5004 307.816C88.5422 308.876 87.5841 309.936 86.6259 310.996C85.8669 311.835 85.0527 312.943 85.4752 313.992C85.7864 314.766 86.7055 315.157 87.5367 315.092C88.3679 315.028 89.125 314.603 89.8221 314.145C92.3061 312.515 94.5426 310.295 97.4414 309.644C95.4315 308.912 93.4216 308.179 91.4117 307.447C90.9932 307.294 90.5264 307.142 90.1146 307.312C89.8675 307.414 89.6797 307.618 89.5004 307.816Z" fill="#00160A"/>
<path d="M245.757 37.0213C263.589 31.0554 282.595 40.2501 299.141 49.1834C305.464 52.5969 312.13 56.3439 315.549 62.6629C318.906 68.8656 326.753 71.3716 330.694 77.2205C334.835 83.3671 333.688 91.5332 332.144 98.782C329.209 112.557 325.346 126.34 318.137 138.439C310.929 150.539 300.011 160.912 286.546 165.043C295.839 173.107 306.059 181.572 318.333 182.439C322.818 182.756 327.347 182.017 331.811 182.559C336.275 183.102 340.972 185.358 342.543 189.571C343.98 193.424 342.322 197.915 339.399 200.806C336.475 203.698 332.507 205.267 328.565 206.436C305.33 213.329 278.862 208.157 259.931 193.024C246.579 213.397 224.128 227.555 199.99 230.825C195.118 231.485 191.041 234.701 187.134 237.685C180.18 242.998 172.832 247.998 164.576 250.9C156.319 253.803 146.991 254.448 138.903 251.106C128.166 246.67 120.116 235.618 108.525 234.826C96.3828 233.997 91.0132 214.443 78.9155 215.772C73.4152 216.376 71.1635 208.762 71.855 203.272C73.0313 193.934 76.7632 184.93 82.5376 177.498C86.5247 172.366 92.4865 167.658 98.8882 168.776C108.8 170.508 111.205 183.481 117.786 191.093C122.778 191.687 126.652 186.249 126.903 181.227C127.154 176.206 125.079 171.392 124.204 166.44C123.328 161.489 124.115 155.533 128.385 152.879C131.276 151.082 131.149 146.55 129.086 143.842C127.024 141.133 123.724 139.741 120.658 138.262C111.699 133.939 103.553 127.935 96.773 120.657C93.6478 117.302 90.7338 113.527 89.6421 109.074C88.5504 104.621 89.6916 99.3572 93.4107 96.6756C98.049 93.3315 104.478 95.0387 109.86 96.9705C122 101.328 133.959 106.189 145.696 111.537C151.1 104.754 153.56 96.0622 158.537 88.9598C168.529 74.6985 189.094 69.0192 204.99 76.1307C206.839 64.1092 217.247 55.5244 226.961 48.2059C232.812 43.7988 238.811 39.3452 245.757 37.0213ZM152.564 225.632C151.864 225.592 151.184 225.841 150.528 226.086C141.387 229.496 132.247 232.905 123.106 236.315C130.728 246.547 144.31 251.969 156.882 249.8C165.461 248.319 173.158 243.687 180.216 238.591C183.598 236.149 186.908 233.561 189.678 230.442C181.698 231.051 173.313 231.592 166.042 228.248C163.702 227.172 161.39 225.678 158.817 225.755C157.364 225.798 155.915 226.351 154.487 226.081C153.839 225.958 153.222 225.669 152.564 225.632ZM278.975 43.6024C270.763 38.3266 260.238 37.7176 250.699 39.7879C241.022 41.8882 231.923 46.5964 224.62 53.283C208.297 68.2266 202.264 91.0948 197.773 112.764C197.402 114.554 196.831 116.608 195.15 117.325C194.52 117.594 193.818 117.626 193.134 117.654C187.556 117.884 181.978 118.114 176.4 118.345C170.497 118.588 164.553 118.829 158.708 117.969C150.383 116.743 142.561 113.331 134.855 109.953C126.224 106.17 117.593 102.386 108.962 98.6024C106.396 97.4774 103.675 96.3277 100.892 96.6541C94.6916 97.3815 91.6145 105.349 93.5591 111.281C95.5039 117.214 100.675 121.409 105.592 125.256C109.381 128.218 115.255 126.701 118.602 123.248C121.949 119.794 123.397 114.976 124.733 110.356C125.902 109.424 126.866 111.789 126.461 113.228C124.461 120.345 119.586 126.609 113.178 130.296C122.625 139.556 135.669 144.24 148.648 146.801C161.627 149.361 174.924 150.066 187.874 152.771C189.954 153.206 192.56 155.432 190.951 156.821C183.785 155.586 176.618 154.35 169.453 153.114C164.614 152.28 159.552 151.458 154.871 152.939C149.037 154.785 144.828 159.903 141.896 165.273C138.964 170.643 136.947 176.512 133.577 181.618C127.735 190.47 117.822 196.512 107.278 197.648C107.39 194.884 110.258 192.569 112.984 193.043C113.438 188.148 108.163 184.086 103.265 184.507C98.3671 184.928 94.2931 188.662 91.8911 192.951C86.365 202.819 88.4912 216.167 96.3491 224.302C104.207 232.436 116.994 235.103 127.692 231.431C139.533 227.368 151.961 222.917 160.112 213.415C162.228 216.784 159.351 221.992 155.373 221.995C170.163 226.966 185.973 229.478 201.456 227.546C216.938 225.613 232.081 219.003 242.841 207.704C236.057 205.367 229.483 202.418 223.226 198.905C213.343 211.848 196.878 219.475 180.615 218.647C196.326 217.291 211.359 209.307 221.281 197.05C213.826 191.84 207.093 185.599 201.334 178.559C205.075 174.009 208.816 169.459 212.556 164.909C218.166 171.623 225.03 177.287 232.687 181.519C233.613 182.031 234.674 182.537 235.69 182.241C236.602 181.975 237.209 181.138 237.742 180.351C241.907 174.205 245.892 167.935 249.69 161.555C246.396 160.539 243.372 158.657 241.005 156.15C246.322 156.088 251.187 158.864 256.166 160.73C272.559 166.877 292.361 162.6 304.757 150.236C293.682 154.39 281.601 156.51 269.948 154.48C258.295 152.451 247.137 145.904 241.145 135.706C233.236 122.244 235.047 104.505 226.312 91.5643C220.905 83.553 220.809 72.2981 226.08 64.1961C229.48 58.9694 237.413 55.2502 241.676 59.8006C251.822 50.4259 265.199 44.6164 278.975 43.6024ZM102.622 174.414C100.739 172.516 98.06 171.208 95.4204 171.63C93.566 171.926 91.9441 173.023 90.4761 174.194C82.7924 180.325 77.5991 189.194 74.6958 198.586C73.8708 201.254 73.2131 204.071 73.6802 206.825C74.1474 209.579 75.9825 212.262 78.6841 212.971C81.3861 213.679 84.6881 211.686 84.6939 208.892C84.71 201.159 87.2555 193.451 91.8482 187.229C92.9463 185.742 94.1941 184.306 95.812 183.411C97.4751 182.491 99.405 182.207 101.287 181.938C103.169 181.67 105.051 181.402 106.933 181.134C105.734 178.745 104.504 176.312 102.622 174.414ZM280.483 166.518C277.455 165.836 273.725 167.066 272.748 170.012C270.274 177.469 266.693 184.559 262.159 190.975C276.22 201.543 294.068 206.958 311.63 205.986C309.514 203.192 308.964 199.457 309.386 195.977C309.809 192.498 311.112 189.194 312.403 185.935C304.197 181.38 295.959 176.803 288.483 171.128C286.011 169.251 283.511 167.2 280.483 166.518ZM333.73 186.686C331.415 186.199 329.025 186.258 326.661 186.32C323.46 186.404 320.259 186.488 317.058 186.572C316.574 186.585 316.068 186.603 315.644 186.838C315.113 187.132 314.813 187.708 314.552 188.256C313.316 190.858 312.323 193.629 312.167 196.506C312.012 199.382 312.771 202.392 314.685 204.545C314.973 204.868 315.296 205.179 315.7 205.337C316.19 205.528 316.738 205.473 317.261 205.411C325.196 204.473 333.575 202.484 339.026 196.642C339.964 195.638 340.835 194.433 340.873 193.059C340.902 191.996 340.417 190.974 339.764 190.135C338.311 188.268 336.044 187.174 333.73 186.686ZM236.999 188.017C236.275 187.274 235.047 187.98 234.284 188.683C231.857 190.918 229.432 193.153 227.005 195.388C226.805 195.572 226.591 195.783 226.568 196.055C226.534 196.458 226.924 196.755 227.271 196.964C232.455 200.085 238.137 202.379 244.035 203.733C245.242 204.01 246.676 204.19 247.571 203.334C249.575 201.415 251.434 199.346 253.127 197.148C252.764 195.938 250.986 195.461 250.066 196.327C245.144 194.622 240.63 191.751 236.999 188.017ZM213.34 168.811C210.747 171.965 208.033 175.02 205.205 177.966C210.371 184.381 216.696 189.861 223.782 194.06C226.758 191.166 229.805 188.345 232.919 185.6C229.548 183.004 226.176 180.408 222.805 177.811C220.302 175.883 217.794 173.95 215.515 171.761C214.626 170.906 213.748 169.975 213.34 168.811ZM252.128 162.187C252.001 164.673 250.799 166.965 249.538 169.111C246.237 174.725 242.336 179.986 237.922 184.774C241.101 187.867 244.824 190.398 248.87 192.216C251.309 193.311 254.358 194.084 256.496 192.477C257.292 191.879 257.845 191.02 258.381 190.18C259.686 188.134 260.991 186.088 262.296 184.043C263.93 181.483 265.565 178.92 267.005 176.246C268.409 173.641 269.623 170.939 270.835 168.24C271.236 167.348 271.271 165.841 270.293 165.864C264.066 166.009 257.81 164.742 252.128 162.187ZM335.178 187.809C335.979 188.187 336.8 188.578 337.408 189.221C338.015 189.865 338.37 190.828 338.054 191.655C337.088 190.697 336.122 189.739 335.156 188.78C334.964 188.59 334.756 188.341 334.832 188.081C334.875 187.93 335.022 187.816 335.178 187.809ZM137.106 147.412C136.442 147.249 135.664 147.11 135.138 147.547C134.926 147.723 134.788 147.971 134.656 148.214C132.674 151.836 130.691 155.457 128.709 159.079C128.151 160.1 127.582 161.152 127.427 162.305C127.272 163.465 127.547 164.634 127.821 165.771C128.496 168.581 129.172 171.391 129.847 174.2C130.057 175.074 130.397 176.09 131.259 176.344C134.12 173.369 134.937 169.04 136.726 165.321C139.655 159.231 145.161 154.852 150.486 150.691C146.026 149.598 141.566 148.505 137.106 147.412ZM309.302 62.0047C305.202 58.8333 299.972 56.8906 294.824 57.5008C296.8 62.437 298.585 67.5423 298.892 72.8504C299.199 78.1586 297.868 83.7559 294.274 87.6746C293.477 88.5433 292.576 89.3257 291.907 90.2957C290.506 92.3246 290.279 94.911 290.054 97.366C289.17 107.038 287.633 116.726 284.276 125.84C280.919 134.954 275.646 143.516 268.182 149.73C279.875 152.136 292.329 150.684 303.155 145.654C305.778 144.435 308.339 142.99 310.419 140.98C312.486 138.984 314.01 136.502 315.425 134.002C322.716 121.127 327.838 106.239 325.439 91.6385C324.42 85.4378 322.072 79.5044 319.009 74.0174C316.483 69.491 313.403 65.176 309.302 62.0047ZM241.993 84.3924C241.246 84.5406 240.84 85.3342 240.556 86.0408C234.622 100.835 235.319 118.149 242.42 132.419C243.396 134.378 244.489 136.287 245.828 138.018C249.517 142.789 254.951 146.008 260.703 147.823C261.511 148.078 262.353 148.309 263.195 148.211C264.148 148.099 264.998 147.577 265.791 147.036C272.555 142.412 277.545 135.495 280.766 127.961C283.987 120.427 285.531 112.273 286.348 104.12C286.76 100.007 287.012 95.7961 288.577 91.9705C280.953 94.5475 273.043 96.8334 265.003 96.4813C256.964 96.1291 248.674 92.7284 244.242 86.0115C243.699 85.1899 242.958 84.2011 241.993 84.3924ZM220.834 88.2381C221.107 87.9264 221.666 87.9394 221.923 88.2635C221.831 97.669 221.743 107.131 223.279 116.411C224.814 125.691 228.074 134.872 234.027 142.155C235.211 143.604 236.52 145.011 237.204 146.753C233.333 146.678 230.784 142.78 229.166 139.263C221.989 123.663 218.995 106.162 220.578 89.0643C220.605 88.7722 220.642 88.4591 220.834 88.2381ZM251.756 128.462C251.664 127.504 252.892 126.538 253.592 127.198C255.315 128.82 257.077 130.469 259.219 131.472C261.362 132.476 263.989 132.743 266.049 131.58C266.392 131.387 266.844 131.725 266.895 132.115C266.946 132.505 266.724 132.878 266.469 133.179C265.193 134.685 262.992 135.15 261.049 134.797C259.106 134.443 257.365 133.398 255.726 132.297C254.955 131.779 254.196 131.243 253.449 130.691C252.675 130.119 251.849 129.42 251.756 128.462ZM273.101 107.429C273.638 106.984 274.315 107.791 274.533 108.453C275.249 110.629 275.842 112.847 276.307 115.09C276.601 116.507 276.844 117.98 276.531 119.393C276.089 121.386 274.573 123.007 272.816 124.045C271.059 125.083 269.059 125.62 267.086 126.146C266.565 126.285 265.91 126.384 265.574 125.963C265.288 125.605 265.429 125.046 265.754 124.723C266.08 124.401 266.535 124.256 266.97 124.113C270.045 123.103 273.33 121.28 274.045 118.124C274.797 114.808 272.364 111.463 272.818 108.094C272.851 107.849 272.911 107.586 273.101 107.429ZM172.243 79.5789C163.343 89.1012 155.914 99.9951 150.298 111.757C150.094 112.184 149.89 112.681 150.084 113.113C150.305 113.608 150.924 113.759 151.459 113.844C161.595 115.451 171.958 115.624 182.141 114.354C184.265 114.089 184.616 111.163 184.292 109.047C182.668 98.4595 178.502 88.2705 172.243 79.5789ZM280.74 102.941C284.197 102.539 282.479 110.083 282.117 111.693C281.832 112.96 281.12 114.55 279.832 114.387C279.078 114.291 278.56 113.587 278.23 112.903C276.624 109.578 277.282 103.344 280.74 102.941ZM260.466 103.036C261.233 102.76 262.124 103.116 262.663 103.728C263.201 104.34 263.443 105.159 263.566 105.965C263.83 107.699 263.6 109.506 262.909 111.119C262.431 112.233 261.655 113.318 260.504 113.698C259.354 114.078 257.838 113.421 257.694 112.218C257.384 109.631 257.847 106.958 259.007 104.626C259.336 103.965 259.772 103.286 260.466 103.036ZM193.334 77.032C187.318 77.0132 181.023 77.0592 175.699 79.8621C181.989 89.7469 186.342 100.86 188.439 112.388C188.513 112.793 188.632 113.262 189.012 113.421C189.168 113.486 189.343 113.484 189.512 113.481C191.095 113.456 192.678 113.43 194.26 113.405C194.1 109.435 195.391 105.567 196.667 101.805C199.171 94.416 201.674 87.027 204.178 79.6385C201.282 77.1783 197.134 77.0439 193.334 77.032ZM281.877 97.5692C282.987 97.6318 284.075 98.043 284.949 98.7303C285.354 99.0493 285.738 99.4839 285.736 99.9998C285.733 100.516 285.121 101 284.694 100.712C283.671 100.021 282.379 99.7406 281.162 99.9432C280.868 99.9921 280.564 100.068 280.277 99.9881C279.586 99.7967 279.447 98.7659 279.908 98.2166C280.369 97.6674 281.161 97.5287 281.877 97.5692ZM252.642 96.7723C253.816 96.0409 255.301 96.0512 256.672 96.2283C258.31 96.4398 259.921 96.8559 261.456 97.4647C261.782 97.5942 262.134 97.7594 262.278 98.0799C262.544 98.6739 261.856 99.3244 261.205 99.324C260.554 99.3235 259.978 98.9347 259.395 98.6453C256.833 97.3739 253.435 98.111 251.629 100.33C250.82 99.2085 251.468 97.5037 252.642 96.7723ZM237.788 60.8641C236.165 60.249 234.126 60.3903 232.95 61.6668C230.062 64.801 227.597 68.3239 225.641 72.1102L224.417 77.8358C226.267 85.335 229.068 92.5991 232.737 99.3963C233.242 97.853 233.747 96.3097 234.252 94.7664C235.975 89.5038 237.721 84.1893 240.58 79.4471C242.471 76.3096 244.83 73.4627 247.485 70.9383C247.802 70.6371 248.153 70.2491 248.047 69.825C247.991 69.5997 247.815 69.4271 247.646 69.2674C245.756 67.4769 243.866 65.6868 241.976 63.8963C240.716 62.7026 239.411 61.4791 237.788 60.8641ZM320.926 71.5418C321.109 72.8367 321.954 73.9231 322.691 75.0037C323.35 75.9708 323.942 76.9825 324.489 78.0174C327.502 83.7234 329.102 90.1692 329.107 96.6219C329.749 96.1053 329.866 95.1884 329.933 94.367C330.185 91.304 330.436 88.2406 330.688 85.1776C330.77 84.1802 330.848 83.1487 330.521 82.2029C330.182 81.2222 329.444 80.4399 328.726 79.6902C326.126 76.9743 323.526 74.2578 320.926 71.5418ZM291.187 59.5897C288.044 56.7758 283.243 57.0334 279.129 57.9686C265.258 61.1219 253.218 69.9685 243.731 80.5692C245.868 84.6285 248.179 88.8787 252.082 91.2908C255.097 93.155 258.731 93.6982 262.263 93.9988C272.109 94.8368 283.051 93.6732 289.965 86.6141C295.946 80.5078 297.471 70.4866 293.578 62.8777C292.957 61.6646 292.202 60.4986 291.187 59.5897ZM251.781 85.2928C253.728 86.873 255.946 88.1178 258.309 88.9559C265.936 91.6603 274.507 89.9624 281.867 86.5985C282.991 86.0847 284.426 86.3555 285.286 87.244C280.56 90.6115 274.77 92.463 268.967 92.4617C267.688 92.4614 266.41 92.3739 265.135 92.2625C262.527 92.0346 259.899 91.7005 257.445 90.7869C254.991 89.8734 252.7 88.3276 251.311 86.1082C251.467 85.8365 251.624 85.5645 251.781 85.2928ZM311.751 76.658C314.877 76.6615 317.261 79.3365 319.205 81.786C319.793 82.528 320.382 83.2705 320.971 84.0125C321.29 84.4139 321.622 84.8523 321.645 85.3641C321.683 86.2337 320.845 86.8594 320.086 87.286C317.713 88.6199 315.177 89.6638 312.553 90.3875C310.637 90.9161 308.534 91.261 306.706 90.4803C305.292 89.8767 304.227 88.6729 303.338 87.4188C302.055 85.6063 301.064 83.0383 302.422 81.2811C302.893 80.672 303.58 80.2735 304.248 79.8904C305.063 79.423 305.878 78.9555 306.693 78.4881C308.267 77.5854 309.936 76.656 311.751 76.658ZM312.164 79.2322C311.565 79.2728 311.016 79.5668 310.489 79.8543C309.327 80.488 308.165 81.122 307.003 81.7557C306.022 82.2907 304.907 83.0407 304.917 84.158C304.921 84.7294 305.236 85.2465 305.54 85.7303C306.255 86.8689 307.099 88.1027 308.407 88.4139C309.207 88.6041 310.044 88.4071 310.834 88.1815C312.807 87.6186 314.728 86.8755 316.566 85.9637C317.08 85.7087 317.617 85.4101 317.88 84.9002C318.143 84.3905 317.965 83.6208 317.409 83.4803C315.691 83.0473 314.225 81.7159 313.63 80.0467C313.429 79.4809 312.763 79.1918 312.164 79.2322ZM234.161 68.8133C234.614 68.4779 235.221 68.2491 235.739 68.4725C235.918 68.5498 236.072 68.676 236.205 68.8192C236.988 69.6665 236.957 71.0317 236.442 72.0643C235.927 73.0966 235.026 73.8738 234.148 74.6219C232.348 73.2766 232.354 70.1505 234.161 68.8133ZM284.42 48.0652C271.399 46.6739 258.772 52.4919 247.228 58.6746C246.332 59.1546 245.379 59.6974 244.95 60.619C244.521 61.5403 244.971 62.9131 245.983 63.0067C247.707 63.1653 247.828 65.7013 249.036 66.9422C250.844 68.8 253.891 67.0507 255.921 65.4393C269.06 55.0139 287.166 51.1623 303.41 55.3377C297.739 51.5014 291.228 48.7927 284.42 48.0652Z" fill="#00160A"/>
<path fill-rule="evenodd" clip-rule="evenodd" d="M525.144 76.2214C528.694 77.4518 532.038 74.2502 535.097 72.069C539.831 68.694 546.007 67.4178 551.69 68.64C552.633 68.8428 553.621 69.1471 554.242 69.885C554.81 70.5598 554.971 71.4802 555.063 72.3573C555.622 77.7265 554.28 83.2747 551.327 87.794C549.891 89.9926 548.091 91.9501 546.807 94.2408C545.522 96.5314 544.788 99.3299 545.704 101.792C551.144 116.427 548.88 133.689 539.849 146.425C530.817 159.162 515.277 167.01 499.666 166.718C491.682 166.569 483.861 164.438 476.339 161.758C473.057 160.589 469.449 159.306 466.191 160.541C460.246 162.794 453.988 164.217 447.653 164.755C446.082 164.888 444.439 164.957 442.989 164.336C440.818 163.407 439.507 161.053 439.258 158.705C439.009 156.357 439.658 154.006 440.478 151.792C442.951 145.112 450.631 134.677 455.279 132.273C454.903 124.161 454.944 115.954 456.698 108.025C458.452 100.096 462.031 92.4027 467.902 86.7926C470.327 84.4753 473.102 82.5467 476.009 80.873C490.711 72.4082 509.115 70.6659 525.144 76.2214ZM502.755 75.5628C491.512 75.8259 480.568 80.3421 471.779 87.3583C469.199 89.4183 466.774 91.707 464.837 94.3811C463.31 96.4891 462.103 98.8151 461.094 101.215C455.108 115.452 456.475 132.558 464.645 145.664C464.823 145.95 465.027 146.252 465.345 146.364C465.738 146.5 466.16 146.301 466.526 146.106C492.188 132.43 515.029 113.49 533.219 90.8038C533.652 90.2636 534.108 89.636 534.014 88.9499C533.944 88.4351 533.577 88.0171 533.218 87.6412C525.457 79.5033 513.997 75.2996 502.755 75.5628ZM518.473 160.554C530.661 154.832 539.919 143.524 543.878 130.655C544.774 127.741 545.419 124.728 545.482 121.68C545.535 119.116 545.177 116.564 544.82 114.025C544.303 110.343 543.786 106.662 543.269 102.981C543.132 102.005 542.191 100.717 541.504 101.424C522.434 121.049 501.609 138.971 479.361 154.904C478.62 155.434 477.805 156.089 477.765 156.999C477.719 158.052 478.724 158.816 479.637 159.343C491.301 166.069 506.284 166.277 518.473 160.554ZM443.29 159.056C444.177 160.478 446.099 160.769 447.774 160.816C456.564 161.059 465.26 158.483 473.124 154.55C480.987 150.616 488.105 145.355 495.022 139.926C504.247 132.685 513.197 125.097 521.919 117.258C532.722 107.549 543.336 97.2505 550.428 84.5756C551.8 82.1239 553.066 79.4355 552.851 76.6342C552.637 73.8329 550.402 71.0048 547.595 71.1143C541.638 71.3467 535.78 73.6373 531.245 77.5077C530.344 78.2774 530.981 79.916 532.091 80.3326C533.201 80.7493 534.438 80.3353 535.523 79.8565C536.608 79.3777 537.737 78.8178 538.915 78.9488C540.716 79.149 541.994 80.992 542.102 82.8001C542.209 84.6083 541.409 86.3461 540.467 87.8931C538.724 90.7562 536.446 93.2517 534.145 95.6895C513.692 117.359 490.098 136.058 464.33 151.022C462.009 152.369 459.662 153.691 457.164 154.673C455.854 155.188 454.352 155.601 453.074 155.013C450.978 154.047 450.81 151.104 451.438 148.883C452.383 145.549 454.423 142.535 457.168 140.419C456.648 138.955 456.128 137.49 455.608 136.025C448.833 140.353 444.078 147.714 442.919 155.67C442.752 156.818 442.677 158.071 443.29 159.056ZM462.555 149.004C462.603 148.853 462.515 148.696 462.431 148.562C461.555 147.171 460.68 145.78 459.805 144.39C459.409 143.761 458.643 143.048 458.049 143.495C455.909 145.106 454.378 147.506 453.818 150.126C453.707 150.642 453.643 151.219 453.924 151.667C454.448 152.499 455.699 152.314 456.624 151.982C458.598 151.275 460.499 150.366 462.288 149.273C462.398 149.206 462.516 149.128 462.555 149.004ZM538.696 82.8043C538.608 82.4431 538.178 82.2861 537.807 82.2699C536.679 82.2208 535.501 83.1479 535.572 84.2744C535.643 85.401 537.318 86.1103 538.018 85.2246C538.229 84.9571 538.318 84.6162 538.402 84.286C538.486 83.9588 538.569 83.6316 538.652 83.3045C538.694 83.1406 538.736 82.9687 538.696 82.8043Z" fill="#00160A"/>
</svg>
