<svg width="104" height="52" viewBox="0 0 104 52" fill="none" xmlns="http://www.w3.org/2000/svg">
<g clip-path="url(#clip0_164_49)">
<path d="M99.953 24.2968C99.9373 24.1874 99.8827 23.8046 99.8358 23.4374C99.742 22.6874 99.3748 20.5234 99.3358 20.4843C99.328 20.4687 98.5702 20.5156 97.6561 20.5859C96.7498 20.6562 95.9842 20.6953 95.9608 20.6718C95.8514 20.5703 96.0311 20.4062 96.3045 20.3671C96.6952 20.3046 96.8436 20.1328 96.9139 19.6874C96.9608 19.3749 96.9373 19.2968 96.7342 19.0156C96.1795 18.2499 95.2264 18.2499 94.6717 19.0156C94.4686 19.2968 94.4452 19.3749 94.492 19.6874C94.5545 20.1171 94.703 20.2968 95.0467 20.3593C95.2577 20.3984 95.3123 20.4453 95.3123 20.5937C95.3123 20.7343 95.2733 20.7812 95.1327 20.7812C94.8983 20.7812 92.9452 20.9218 92.5311 20.9765C92.2577 21.0078 92.1952 20.9843 92.1639 20.8671C92.117 20.6718 92.2498 20.5468 92.5077 20.5468C92.8592 20.5468 93.0623 20.3124 93.1014 19.8749C93.1483 19.3828 92.9217 19.0156 92.4061 18.7656C91.8827 18.4999 91.4842 18.5781 91.0389 19.0234C90.7342 19.3281 90.703 19.3906 90.703 19.7499C90.703 20.2187 90.867 20.4609 91.2498 20.539C91.4686 20.5781 91.5311 20.6328 91.5467 20.8046C91.578 21.0624 91.578 21.0624 89.9998 21.1718C88.367 21.2812 88.3592 21.2812 88.3592 21.1015C88.3592 20.9843 88.4373 20.9453 88.7108 20.9062C89.1405 20.8359 89.2967 20.6406 89.2967 20.164C89.2967 19.5156 88.742 18.9843 88.0702 18.9843C87.4998 18.9843 86.8748 19.5703 86.8748 20.1015C86.8748 20.5937 86.9842 20.7656 87.3827 20.8671C87.6795 20.9453 87.7342 20.9843 87.7342 21.1406C87.7342 21.2421 87.6873 21.3281 87.6405 21.3281C87.5858 21.3281 87.1327 21.3671 86.6327 21.4062L85.7264 21.4921L84.4061 22.1874C83.5623 22.6249 83.078 22.8437 83.0623 22.7812C83.0467 22.7109 82.5311 22.6874 80.7577 22.6874C78.4608 22.6953 76.4608 22.664 65.6639 22.4609C62.4452 22.3984 58.3124 22.3281 56.4842 22.2968C54.6561 22.2734 53.0389 22.2343 52.8905 22.2265C52.7421 22.2109 52.1561 22.2031 51.5858 22.1953L50.5546 22.1874L50.5155 21.8593C50.4921 21.6718 50.4374 21.1718 50.3905 20.7421C50.0311 17.5703 49.203 14.8906 48.0077 13.039C47.8046 12.7187 47.3358 12.1562 46.9608 11.789C45.6249 10.4531 44.2577 9.92183 42.203 9.92183C39.9218 9.92964 38.4452 10.3906 36.4452 11.7187C35.3671 12.4374 34.5858 12.8281 33.7889 13.0624C33.2577 13.2109 32.9764 13.2421 31.9139 13.2421C30.703 13.2421 30.6405 13.2343 29.9218 12.9843C28.7889 12.5859 27.6093 11.914 24.914 10.1093C21.9608 8.13277 20.8046 7.42183 19.3671 6.71871C16.9765 5.55464 15.039 5.14058 12.7577 5.31246C11.539 5.40621 10.8046 5.53121 9.84365 5.81246C5.05459 7.21089 1.89834 11.4296 0.624908 18.1171C-0.203216 22.4999 -0.203216 27.4999 0.624908 31.8827C1.89834 38.5702 5.05459 42.789 9.84365 44.1874C10.8046 44.4687 11.539 44.5937 12.7577 44.6874C15.039 44.8593 16.9765 44.4452 19.3671 43.2812C20.8046 42.578 21.9608 41.8671 24.914 39.8905C27.6249 38.0781 28.7968 37.4062 29.9218 37.0234C30.5702 36.8046 30.7889 36.7656 31.6796 36.7343C33.5233 36.6796 34.4764 36.9843 36.4764 38.2577C38.1874 39.3515 39.1327 39.7265 40.7421 39.9609C41.7343 40.1093 43.1718 40.1093 43.8436 39.9609C45.0468 39.7109 45.9452 39.2031 46.9217 38.2421C47.7186 37.4452 48.1249 36.8671 48.6717 35.7421C49.5155 33.9921 50.0546 31.9452 50.3827 29.2577L50.5155 28.164L52.1483 28.1171C53.0546 28.0859 55.2108 28.0468 56.953 28.0156C60.1717 27.9609 64.0936 27.8906 72.578 27.7265C75.1795 27.6718 78.5936 27.6249 80.1717 27.6249C82.242 27.6171 83.0467 27.5937 83.0623 27.5312C83.078 27.4765 83.6561 27.7421 84.3983 28.1327L85.7108 28.8281L86.5858 28.9062C87.0702 28.9452 87.5233 28.9843 87.6014 28.9843C87.6873 28.9843 87.7342 29.0468 87.7342 29.1718C87.7342 29.3281 87.6795 29.3671 87.3827 29.4452C87.117 29.5156 87.0077 29.5859 86.953 29.7343C86.8123 30.0937 86.8592 30.4765 87.078 30.7577C87.5077 31.3281 88.0858 31.4687 88.6795 31.1718C89.0858 30.9609 89.2967 30.6093 89.2967 30.1406C89.2967 29.6796 89.1248 29.4765 88.6717 29.4062C88.4373 29.3671 88.3592 29.3202 88.3592 29.2109C88.3592 29.0312 88.3592 29.0312 89.9139 29.1406C91.5623 29.2577 91.578 29.2656 91.5467 29.5156C91.5311 29.6796 91.4686 29.7343 91.2498 29.7734C90.8748 29.8515 90.703 30.0937 90.703 30.5546C90.703 30.8827 90.742 30.9843 90.9842 31.2421C91.4373 31.7499 91.9842 31.8359 92.5623 31.4843C93.2889 31.039 93.328 29.9843 92.617 29.8046C92.203 29.7031 92.117 29.6406 92.1639 29.4609C92.1952 29.3437 92.2577 29.3124 92.4452 29.3437C92.7733 29.3827 94.8358 29.5312 95.1014 29.5312C95.2733 29.5312 95.3123 29.5702 95.3123 29.7265C95.3123 29.8827 95.2655 29.9218 95.0467 29.9687C94.6952 30.0312 94.5545 30.1952 94.492 30.6249C94.4452 30.9374 94.4686 31.0156 94.6717 31.2968C95.2264 32.0624 96.1795 32.0624 96.7342 31.2968C96.9373 31.0156 96.9608 30.9374 96.9139 30.6249C96.8436 30.1796 96.7108 30.0234 96.3123 29.9609C96.0389 29.914 95.8514 29.7499 95.9608 29.6406C95.9764 29.6171 96.6952 29.6562 97.5467 29.7187C98.4061 29.789 99.1561 29.8437 99.2264 29.8437C99.367 29.8437 99.4686 29.3984 99.7733 27.4062C99.9217 26.4062 100.023 24.7031 99.953 24.2968Z" fill="#FF971D"/>
</g>
<g clip-path="url(#clip1_164_49)">
<path d="M97.8018 25.0257C97.7867 24.913 97.7338 24.5187 97.6884 24.1405C97.5976 23.368 97.242 21.139 97.2041 21.0988C97.1966 21.0827 96.4626 21.131 95.5774 21.2034C94.6997 21.2758 93.9582 21.3161 93.9355 21.2919C93.8296 21.1873 94.0036 21.0183 94.2684 20.9781C94.6468 20.9137 94.7905 20.7367 94.8586 20.278C94.904 19.9561 94.8813 19.8757 94.6846 19.586C94.1474 18.7974 93.2243 18.7974 92.6871 19.586C92.4904 19.8757 92.4677 19.9561 92.5131 20.278C92.5736 20.7206 92.7174 20.9057 93.0503 20.97C93.2546 21.0103 93.3075 21.0586 93.3075 21.2115C93.3075 21.3563 93.2697 21.4046 93.1335 21.4046C92.9065 21.4046 91.015 21.5494 90.614 21.6058C90.3492 21.6379 90.2886 21.6138 90.2584 21.4931C90.213 21.2919 90.3416 21.1632 90.5913 21.1632C90.9318 21.1632 91.1285 20.9218 91.1663 20.4711C91.2117 19.9642 90.9923 19.586 90.4929 19.3285C89.986 19.0549 89.6001 19.1354 89.1688 19.594C88.8738 19.9079 88.8435 19.9722 88.8435 20.3424C88.8435 20.8252 89.0024 21.0747 89.3731 21.1551C89.585 21.1954 89.6455 21.2517 89.6606 21.4287C89.6909 21.6943 89.6909 21.6943 88.1625 21.8069C86.5812 21.9196 86.5736 21.9196 86.5736 21.7345C86.5736 21.6138 86.6493 21.5736 86.9141 21.5333C87.3303 21.4609 87.4816 21.2597 87.4816 20.7689C87.4816 20.101 86.9444 19.5538 86.2937 19.5538C85.7414 19.5538 85.1361 20.1573 85.1361 20.7045C85.1361 21.2115 85.242 21.3885 85.6279 21.4931C85.9154 21.5736 85.9683 21.6138 85.9683 21.7747C85.9683 21.8793 85.9229 21.9679 85.8775 21.9679C85.8246 21.9679 85.3857 22.0081 84.9015 22.0483L84.0238 22.1368L82.7451 22.853C81.928 23.3036 81.4589 23.529 81.4438 23.4646C81.4286 23.3922 80.9293 23.368 79.2117 23.368C76.9873 23.3761 75.0503 23.3439 64.5939 23.1347C61.4766 23.0703 57.4741 22.9979 55.7036 22.9657C53.9331 22.9415 52.3669 22.9013 52.2232 22.8932C52.0794 22.8772 51.512 22.8691 50.9596 22.8611L49.9609 22.853L49.9231 22.515C49.9004 22.3219 49.8474 21.8069 49.802 21.3643C49.4539 18.0973 48.6519 15.3372 47.4943 13.4301C47.2976 13.1002 46.8436 12.5208 46.4804 12.1426C45.1866 10.7666 43.8625 10.2194 41.8726 10.2194C39.6633 10.2275 38.2333 10.7022 36.2964 12.0702C35.2522 12.8105 34.4956 13.2129 33.7239 13.4543C33.2094 13.6072 32.937 13.6393 31.908 13.6393C30.7352 13.6393 30.6747 13.6313 29.9786 13.3738C28.8815 12.9634 27.739 12.2714 25.1287 10.4126C22.2687 8.3767 21.1489 7.64443 19.7567 6.92022C17.4414 5.72123 15.565 5.29475 13.3557 5.47178C12.1754 5.56834 11.4642 5.69709 10.5335 5.98678C5.89544 7.42717 2.83871 11.7725 1.60542 18.6606C0.803402 23.1749 0.803402 28.3249 1.60542 32.8392C2.83871 39.7273 5.89544 44.0726 10.5335 45.513C11.4642 45.8027 12.1754 45.9314 13.3557 46.028C15.565 46.205 17.4414 45.7785 19.7567 44.5796C21.1489 43.8553 22.2687 43.1231 25.1287 41.0872C27.7541 39.2203 28.8891 38.5283 29.9786 38.134C30.6066 37.9087 30.8184 37.8685 31.681 37.8363C33.4666 37.78 34.3897 38.0938 36.3266 39.4054C37.9836 40.532 38.8991 40.9182 40.4578 41.1596C41.4187 41.3125 42.8108 41.3125 43.4615 41.1596C44.6267 40.9021 45.4968 40.3791 46.4426 39.3893C47.2144 38.5686 47.6078 37.9731 48.1374 36.8143C48.9546 35.0118 49.4766 32.9036 49.7944 30.1354L49.9231 29.0089L51.5044 28.9606C52.3821 28.9284 54.4703 28.8882 56.1576 28.856C59.2749 28.7997 63.0731 28.7272 71.2899 28.5582C73.8095 28.5019 77.1159 28.4536 78.6443 28.4536C80.6493 28.4456 81.4286 28.4214 81.4438 28.3571C81.4589 28.3007 82.0188 28.5743 82.7376 28.9767L84.0087 29.6929L84.8561 29.7733C85.3252 29.8136 85.7641 29.8538 85.8397 29.8538C85.9229 29.8538 85.9683 29.9182 85.9683 30.0469C85.9683 30.2079 85.9154 30.2481 85.6279 30.3286C85.3706 30.401 85.2647 30.4734 85.2117 30.6263C85.0755 30.9964 85.1209 31.3907 85.3328 31.6804C85.7489 32.2678 86.3088 32.4127 86.8839 32.1069C87.2773 31.8896 87.4816 31.5275 87.4816 31.0447C87.4816 30.57 87.3151 30.3607 86.8763 30.2883C86.6493 30.2481 86.5736 30.1998 86.5736 30.0871C86.5736 29.9021 86.5736 29.9021 88.0793 30.0147C89.6758 30.1354 89.6909 30.1435 89.6606 30.401C89.6455 30.57 89.585 30.6263 89.3731 30.6665C89.0099 30.747 88.8435 30.9964 88.8435 31.4712C88.8435 31.8092 88.8813 31.9138 89.1159 32.1793C89.5547 32.7024 90.0843 32.7909 90.6442 32.4288C91.3479 31.9701 91.3857 30.8838 90.6972 30.6987C90.2962 30.5941 90.213 30.5297 90.2584 30.3446C90.2886 30.2239 90.3492 30.1918 90.5307 30.2239C90.8485 30.2642 92.846 30.4171 93.1032 30.4171C93.2697 30.4171 93.3075 30.4573 93.3075 30.6182C93.3075 30.7792 93.2621 30.8194 93.0503 30.8677C92.7098 30.9321 92.5736 31.1011 92.5131 31.5436C92.4677 31.8655 92.4904 31.946 92.6871 32.2357C93.2243 33.0243 94.1474 33.0243 94.6846 32.2357C94.8813 31.946 94.904 31.8655 94.8586 31.5436C94.7905 31.085 94.6619 30.924 94.276 30.8596C94.0112 30.8114 93.8296 30.6424 93.9355 30.5297C93.9507 30.5056 94.6468 30.5458 95.4715 30.6102C96.3037 30.6826 97.0301 30.7389 97.0982 30.7389C97.2344 30.7389 97.3327 30.2803 97.6278 28.2283C97.7716 27.1983 97.8699 25.4441 97.8018 25.0257Z" fill="#303841"/>
</g>
<defs>
<clipPath id="clip0_164_49">
<rect width="50" height="100" fill="white" transform="matrix(0 1 -1 0 100 0)"/>
</clipPath>
<clipPath id="clip1_164_49">
<rect width="51.5" height="103" fill="white" transform="matrix(0 1 -1 0 104 0)"/>
</clipPath>
</defs>
</svg>
