<svg width="104" height="27" viewBox="0 0 104 27" fill="none" xmlns="http://www.w3.org/2000/svg">
<path d="M92.2641 2.5C86.0439 2.5 81 7.54299 81 13.7641C81 18.7409 84.2275 22.9631 88.7031 24.4526C89.266 24.5568 89.4727 24.2082 89.4727 23.9107C89.4727 23.6421 89.4622 22.7548 89.4574 21.8136C86.3237 22.495 85.6625 20.4845 85.6625 20.4845C85.1501 19.1826 84.4118 18.8364 84.4118 18.8364C83.3898 18.1373 84.4888 18.1516 84.4888 18.1516C85.6199 18.2311 86.2155 19.3124 86.2155 19.3124C87.2202 21.0344 88.8506 20.5366 89.4934 20.2488C89.5945 19.5207 89.8864 19.0238 90.2085 18.7426C87.7066 18.4577 85.0766 17.4919 85.0766 13.1758C85.0766 11.946 85.5166 10.9412 86.2372 10.1523C86.1202 9.86863 85.7347 8.72297 86.3463 7.17143C86.3463 7.17143 87.2922 6.86869 89.4447 8.32604C90.3432 8.07646 91.3068 7.9513 92.2641 7.94701C93.2214 7.9513 94.1857 8.07646 95.0859 8.32604C97.2358 6.86869 98.1804 7.17143 98.1804 7.17143C98.7935 8.72297 98.4078 9.86863 98.2908 10.1523C99.0131 10.9412 99.4501 11.946 99.4501 13.1758C99.4501 17.5021 96.815 18.4547 94.3068 18.7336C94.7108 19.0832 95.0708 19.7686 95.0708 20.8195C95.0708 22.3267 95.0577 23.5397 95.0577 23.9107C95.0577 24.2105 95.2605 24.5617 95.8315 24.4511C100.305 22.96 103.528 18.7392 103.528 13.7641C103.528 7.54299 98.4848 2.5 92.2641 2.5ZM85.2188 18.5459C85.194 18.6019 85.1059 18.6187 85.0257 18.5803C84.944 18.5435 84.8981 18.4672 84.9246 18.4111C84.9489 18.3534 85.0371 18.3374 85.1186 18.376C85.2005 18.4128 85.2471 18.4898 85.2188 18.5459ZM85.7728 19.0403C85.7191 19.0901 85.6141 19.067 85.5428 18.9883C85.4692 18.9098 85.4554 18.8047 85.5098 18.7542C85.5652 18.7044 85.6671 18.7277 85.7409 18.8062C85.8146 18.8857 85.829 18.99 85.7728 19.0403ZM86.1529 19.6729C86.0839 19.7208 85.9711 19.6759 85.9013 19.5757C85.8323 19.4755 85.8323 19.3554 85.9028 19.3073C85.9728 19.2592 86.0839 19.3024 86.1546 19.4019C86.2235 19.5037 86.2235 19.6238 86.1529 19.6729ZM86.7958 20.4055C86.7341 20.4736 86.6026 20.4553 86.5063 20.3624C86.4078 20.2715 86.3804 20.1427 86.4423 20.0746C86.5048 20.0063 86.6371 20.0255 86.7341 20.1177C86.8318 20.2083 86.8616 20.3381 86.7958 20.4055ZM87.6266 20.6528C87.5994 20.741 87.4727 20.7811 87.3451 20.7436C87.2177 20.705 87.1344 20.6017 87.1601 20.5125C87.1866 20.4237 87.3138 20.3819 87.4423 20.422C87.5695 20.4605 87.6531 20.5631 87.6266 20.6528ZM88.5721 20.7577C88.5753 20.8506 88.4671 20.9276 88.3332 20.9293C88.1985 20.9323 88.0896 20.8571 88.0881 20.7657C88.0881 20.6719 88.1939 20.5956 88.3285 20.5934C88.4625 20.5907 88.5721 20.6654 88.5721 20.7577ZM89.501 20.7221C89.517 20.8127 89.424 20.9058 89.291 20.9306C89.1602 20.9545 89.0391 20.8985 89.0225 20.8086C89.0063 20.7157 89.1011 20.6227 89.2316 20.5986C89.3648 20.5755 89.484 20.6299 89.501 20.7221Z" fill="#161614"/>
<g clip-path="url(#clip0_104_341)">
<path d="M29.9774 20.0196H29.9451C29.9596 20.0196 29.9693 20.0358 29.9839 20.0374H29.9936L29.9774 20.0213V20.0196ZM29.9839 20.0374C29.8334 20.0391 29.4549 20.1183 29.0553 20.1183C27.7934 20.1183 27.3566 19.5359 27.3566 18.7756V13.7103H29.9289C30.0745 13.7103 30.1877 13.5809 30.1877 13.4029V10.6527C30.1877 10.5071 30.0583 10.3777 29.9289 10.3777H27.3566V6.96417C27.3566 6.83475 27.2757 6.75386 27.1301 6.75386H23.6357C23.4901 6.75386 23.4092 6.83475 23.4092 6.96417V10.4748C23.4092 10.4748 21.6459 10.9116 21.5326 10.9277C21.4032 10.9601 21.3223 11.0733 21.3223 11.2028V13.4029C21.3223 13.5809 21.4517 13.7103 21.5973 13.7103H23.3931V19.0166C23.3931 22.964 26.1433 23.3684 28.0199 23.3684C28.8773 23.3684 29.9127 23.0934 30.0745 23.0125C30.1716 22.9802 30.2201 22.8669 30.2201 22.7537V20.327C30.2223 20.2582 30.1997 20.1909 30.1563 20.1374C30.1129 20.0839 30.0517 20.0478 29.9839 20.0358V20.0374ZM68.3188 16.4767C68.3188 13.5485 67.1378 13.1603 65.8921 13.2897C64.9214 13.3544 64.1449 13.8397 64.1449 13.8397V19.5343C64.1449 19.5343 64.9376 20.0844 66.1186 20.1167C67.7849 20.1652 68.3188 19.5667 68.3188 16.4767ZM72.25 16.2179C72.25 21.7668 70.4542 23.3523 67.3157 23.3523C64.6626 23.3523 63.2389 22.0095 63.2389 22.0095C63.2389 22.0095 63.1742 22.7537 63.0933 22.8508C63.0448 22.9478 62.9639 22.9802 62.8668 22.9802H60.4725C60.3108 22.9802 60.1652 22.8508 60.1652 22.7052L60.1975 4.73164C60.1975 4.58604 60.3269 4.45662 60.4725 4.45662H63.9184C64.064 4.45662 64.1934 4.58604 64.1934 4.73164V10.8307C64.1934 10.8307 65.52 9.97324 67.4613 9.97324L67.4452 9.94088C69.3865 9.94088 72.25 10.6689 72.25 16.2179ZM58.1429 10.3777H54.7456C54.5676 10.3777 54.4706 10.5071 54.4706 10.6851V19.4858C54.4706 19.4858 53.5808 20.1167 52.3675 20.1167C51.1541 20.1167 50.7982 19.5667 50.7982 18.3533V10.6689C50.7982 10.5233 50.6688 10.3939 50.5232 10.3939H47.0612C46.9156 10.3939 46.7861 10.5233 46.7861 10.6689V18.9357C46.7861 22.4948 48.776 23.3846 51.51 23.3846C53.7588 23.3846 55.5868 22.1389 55.5868 22.1389C55.5868 22.1389 55.6677 22.7699 55.7163 22.8669C55.7486 22.9478 55.8619 23.0125 55.9751 23.0125H58.1429C58.3209 23.0125 58.418 22.8831 58.418 22.7375L58.4503 10.6527C58.4503 10.5071 58.3209 10.3777 58.1429 10.3777ZM19.8016 10.3615H16.3557C16.2101 10.3615 16.0807 10.5071 16.0807 10.6851V22.5596C16.0807 22.8831 16.291 22.9964 16.566 22.9964H19.6722C19.9957 22.9964 20.0766 22.8508 20.0766 22.5596V10.6365C20.0766 10.4909 19.9472 10.3615 19.8016 10.3615ZM18.1029 4.89342C16.8572 4.89342 15.8704 5.88026 15.8704 7.12595C15.8704 8.37164 16.8572 9.35848 18.1029 9.35848C19.3163 9.35848 20.3031 8.37164 20.3031 7.12595C20.3031 5.88026 19.3163 4.89342 18.1029 4.89342ZM44.7801 4.48897H41.3666C41.221 4.48897 41.0916 4.61839 41.0916 4.76399V11.3807H35.7367V4.76399C35.7367 4.61839 35.6073 4.48897 35.4617 4.48897H32.0158C31.8702 4.48897 31.7408 4.61839 31.7408 4.76399V22.7375C31.7408 22.8831 31.8864 23.0125 32.0158 23.0125H35.4617C35.6073 23.0125 35.7367 22.8831 35.7367 22.7375V15.0531H41.0916L41.0592 22.7375C41.0592 22.8831 41.1886 23.0125 41.3342 23.0125H44.7801C44.9257 23.0125 45.0551 22.8831 45.0551 22.7375V4.76399C45.0551 4.61839 44.9257 4.48897 44.7801 4.48897ZM14.2526 12.4484V21.7345C14.2526 21.7992 14.2364 21.9124 14.1556 21.9448C14.1556 21.9448 12.1333 23.3846 8.80071 23.3846C4.77244 23.3846 0 22.1228 0 13.8074C0 5.49199 4.17387 3.77715 8.25067 3.79333C11.7774 3.79333 13.2011 4.58604 13.4276 4.73164C13.4923 4.81253 13.5246 4.87724 13.5246 4.95813L12.8452 7.83777C12.8452 7.98337 12.6996 8.16133 12.5216 8.11279C11.9392 7.93484 11.0656 7.57893 9.01102 7.57893C6.63289 7.57893 4.0768 8.25839 4.0768 13.6132C4.0768 18.9681 6.50347 19.599 8.25067 19.599C9.73902 19.599 10.2729 19.4211 10.2729 19.4211V15.7002H7.89476C7.7168 15.7002 7.58738 15.5708 7.58738 15.4252V12.4484C7.58738 12.3028 7.7168 12.1734 7.89476 12.1734H13.9452C14.1232 12.1734 14.2526 12.3028 14.2526 12.4484Z" fill="#161614"/>
</g>
<defs>
<clipPath id="clip0_104_341">
<rect width="72.8" height="26" fill="white" transform="translate(0 0.5)"/>
</clipPath>
</defs>
</svg>
