<svg width="366" height="344" viewBox="0 0 366 344" fill="none" xmlns="http://www.w3.org/2000/svg">
<path d="M168.721 4.72109C169.186 11.7561 169.083 18.8424 168.41 25.826C168.307 26.6989 168.255 27.5719 168.1 28.3935C168.048 28.8043 167.996 29.2151 167.945 29.6259C167.893 30.2421 168.1 28.6503 167.945 29.5746C167.893 29.8313 167.893 30.1394 167.841 30.3962C167.582 32.1421 167.272 33.888 166.962 35.6339C166.289 39.1257 165.41 42.6175 164.375 46.0066C163.858 47.5985 163.34 49.1903 162.771 50.7822C162.461 51.5524 162.202 52.3227 161.84 53.0929C161.788 53.247 161.581 53.5038 161.581 53.7092C161.581 53.1957 161.892 53.0416 161.685 53.4011C161.478 53.8119 161.322 54.2226 161.116 54.6334C159.874 57.355 158.374 59.9739 156.718 62.4387C156.356 63.0035 155.942 63.5684 155.528 64.1332C155.321 64.4413 155.063 64.7494 154.856 65.0575C154.752 65.1602 154.649 65.3143 154.597 65.417C155.114 64.4927 154.804 65.1602 154.649 65.3656C153.718 66.5467 152.683 67.7278 151.648 68.8575C150.614 69.9358 149.579 70.9628 148.441 71.9898C147.923 72.452 147.354 72.9141 146.785 73.3762C146.527 73.5816 146.268 73.7871 146.009 73.9925C145.595 74.3006 146.785 73.3762 146.164 73.8897C145.957 74.0438 145.802 74.1465 145.595 74.3006C144.25 75.2762 142.853 76.2005 141.405 77.0221C139.956 77.8438 138.456 78.4599 136.956 79.2302C137.008 79.1788 137.835 78.8708 137.266 79.0762C137.059 79.1789 136.852 79.2302 136.645 79.3329C136.231 79.487 135.818 79.641 135.352 79.795C134.576 80.0518 133.8 80.3085 132.972 80.5139C131.368 80.9761 129.713 81.2842 128.057 81.4896C127.178 81.5923 126.143 82.5166 125.729 83.2355C125.316 84.0058 125.16 84.8273 125.264 85.7003C125.523 87.5489 127.126 89.038 129.092 89.038C132.869 88.9867 136.645 88.9867 140.422 89.2434C141.301 89.2948 142.129 89.3975 143.009 89.5002C143.06 89.5002 143.992 89.6542 143.371 89.5515C142.698 89.4488 143.629 89.6029 143.733 89.6029C144.198 89.6543 144.664 89.757 145.13 89.8597C146.992 90.2191 148.803 90.6813 150.562 91.2461C150.872 91.3488 151.234 91.5028 151.545 91.6055C151.7 91.6569 151.907 91.7596 152.062 91.811C152.372 91.9137 152.683 92.2218 151.855 91.7083C152.476 92.1191 153.252 92.3245 153.925 92.6839C155.218 93.3515 156.46 94.0704 157.598 94.892C157.908 95.0974 158.218 95.3028 158.529 95.5595C158.632 95.6622 158.788 95.7649 158.891 95.8163C159.408 96.1757 158.684 95.6622 158.632 95.6109C159.15 96.1244 159.822 96.5866 160.391 97.0487C161.529 98.0757 162.616 99.1027 163.65 100.232C164.116 100.746 164.582 101.259 164.996 101.773C165.203 102.03 165.41 102.286 165.668 102.594C165.979 103.005 165.099 101.824 165.565 102.44C165.72 102.646 165.823 102.8 165.979 103.005C166.858 104.186 167.634 105.419 168.41 106.651C169.186 107.935 169.911 109.27 170.583 110.605C170.893 111.273 171.204 111.94 171.514 112.608C171.566 112.762 171.618 112.916 171.721 113.019C171.307 112.043 171.566 112.608 171.669 112.865C171.824 113.275 171.98 113.635 172.135 114.046C173.325 117.127 174.204 120.259 174.877 123.443C175.084 124.367 175.239 125.24 175.394 126.164C175.446 126.524 175.498 126.934 175.601 127.294C175.653 127.602 175.705 127.859 175.705 128.167C175.705 128.013 175.653 127.859 175.653 127.705C175.653 127.91 175.705 128.064 175.705 128.27C175.912 130.118 176.119 131.915 176.222 133.764C176.791 142.237 176.274 150.761 175.705 159.182C175.601 161.082 177.257 162.726 179.067 162.982C180.982 163.239 182.74 162.058 183.309 160.209C187.396 147.321 187.914 133.713 190.966 120.618C191.639 117.691 192.415 114.764 193.449 111.889C193.656 111.273 193.915 110.656 194.122 110.092C194.226 109.784 194.432 109.475 194.536 109.116C194.536 109.167 194.174 109.989 194.432 109.424C194.484 109.27 194.588 109.065 194.639 108.911C195.209 107.678 195.778 106.497 196.398 105.316C197.64 102.954 199.088 100.695 200.692 98.5892C200.796 98.4865 200.899 98.3324 200.951 98.2297C200.434 99 200.589 98.6919 200.744 98.4865C200.951 98.2297 201.158 97.973 201.365 97.7162C201.779 97.2027 202.244 96.6892 202.71 96.1757C203.589 95.2001 204.521 94.2758 205.452 93.4542C206.021 92.9407 206.538 92.4785 207.159 92.0164C207.262 91.9137 207.366 91.8623 207.521 91.7596C206.59 92.4785 207.262 91.965 207.418 91.811C207.728 91.6056 207.987 91.4002 208.297 91.1948C209.435 90.4245 210.625 89.7056 211.867 89.0894C212.177 88.9354 212.539 88.7813 212.85 88.6273C213.005 88.5759 213.109 88.5245 213.264 88.4732C213.988 88.1651 212.488 88.7813 213.16 88.5245C213.833 88.2678 214.505 88.0111 215.23 87.8057C215.954 87.6003 216.626 87.3948 217.351 87.2408C217.661 87.1894 218.023 87.0868 218.334 87.0354C218.644 86.9841 220.092 86.7786 218.747 86.9327C219.782 86.7786 220.765 86.6246 221.489 85.803C222.059 85.1868 222.421 84.4679 222.576 83.5949C222.835 81.849 221.696 79.7437 219.782 79.3842C218.282 79.0761 216.782 78.7167 215.281 78.2545C214.609 78.0491 213.988 77.7924 213.315 77.587C212.953 77.4329 212.591 77.2789 212.229 77.1762C213.419 77.6383 212.074 77.0734 211.763 76.9707C209.021 75.687 206.383 74.1465 203.952 72.3492C203.848 72.2465 203.693 72.1438 203.589 72.0925C203.072 71.6817 203.796 72.2465 203.848 72.2979C203.589 72.0411 203.227 71.8357 202.917 71.579C202.296 71.0655 201.727 70.6034 201.158 70.0899C200.02 69.0629 198.882 67.9845 197.847 66.8035C196.812 65.6737 195.829 64.544 194.846 63.363C194.743 63.2089 194.639 63.0549 194.484 62.9009C194.536 62.9522 195.053 63.6197 194.639 63.1062C194.381 62.7981 194.174 62.49 193.915 62.1819C193.449 61.5657 192.984 60.8981 192.57 60.2819C190.863 57.7658 189.362 55.0956 188.017 52.3741C187.707 51.7065 187.397 51.0903 187.086 50.4227C186.983 50.2687 186.931 50.0633 186.879 49.9092C186.621 49.3444 186.983 50.1146 186.983 50.166C186.827 49.7038 186.62 49.293 186.465 48.8822C185.896 47.4958 185.379 46.0579 184.861 44.6201C182.689 38.3041 181.085 31.7826 179.792 25.2098C179.067 21.564 178.395 17.8667 177.826 14.1695C177.567 12.4236 177.308 10.7291 177.05 8.98318C176.946 8.11022 176.791 7.28862 176.688 6.41567C176.636 6.10757 176.429 4.66975 176.636 5.95351C176.584 5.49135 176.532 5.08057 176.481 4.61841C176.325 3.54006 176.118 2.66708 175.342 1.89683C174.67 1.22928 173.584 0.715802 172.601 0.767152C171.618 0.818502 170.531 1.12658 169.859 1.89683C169.186 2.71843 168.565 3.74544 168.721 4.72109C170.531 18.2262 172.601 31.8853 176.791 44.8769C180.826 57.2523 187.397 69.0629 197.692 77.3302C203.538 82.0031 210.263 85.5976 217.661 86.984C218.023 84.4679 218.334 81.9517 218.696 79.4356C215.488 79.8464 212.539 80.668 209.539 81.9518C206.9 83.0815 204.469 84.6219 202.192 86.4192C197.743 89.8596 194.07 94.3271 191.173 99.1027C188.121 104.084 185.896 109.578 184.396 115.227C182.585 121.902 181.551 128.783 180.516 135.613C179.378 143.315 178.188 151.018 175.808 158.464C178.343 158.823 180.878 159.131 183.413 159.49C184.396 144.291 185.276 128.372 180.102 113.738C175.808 101.516 167.375 90.065 155.114 84.93C146.889 81.4896 137.887 81.3869 129.092 81.4896C129.454 84.0057 129.765 86.5219 130.127 89.038C143.164 87.2408 154.287 78.8707 161.892 68.6007C170.324 57.201 173.998 42.8743 175.756 29.0097C176.791 20.9478 176.998 12.8344 176.429 4.77243C176.274 2.76977 174.722 0.818464 172.549 0.921165C170.583 0.972515 168.565 2.56438 168.721 4.72109Z" fill="#EEEEEE" fill-opacity="0.6"/>
<path d="M25.0539 109.116C25.9334 112.967 26.7094 116.87 27.382 120.772C27.7441 122.672 28.0547 124.572 28.3133 126.472C28.4685 127.448 28.6236 128.372 28.7271 129.348C28.7788 129.759 28.8305 130.221 28.8822 130.632C28.9857 131.35 28.8822 130.683 28.8822 130.58C28.9339 130.888 28.9858 131.196 28.9858 131.556C30.0205 139.31 30.6412 147.064 30.9516 154.869C31.1068 158.207 31.107 161.493 30.9 164.831C30.8483 165.601 30.7964 166.371 30.6929 167.142C30.6412 167.552 30.5895 167.963 30.5378 168.374C30.4861 168.785 30.6413 169.093 30.5378 168.271C30.5895 168.528 30.4342 168.836 30.4342 169.093C30.1756 170.685 29.8652 172.225 29.3996 173.766C29.1926 174.536 28.934 175.255 28.6753 176.025C28.5719 176.333 28.3651 176.693 28.3133 177.001C28.5203 176.231 28.5201 176.59 28.4167 176.795C28.3132 177.052 28.2097 177.258 28.1062 177.514C27.3819 179.003 26.5542 180.39 25.5713 181.725C25.3126 182.033 25.1057 182.393 24.847 182.701C24.8988 182.598 25.3645 182.033 24.9506 182.547C24.8471 182.701 24.7436 182.855 24.5884 182.957C24.071 183.625 23.5019 184.293 22.9328 184.96C21.8464 186.192 20.6566 187.425 19.4667 188.606C18.1734 189.89 16.8281 191.071 15.4313 192.252C14.707 192.868 13.9829 193.484 13.2068 194.049C13.0516 194.203 12.8447 194.357 12.6895 194.46C12.586 194.511 11.9652 195.025 12.4308 194.665C12.9482 194.306 12.2239 194.819 12.1722 194.871C11.9652 195.025 11.7067 195.179 11.4997 195.384C8.39567 197.644 5.18815 199.749 1.92889 201.752C0.53207 202.625 -0.399348 204.473 0.169729 206.116C0.687071 207.657 2.18746 209.043 3.89469 208.941C7.15395 208.735 10.4132 208.581 13.7242 208.735C15.897 208.838 18.0699 209.043 20.191 209.3C21.3809 209.403 22.5189 209.505 23.7088 209.608C24.0709 209.608 24.4331 209.66 24.7953 209.711C24.8987 209.711 24.9505 209.711 25.0539 209.762C25.4678 209.814 25.3643 209.814 24.7435 209.711C24.8469 209.762 25.1058 209.762 25.2093 209.762C26.037 209.916 26.8647 210.07 27.6924 210.327C28.4167 210.532 29.141 210.789 29.8136 211.046C30.0205 211.097 30.1758 211.2 30.3827 211.251C30.9 211.457 29.4513 210.841 30.2274 211.2C30.6412 211.405 31.0035 211.559 31.4174 211.765C32.8659 212.484 34.211 213.305 35.5043 214.23C35.6595 214.332 35.8147 214.486 35.9699 214.589C36.539 215 35.8147 214.486 35.763 214.435C35.9182 214.692 36.4872 215 36.6941 215.205C37.3667 215.77 37.9876 216.335 38.6084 216.9C39.7983 218.03 40.9882 219.262 42.0229 220.494C42.5402 221.111 43.0575 221.727 43.5231 222.343C43.0058 221.624 44.0922 223.062 43.5231 222.343C43.6266 222.497 43.7301 222.6 43.8336 222.754C44.144 223.165 44.4543 223.575 44.7129 223.986C45.6959 225.373 46.627 226.759 47.5065 228.197C49.4207 231.329 51.1798 234.616 52.7835 237.902C53.663 239.699 54.5425 241.548 55.3702 243.345C55.5772 243.756 55.7324 244.167 55.9394 244.578C56.0428 244.783 56.1463 245.04 56.2498 245.245C56.5085 245.913 56.2498 245.297 56.198 245.142C56.6636 246.169 57.0257 247.196 57.4396 248.223C60.8023 256.645 63.389 265.323 65.1997 274.207C65.5619 276.107 67.6831 277.185 69.442 276.98C71.5114 276.723 72.5978 275.131 72.8048 273.18C74.6154 257.723 70.6835 242.37 71.6147 226.862C71.6665 225.629 71.8217 224.397 71.9252 223.216C71.9769 222.908 72.0287 222.6 72.0287 222.292C72.0805 221.778 71.8735 223.37 71.977 222.6C71.977 222.446 72.0287 222.343 72.0287 222.189C72.1322 221.521 72.2355 220.854 72.3389 220.186C72.8046 217.567 73.4254 214.949 74.1496 212.432C74.5635 211.097 74.9774 209.762 75.443 208.427C75.6499 207.811 75.857 207.246 76.1157 206.681C76.2192 206.373 76.3742 206.065 76.4777 205.757C76.7364 205.192 76.3743 206.014 76.3226 206.065C76.426 205.86 76.4778 205.654 76.5812 205.449C77.6677 203.035 78.9092 200.673 80.4095 198.465C80.7717 197.9 81.1857 197.335 81.5996 196.771C81.6513 196.668 82.1167 196.103 81.6511 196.668C81.2372 197.233 81.703 196.617 81.8064 196.514C82.0134 196.257 82.2202 196 82.4789 195.744C83.3584 194.717 84.3414 193.741 85.3761 192.868C85.6347 192.611 85.9452 192.406 86.2039 192.2C86.566 191.892 85.4795 192.714 85.8934 192.457C86.0486 192.354 86.2038 192.252 86.359 192.098C86.928 191.738 87.4455 191.379 88.0663 191.019C88.6354 190.711 89.2044 190.403 89.7735 190.146C89.8769 190.095 90.4978 189.838 89.8253 190.095C89.2044 190.352 89.7218 190.146 89.877 190.095C90.2392 189.941 90.6011 189.838 90.9633 189.736C92.5153 189.222 93.9121 187.733 93.8086 186.038C93.7052 184.293 92.6705 182.906 90.9633 182.341C84.3413 180.133 77.4091 179.209 70.7354 177.103C69.9594 176.847 69.1834 176.59 68.4073 176.282C68.2521 176.231 68.0967 176.179 67.9415 176.128C67.8381 176.077 67.1656 175.717 67.7346 176.025C68.3037 176.333 67.6312 175.974 67.5278 175.922C67.3208 175.82 67.0623 175.717 66.8553 175.614C65.355 174.947 63.9581 174.125 62.613 173.201C62.4061 173.047 62.199 172.893 61.9921 172.79C61.5265 172.482 62.0958 172.944 62.1992 172.944C62.044 172.995 61.3713 172.277 61.2161 172.123C60.5435 171.506 59.8711 170.89 59.2503 170.223C58.7329 169.658 58.2156 169.042 57.6983 168.425C57.4396 168.117 57.1809 167.809 56.9223 167.501C57.5948 168.271 57.181 167.809 57.0258 167.604C56.8706 167.398 56.7154 167.142 56.5085 166.936C54.646 164.42 53.0939 161.75 51.697 158.977C51.3349 158.258 51.0246 157.59 50.7141 156.872C50.5589 156.563 50.4038 156.255 50.3004 155.896C50.1969 155.742 50.1452 155.536 50.0417 155.382C49.7313 154.664 50.3521 156.101 50.0417 155.434C49.4209 153.945 48.8516 152.404 48.2825 150.915C45.9545 144.547 44.1439 137.975 42.1262 131.505C39.3326 122.775 36.0734 114.2 31.8312 106.086C30.8999 104.289 28.2099 103.621 26.5026 104.7C24.6402 105.881 24.1228 108.038 25.1057 109.989C26.1404 111.94 27.1235 113.943 28.0547 115.945C28.4685 116.87 28.9341 117.794 29.2962 118.718C29.2445 118.616 28.9858 117.948 29.2445 118.616C29.3479 118.821 29.4514 119.078 29.5549 119.283C29.7618 119.797 29.9686 120.31 30.1756 120.772C31.6241 124.367 32.9175 128.013 34.1074 131.71C36.2803 138.334 38.1428 145.061 40.4191 151.634C42.5919 157.899 45.2304 164.112 49.007 169.606C51.0247 172.533 53.3008 175.512 56.0945 177.771C59.095 180.287 62.4062 182.084 66.0793 183.471C73.4256 186.295 81.3926 187.117 88.8424 189.582C88.8424 187.117 88.8424 184.652 88.8424 182.136C77.5643 185.73 71.0974 196.873 67.5278 207.349C65.6653 212.741 64.5272 218.389 63.9582 224.038C63.2339 231.329 63.7511 238.724 64.3719 246.015C65.0962 255.002 65.9757 263.988 64.9411 272.974C67.476 272.615 70.0111 272.307 72.5461 271.947C70.8906 263.885 68.5624 255.926 65.6653 248.223C62.7164 240.47 59.2502 232.818 55.0598 225.629C51.4901 219.57 47.1963 213.665 41.7124 209.197C38.7119 206.784 35.6077 204.833 31.9863 203.446C28.7787 202.162 25.4161 201.803 22.0017 201.495C19.5184 201.289 17.087 200.981 14.6038 200.827C10.9306 200.622 7.30915 200.776 3.63602 200.981C4.30857 203.395 4.92928 205.757 5.60182 208.17C11.7065 204.422 17.6559 200.314 22.9846 195.436C28.2615 190.557 33.1764 184.96 35.8148 178.233C38.3498 171.763 38.7636 164.523 38.6084 157.59C38.4532 149.734 37.8322 141.877 36.901 134.123C35.8146 124.983 34.2626 115.843 32.2449 106.856C31.7793 104.905 29.3997 103.57 27.4855 104.186C25.6748 105.059 24.5366 107.011 25.0539 109.116Z" fill="#EEEEEE" fill-opacity="0.6"/>
<path d="M228.577 212.535C229.301 215.359 229.87 218.184 230.284 221.111C230.232 220.751 230.18 220.443 230.129 220.084C230.905 225.784 231.008 231.637 230.232 237.337C230.284 236.978 230.336 236.67 230.387 236.31C229.766 240.932 228.577 245.451 226.766 249.713C226.921 249.405 227.025 249.096 227.18 248.788C226.3 250.842 225.317 252.845 224.128 254.745C223.559 255.721 222.886 256.696 222.213 257.621C221.903 258.031 221.593 258.442 221.282 258.853C222.11 257.775 221.437 258.648 221.23 258.904C221.024 259.161 220.816 259.418 220.61 259.623C219.161 261.369 217.506 262.961 215.798 264.45C215.384 264.81 214.919 265.169 214.505 265.529C214.246 265.734 213.367 266.401 214.453 265.58C214.195 265.734 213.988 265.939 213.729 266.145C212.746 266.864 211.711 267.531 210.677 268.199C208.711 269.38 206.745 270.407 204.624 271.28C204.934 271.126 205.244 271.023 205.555 270.869C204.055 271.485 202.554 272.101 201.054 272.769C200.019 273.231 199.037 273.642 198.261 274.412C196.502 276.055 196.812 278.88 198.622 280.266C199.554 280.985 200.795 281.19 201.882 281.498C203.744 282.063 205.607 282.731 207.417 283.501C207.107 283.347 206.797 283.244 206.486 283.09C211.401 285.196 216.16 287.814 220.403 290.998C220.506 291.101 220.61 291.152 220.713 291.255C219.834 290.587 220.196 290.896 220.403 290.998C220.661 291.204 220.868 291.358 221.127 291.563C221.592 291.922 222.058 292.333 222.472 292.693C223.248 293.412 224.024 294.131 224.748 294.952C225.11 295.312 225.421 295.722 225.783 296.133C225.938 296.339 226.093 296.544 226.249 296.749C226.404 296.955 226.663 297.314 225.938 296.39C226.042 296.544 226.145 296.647 226.249 296.801C226.869 297.622 227.49 298.495 228.008 299.42C229.353 301.525 230.439 303.784 231.474 306.095C231.319 305.787 231.215 305.479 231.06 305.171C234.785 314.003 236.492 323.503 238.147 332.9C238.561 335.416 239.027 337.932 239.493 340.448C239.648 341.321 240.527 342.348 241.251 342.759C242.027 343.17 242.855 343.324 243.735 343.221C245.649 342.965 247.046 341.373 247.098 339.421C247.253 335.159 247.408 330.897 247.563 326.584C247.718 322.476 247.718 318.316 248.287 314.208C248.236 314.568 248.184 314.876 248.132 315.235C248.65 311.692 249.425 308.149 250.357 304.709C250.822 303.014 251.34 301.32 251.857 299.625C252.323 298.239 252.737 296.801 253.306 295.414C253.15 295.722 253.047 296.031 252.892 296.339C253.616 294.695 254.547 293.155 255.634 291.717C255.789 291.512 255.944 291.306 256.099 291.05C256.461 290.587 255.427 291.871 255.996 291.152C256.358 290.69 256.72 290.279 257.082 289.817C257.755 288.996 258.479 288.225 259.203 287.455C260.755 285.863 262.411 284.323 264.118 282.834C264.532 282.474 264.946 282.166 265.36 281.807C265.567 281.652 265.774 281.498 265.981 281.293C266.084 281.19 266.187 281.088 266.343 281.036C266.187 281.139 265.567 281.652 266.032 281.242C266.86 280.625 267.739 280.009 268.567 279.393C270.274 278.263 272.033 277.185 273.948 276.415C273.637 276.569 273.327 276.672 273.016 276.826C273.172 276.774 273.327 276.723 273.482 276.62C274.413 276.261 275.293 275.747 275.81 274.874C276.224 274.104 276.379 273.282 276.276 272.409C276.017 270.51 274.413 269.072 272.447 269.072C271.568 269.072 270.688 269.02 269.861 268.918C270.223 268.969 270.533 269.02 270.895 269.072C269.188 268.815 267.481 268.353 265.877 267.685C266.187 267.839 266.498 267.942 266.808 268.096C265.825 267.685 264.894 267.223 264.014 266.658C263.549 266.401 263.135 266.093 262.67 265.837C262.463 265.683 262.204 265.529 261.997 265.374C261.893 265.323 261.79 265.22 261.686 265.169C261.635 265.118 261.583 265.066 261.531 265.066C261.169 264.758 262.049 265.477 261.997 265.426C260.238 263.988 258.582 262.447 257.03 260.753C256.668 260.291 256.255 259.88 255.892 259.418C255.737 259.212 255.53 258.956 255.375 258.75C254.961 258.237 255.789 259.264 255.634 259.058C255.53 258.904 255.427 258.802 255.323 258.648C254.547 257.672 253.875 256.645 253.15 255.618C251.702 253.461 250.409 251.202 249.219 248.891C247.822 246.221 246.529 243.448 245.339 240.675C245.494 240.983 245.597 241.291 245.752 241.599C242.286 233.435 239.596 224.911 237.371 216.284C236.854 214.281 236.389 212.33 235.923 210.327C235.457 208.376 233.077 207.041 231.163 207.657C229.197 208.478 228.059 210.43 228.577 212.535C229.663 217.208 230.853 221.881 232.25 226.502C233.853 231.894 235.716 237.286 237.837 242.524C240.113 248.018 242.648 253.461 245.856 258.494C248.701 263.012 252.116 267.428 256.306 270.766C258.324 272.358 260.445 273.847 262.825 274.874C265.463 276.004 268.05 276.723 270.947 276.98C271.516 277.031 272.085 277.031 272.602 277.031C272.24 274.515 271.93 271.999 271.568 269.482C267.326 271.126 263.652 273.693 260.134 276.517C256.616 279.342 253.306 282.525 250.512 286.069C249.115 287.814 247.822 289.56 246.787 291.563C245.597 293.925 244.821 296.493 244.045 299.009C242.183 305.119 240.682 311.333 240.217 317.7C239.958 321.295 239.906 324.941 239.803 328.535C239.7 332.232 239.544 335.878 239.441 339.575C241.976 339.216 244.511 338.908 247.046 338.548C245.183 328.33 243.786 317.957 240.475 308.098C238.768 303.117 236.647 298.136 233.543 293.822C231.991 291.614 230.232 289.56 228.266 287.712C225.99 285.658 223.455 283.809 220.868 282.166C218.023 280.317 215.022 278.674 211.918 277.288C210.159 276.466 208.349 275.747 206.486 275.08C204.986 274.566 203.486 274.155 201.985 273.693C202.296 273.847 202.606 273.95 202.917 274.104C203.382 274.566 203.796 274.977 204.261 275.439C204.417 275.747 204.52 276.055 204.675 276.363C204.727 276.723 204.779 277.031 204.831 277.39C204.779 277.75 204.727 278.058 204.675 278.417C204.52 278.726 204.417 279.034 204.261 279.342C203.951 279.804 203.537 280.369 203.072 280.574C203.175 280.523 203.227 280.471 203.33 280.42C203.589 280.266 203.848 280.163 204.106 280.009C204.831 279.65 205.607 279.342 206.383 279.034C206.072 279.188 205.762 279.29 205.452 279.444C207.573 278.571 209.745 277.699 211.815 276.62C214.194 275.388 216.419 273.95 218.54 272.358C223.041 268.918 226.921 264.861 229.973 260.137C235.871 251.15 238.458 240.264 238.51 229.635C238.51 223.267 237.63 216.849 236.078 210.687C235.561 208.735 233.285 207.349 231.319 208.016C229.249 208.479 228.007 210.43 228.577 212.535Z" fill="#EEEEEE" fill-opacity="0.6"/>
<path d="M280.984 76.3032C281.398 78.2031 281.76 80.1031 282.071 82.003C282.226 82.9273 282.381 83.903 282.536 84.8786C282.588 85.1867 282.847 86.6246 282.64 85.4949C282.743 86.0597 282.795 86.6245 282.847 87.138C283.312 91.0406 283.675 94.9946 283.882 98.9486C284.295 106.908 284.243 114.918 283.674 122.826C283.519 124.778 283.364 126.729 283.209 128.732C283.105 129.605 283.054 130.529 282.95 131.402C282.898 131.813 282.847 132.223 282.795 132.686C282.795 132.891 282.743 133.096 282.743 133.251C282.692 133.559 282.743 133.405 282.795 132.788C282.795 132.942 282.743 133.096 282.743 133.251C282.278 136.537 281.553 139.772 280.674 142.956C280.208 144.547 279.691 146.139 279.122 147.68C278.811 148.45 278.553 149.22 278.242 149.991C278.191 150.196 278.087 150.35 278.035 150.555C278.346 149.58 278.191 150.145 278.087 150.401C277.88 150.812 277.725 151.274 277.518 151.685C276.121 154.715 274.518 157.59 272.603 160.363C272.086 161.134 271.517 161.904 270.948 162.623C270.793 162.828 270.482 163.085 271.103 162.417C270.948 162.623 270.741 162.828 270.586 163.034C270.275 163.393 270.017 163.752 269.706 164.112C268.516 165.498 267.275 166.782 265.93 168.066C265.257 168.682 264.585 169.298 263.86 169.914C263.498 170.223 263.084 170.479 262.774 170.787C263.446 170.12 263.188 170.479 262.929 170.685C262.722 170.839 262.515 170.993 262.257 171.147C260.756 172.225 259.153 173.252 257.497 174.125C256.049 174.895 255.221 176.898 255.738 178.49C255.945 179.106 256.255 179.722 256.721 180.185C257.29 180.801 258.583 181.417 259.463 181.314C262.929 180.903 266.395 180.698 269.862 180.801C271.569 180.852 273.224 180.955 274.931 181.109C275.345 181.16 275.811 181.212 276.225 181.263C276.535 181.314 278.087 181.52 276.742 181.314C277.622 181.468 278.501 181.571 279.381 181.725C282.743 182.29 286.106 183.112 289.365 184.139C291.021 184.652 292.676 185.217 294.28 185.884C294.642 186.038 294.952 186.141 295.315 186.295C295.522 186.398 295.729 186.449 295.936 186.552C294.849 186.141 295.573 186.398 295.832 186.501C296.66 186.86 297.436 187.219 298.264 187.579C301.419 189.068 304.472 190.711 307.369 192.56C308.817 193.484 310.214 194.409 311.559 195.436C311.921 195.692 312.283 195.949 312.646 196.206C312.801 196.36 313.008 196.463 313.163 196.617C312.335 196 312.697 196.257 312.904 196.411C313.68 197.027 314.405 197.592 315.129 198.208C317.716 200.365 320.199 202.727 322.475 205.192C323.665 206.476 324.803 207.811 325.941 209.197C326.148 209.505 326.407 209.762 326.614 210.07C325.786 209.095 326.769 210.276 326.924 210.532C327.442 211.251 327.959 211.97 328.476 212.689C330.649 215.822 332.615 219.108 334.271 222.497C334.684 223.37 335.098 224.243 335.46 225.065C335.771 225.783 335.098 224.192 335.409 224.962C335.512 225.219 335.616 225.527 335.719 225.783C335.874 226.194 336.029 226.605 336.185 227.016C336.909 228.864 337.53 230.764 338.047 232.664C338.616 234.616 340.841 236.002 342.807 235.335C343.738 235.026 344.669 234.462 345.135 233.589C345.652 232.613 345.704 231.689 345.549 230.61C345.549 230.559 345.393 229.583 345.497 230.2C345.6 230.816 345.445 229.892 345.445 229.84C345.394 229.481 345.342 229.121 345.29 228.762C345.186 227.94 345.083 227.119 345.031 226.297C344.928 225.013 344.824 223.729 344.773 222.446C344.721 220.443 344.773 218.389 344.721 216.386C344.721 213.87 344.566 211.405 344.307 208.889C344.1 206.989 343.841 205.089 343.583 203.189C343.428 202.06 343.272 200.93 343.117 199.749C343.065 199.544 343.065 199.338 343.014 199.133C342.858 198.157 343.117 199.749 343.014 199.133C342.962 198.568 342.858 198.054 342.807 197.49C342.341 193.844 341.927 190.146 341.824 186.449C341.772 184.549 341.772 182.701 341.927 180.801C341.979 179.928 342.031 179.003 342.186 178.131C341.979 179.209 342.289 177.617 342.289 177.412C342.393 176.898 342.445 176.436 342.548 175.922C342.858 174.331 343.324 172.79 343.841 171.301C344.048 170.633 344.307 169.966 344.566 169.298C344.669 168.99 344.773 168.682 344.928 168.425C344.98 168.22 345.083 168.066 345.135 167.86C345.497 167.039 344.98 168.271 345.135 167.912C346.376 165.19 347.773 162.571 349.429 160.107C349.894 159.439 350.567 158.72 350.981 158.001C350.929 158.053 350.412 158.72 350.826 158.207C350.981 158.001 351.136 157.847 351.291 157.642C351.55 157.334 351.808 157.026 352.067 156.718C353.154 155.485 354.292 154.304 355.533 153.174C356.154 152.609 356.827 152.045 357.499 151.48C358.017 151.069 357.344 151.634 357.292 151.634C357.499 151.531 357.655 151.326 357.861 151.223C358.224 150.966 358.586 150.71 358.896 150.453C360.293 149.477 361.742 148.656 363.294 147.885C364.742 147.166 365.57 145.061 365.052 143.521C364.483 141.826 363.086 140.799 361.328 140.696C359.517 140.594 357.706 140.44 355.895 140.234C355.482 140.183 355.068 140.131 354.654 140.08C354.447 140.08 354.24 139.977 354.033 139.977C355.068 139.926 354.395 140.029 354.085 139.977C353.154 139.823 352.222 139.721 351.343 139.567C347.825 138.95 344.359 138.18 340.996 137.204C339.289 136.691 337.633 136.177 335.978 135.561C335.202 135.253 334.426 134.996 333.598 134.688C333.494 134.637 332.408 134.226 332.408 134.226C332.563 134.277 332.718 134.38 332.874 134.432C332.718 134.38 332.563 134.277 332.408 134.226C332.201 134.123 331.943 134.021 331.736 133.918C328.476 132.48 325.372 130.837 322.372 128.937C320.871 127.961 319.371 126.986 317.974 125.907C317.819 125.805 317.716 125.702 317.56 125.599C317.716 125.753 318.44 126.216 317.56 125.599C317.25 125.343 316.888 125.086 316.577 124.829C315.853 124.264 315.181 123.648 314.508 123.032C313.215 121.851 311.921 120.618 310.732 119.335C309.49 117.999 308.403 116.562 307.213 115.227C307.938 116.048 307.058 115.021 306.903 114.764C306.645 114.405 306.386 114.097 306.127 113.737C305.558 112.967 305.041 112.197 304.523 111.427C303.489 109.886 302.557 108.294 301.626 106.702C299.816 103.519 298.212 100.232 296.712 96.8432C296.66 96.6892 296.556 96.5351 296.505 96.3811C296.453 96.227 296.349 96.073 296.298 95.9189C296.505 96.4324 296.556 96.4838 296.401 96.1243C296.194 95.6622 295.987 95.1486 295.78 94.6865C295.418 93.7622 295.056 92.8379 294.694 91.9136C293.97 90.0137 293.245 88.0623 292.573 86.1624C291.176 82.2084 289.883 78.2545 288.589 74.3005C287.968 72.4005 285.847 70.9628 283.83 71.6303C281.76 72.1952 280.312 74.2492 280.984 76.3032C285.64 90.7326 290.503 105.624 299.557 117.999C304.161 124.316 309.697 129.759 316.215 134.226C322.372 138.437 329.252 141.621 336.34 143.931C344.411 146.55 352.843 147.988 361.328 148.45C360.655 146.037 360.034 143.675 359.362 141.261C347.618 147.064 339.444 158.617 335.874 170.993C333.702 178.541 333.805 186.398 334.684 194.1C334.943 196.257 335.202 198.363 335.512 200.519C335.564 201.033 335.667 201.495 335.719 202.008C335.771 202.214 335.771 202.419 335.823 202.625C335.978 203.6 335.719 202.008 335.823 202.676C335.978 203.652 336.081 204.679 336.236 205.654C336.599 208.684 336.961 211.714 337.012 214.743C337.064 217.054 337.012 219.365 337.064 221.675C337.168 225.321 337.582 228.967 338.099 232.613C340.582 231.946 343.065 231.227 345.6 230.559C341.617 216.592 333.339 203.96 322.475 194.357C311.611 184.703 298.16 177.668 283.882 174.741C275.914 173.098 267.637 172.585 259.566 173.612C260.239 176.025 260.86 178.387 261.532 180.801C274.259 173.868 282.847 161.39 287.348 147.937C289.676 140.953 290.71 133.713 291.279 126.37C291.952 118.256 292.159 110.143 291.849 102.03C291.486 92.7352 290.503 83.4408 288.589 74.3518C288.175 72.4005 285.744 71.0654 283.83 71.6816C281.605 72.2465 280.571 74.1978 280.984 76.3032Z" fill="#EEEEEE" fill-opacity="0.6"/>
</svg>
