<svg width="38" height="32" viewBox="0 0 38 32" fill="none" xmlns="http://www.w3.org/2000/svg">
<path d="M37.6061 2.2368C37.6063 1.93488 37.5265 1.63829 37.3748 1.37725C37.223 1.11621 37.0049 0.900034 36.7424 0.750747C36.48 0.601461 36.1827 0.524392 35.8808 0.527392C35.5788 0.530391 35.2831 0.613351 35.0237 0.767822C34.0232 1.36333 32.946 1.81939 31.8221 2.12334C30.217 0.745997 28.1698 -0.00770571 26.0547 -2.56783e-06C23.7344 0.00266852 21.5059 0.906968 19.8399 2.52194C18.1738 4.13692 17.2006 6.33616 17.1257 8.65527C12.5515 7.92582 8.40568 5.53831 5.47896 1.94801C5.30261 1.73406 5.0774 1.56565 4.82233 1.45699C4.56725 1.34833 4.28978 1.3026 4.01332 1.32367C3.73702 1.34642 3.47042 1.43613 3.23658 1.58505C3.00274 1.73396 2.80868 1.9376 2.67121 2.17834C1.96615 3.40876 1.56121 4.78811 1.48928 6.20439C1.41734 7.62068 1.68045 9.03396 2.25722 10.3295L2.25389 10.3328C1.99466 10.4925 1.78072 10.716 1.63255 10.9819C1.48437 11.2479 1.4069 11.5474 1.40755 11.8519C1.40441 12.103 1.41948 12.3541 1.45263 12.6031C1.62722 14.7539 2.58043 16.7671 4.13351 18.2653C4.02815 18.466 3.96385 18.6857 3.94435 18.9116C3.92486 19.1374 3.95058 19.3649 4.01999 19.5807C4.69709 21.6903 6.13702 23.4713 8.05801 24.5752C6.10634 25.3299 3.99901 25.593 1.92169 25.3414C1.53721 25.2932 1.14775 25.377 0.81719 25.5792C0.486633 25.7814 0.234607 26.0899 0.102454 26.4542C-0.0296988 26.8185 -0.0341313 27.2168 0.0898831 27.584C0.213897 27.9511 0.458995 28.2651 0.784972 28.4746C4.35768 30.7757 8.51753 31.9991 12.7671 31.9986C17.5862 32.0528 22.2882 30.5128 26.1415 27.6182C29.9949 24.7237 32.7836 20.6368 34.0739 15.9933C34.6774 13.9705 34.9855 11.8712 34.9887 9.76028C34.9887 9.64843 34.9887 9.53326 34.987 9.41808C35.8795 8.4556 36.5709 7.32464 37.0206 6.09151C37.4703 4.85837 37.6694 3.54787 37.6061 2.2368ZM31.9539 7.72709C31.6715 8.061 31.5287 8.49083 31.5549 8.92731C31.5716 9.20935 31.5699 9.49311 31.5699 9.76028C31.5664 11.5441 31.305 13.318 30.7937 15.0269C29.7399 18.9779 27.3907 22.4609 24.1223 24.9182C20.8539 27.3755 16.8554 28.6649 12.7671 28.5799C11.2986 28.5803 9.83512 28.4077 8.40696 28.0657C10.2281 27.4788 11.9309 26.574 13.4365 25.3932C13.7138 25.1748 13.9168 24.876 14.0175 24.5378C14.1182 24.1995 14.1119 23.8384 13.9992 23.5039C13.8865 23.1694 13.6731 22.878 13.3883 22.6696C13.1034 22.4613 12.7611 22.3461 12.4082 22.3401C10.9874 22.318 9.6307 21.7452 8.62389 20.7425C8.8793 20.6941 9.13304 20.634 9.3851 20.5623C9.75434 20.4572 10.0775 20.2308 10.3024 19.9198C10.5274 19.6087 10.6412 19.231 10.6254 18.8474C10.6096 18.4638 10.4651 18.0967 10.2153 17.8052C9.96549 17.5137 9.62485 17.3147 9.24821 17.2404C8.42352 17.0775 7.64748 16.7266 6.98044 16.2151C6.3134 15.7035 5.77332 15.045 5.40217 14.2907C5.7111 14.3329 6.022 14.3591 6.33363 14.3692C6.70385 14.3748 7.06625 14.2625 7.36843 14.0485C7.67061 13.8346 7.89691 13.53 8.01461 13.179C8.12739 12.8247 8.12159 12.4434 7.99808 12.0927C7.87457 11.7421 7.64009 11.4413 7.3302 11.2359C6.57834 10.735 5.96245 10.0555 5.5377 9.25813C5.11295 8.46078 4.89259 7.57053 4.89637 6.6671C4.89637 6.5536 4.89971 6.44008 4.90639 6.32824C8.7375 9.90122 13.7067 12.0075 18.9385 12.2759C19.2025 12.2863 19.4655 12.2366 19.7076 12.1305C19.9496 12.0243 20.1644 11.8646 20.3357 11.6633C20.5052 11.46 20.6252 11.2202 20.6863 10.9627C20.7475 10.7052 20.7479 10.437 20.6878 10.1793C20.59 9.77138 20.5402 9.35346 20.5392 8.93399C20.5408 7.4717 21.1224 6.06975 22.1564 5.03576C23.1904 4.00177 24.5923 3.42019 26.0546 3.41865C26.807 3.41664 27.5515 3.57061 28.2414 3.87085C28.9312 4.1711 29.5513 4.61109 30.0626 5.16306C30.2597 5.37516 30.5079 5.5333 30.7834 5.62242C31.0589 5.71155 31.3526 5.72871 31.6367 5.67226C32.3388 5.53561 33.031 5.35157 33.7083 5.1214C33.2463 6.06663 32.6559 6.94348 31.9539 7.72709Z" fill="#F6B50E"/>
</svg>
