<svg width="32" height="30" viewBox="0 0 32 30" fill="none" xmlns="http://www.w3.org/2000/svg">
<path d="M27.2 -6.10352e-05H4.8C3.52696 -6.10352e-05 2.30606 0.592571 1.40589 1.64746C0.505713 2.70236 0 4.1331 0 5.62494V24.3749C0 25.8668 0.505713 27.2975 1.40589 28.3524C2.30606 29.4073 3.52696 29.9999 4.8 29.9999H27.2C28.473 29.9999 29.6939 29.4073 30.5941 28.3524C31.4943 27.2975 32 25.8668 32 24.3749V5.62494C32 4.1331 31.4943 2.70236 30.5941 1.64746C29.6939 0.592571 28.473 -6.10352e-05 27.2 -6.10352e-05ZM4.8 3.74994H27.2C27.6243 3.74994 28.0313 3.94748 28.3314 4.29911C28.6314 4.65074 28.8 5.12766 28.8 5.62494L16 14.7749L3.2 5.62494C3.2 5.12766 3.36857 4.65074 3.66863 4.29911C3.96869 3.94748 4.37565 3.74994 4.8 3.74994ZM28.8 24.3749C28.8 24.8722 28.6314 25.3491 28.3314 25.7008C28.0313 26.0524 27.6243 26.2499 27.2 26.2499H4.8C4.37565 26.2499 3.96869 26.0524 3.66863 25.7008C3.36857 25.3491 3.2 24.8722 3.2 24.3749V9.89994L15.168 18.4687C15.4112 18.6333 15.6871 18.7199 15.968 18.7199C16.2489 18.7199 16.5248 18.6333 16.768 18.4687L28.8 9.89994V24.3749Z" fill="#F6B50E"/>
</svg>
