<svg width="19" height="19" viewBox="0 0 19 19" fill="none" xmlns="http://www.w3.org/2000/svg">
<path d="M16.1237 2.7231H14.3237V1.8231C14.3237 1.5844 14.2289 1.35548 14.0601 1.1867C13.8913 1.01792 13.6624 0.923096 13.4237 0.923096C13.185 0.923096 12.9561 1.01792 12.7873 1.1867C12.6186 1.35548 12.5237 1.5844 12.5237 1.8231V2.7231H7.12373V1.8231C7.12373 1.5844 7.02891 1.35548 6.86013 1.1867C6.69134 1.01792 6.46243 0.923096 6.22373 0.923096C5.98504 0.923096 5.75612 1.01792 5.58733 1.1867C5.41855 1.35548 5.32373 1.5844 5.32373 1.8231V2.7231H3.52373C2.80765 2.7231 2.12089 3.00756 1.61454 3.51391C1.10819 4.02026 0.82373 4.70701 0.82373 5.4231V16.2231C0.82373 16.9392 1.10819 17.6259 1.61454 18.1323C2.12089 18.6386 2.80765 18.9231 3.52373 18.9231H16.1237C16.8398 18.9231 17.5266 18.6386 18.0329 18.1323C18.5393 17.6259 18.8237 16.9392 18.8237 16.2231V5.4231C18.8237 4.70701 18.5393 4.02026 18.0329 3.51391C17.5266 3.00756 16.8398 2.7231 16.1237 2.7231ZM17.0237 16.2231C17.0237 16.4618 16.9289 16.6907 16.7601 16.8595C16.5913 17.0283 16.3624 17.1231 16.1237 17.1231H3.52373C3.28504 17.1231 3.05612 17.0283 2.88733 16.8595C2.71855 16.6907 2.62373 16.4618 2.62373 16.2231V9.9231H17.0237V16.2231ZM17.0237 8.1231H2.62373V5.4231C2.62373 5.1844 2.71855 4.95548 2.88733 4.7867C3.05612 4.61792 3.28504 4.5231 3.52373 4.5231H5.32373V5.4231C5.32373 5.66179 5.41855 5.89071 5.58733 6.05949C5.75612 6.22827 5.98504 6.3231 6.22373 6.3231C6.46243 6.3231 6.69134 6.22827 6.86013 6.05949C7.02891 5.89071 7.12373 5.66179 7.12373 5.4231V4.5231H12.5237V5.4231C12.5237 5.66179 12.6186 5.89071 12.7873 6.05949C12.9561 6.22827 13.185 6.3231 13.4237 6.3231C13.6624 6.3231 13.8913 6.22827 14.0601 6.05949C14.2289 5.89071 14.3237 5.66179 14.3237 5.4231V4.5231H16.1237C16.3624 4.5231 16.5913 4.61792 16.7601 4.7867C16.9289 4.95548 17.0237 5.1844 17.0237 5.4231V8.1231Z" fill="#EEEEEE"/>
</svg>
