<svg width="19" height="19" viewBox="0 0 19 19" fill="none" xmlns="http://www.w3.org/2000/svg">
<path d="M17.5604 6.49318C17.5604 6.49318 17.5604 6.49318 17.5604 6.44785C16.9216 4.70381 15.7626 3.19805 14.2401 2.13427C12.7176 1.07048 10.905 0.5 9.04771 0.5C7.19037 0.5 5.37786 1.07048 3.85534 2.13427C2.33282 3.19805 1.17379 4.70381 0.535018 6.44785C0.535018 6.44785 0.535018 6.44785 0.535018 6.49318C-0.178339 8.46125 -0.178339 10.6173 0.535018 12.5853C0.535018 12.5853 0.535018 12.5853 0.535018 12.6307C1.17379 14.3747 2.33282 15.8805 3.85534 16.9442C5.37786 18.008 7.19037 18.5785 9.04771 18.5785C10.905 18.5785 12.7176 18.008 14.2401 16.9442C15.7626 15.8805 16.9216 14.3747 17.5604 12.6307C17.5604 12.6307 17.5604 12.6307 17.5604 12.5853C18.2738 10.6173 18.2738 8.46125 17.5604 6.49318ZM2.01273 11.3524C1.69835 10.1641 1.69835 8.91443 2.01273 7.72611H3.69895C3.55393 8.93052 3.55393 10.148 3.69895 11.3524H2.01273ZM2.75611 13.1655H4.02531C4.2381 13.9741 4.54225 14.7557 4.93188 15.4954C4.04281 14.8898 3.2996 14.0939 2.75611 13.1655ZM4.02531 5.91297H2.75611C3.29178 4.98744 4.02549 4.19182 4.90469 3.58309C4.52443 4.32398 4.22942 5.1056 4.02531 5.91297ZM8.12301 16.5198C7.00953 15.7027 6.22751 14.512 5.92004 13.1655H8.12301V16.5198ZM8.12301 11.3524H5.53022C5.36104 10.1496 5.36104 8.92895 5.53022 7.72611H8.12301V11.3524ZM8.12301 5.91297H5.92004C6.22751 4.56651 7.00953 3.37577 8.12301 2.55867V5.91297ZM15.303 5.91297H14.0338C13.8211 5.10446 13.5169 4.32279 13.1273 3.58309C14.0164 4.18874 14.7596 4.98459 15.303 5.91297ZM9.93615 2.55867C11.0496 3.37577 11.8317 4.56651 12.1391 5.91297H9.93615V2.55867ZM9.93615 16.5198V13.1655H12.1391C11.8317 14.512 11.0496 15.7027 9.93615 16.5198ZM12.5289 11.3524H9.93615V7.72611H12.5289C12.6981 8.92895 12.6981 10.1496 12.5289 11.3524ZM13.1545 15.4954C13.5441 14.7557 13.8483 13.9741 14.061 13.1655H15.3302C14.7868 14.0939 14.0435 14.8898 13.1545 15.4954ZM16.0464 11.3524H14.3602C14.4339 10.7508 14.4703 10.1453 14.469 9.53925C14.47 8.93321 14.4337 8.32769 14.3602 7.72611H16.0464C16.3608 8.91443 16.3608 10.1641 16.0464 11.3524Z" fill="black"/>
</svg>
