<svg width="36" height="31" viewBox="0 0 36 31" fill="none" xmlns="http://www.w3.org/2000/svg">
<g clip-path="url(#clip0_335_426)">
<path d="M34.2334 28.4279C34.3107 28.4286 34.3872 28.4137 34.4584 28.3839C34.5296 28.3542 34.5938 28.3102 34.6471 28.2549C34.7004 28.1995 34.7416 28.1339 34.7683 28.0621C34.7949 27.9903 34.8063 27.9139 34.8019 27.8375C34.8019 27.4189 34.5468 27.2188 34.0234 27.2188H33.1777V29.4108H33.4958V28.4553H33.8867L33.8956 28.4669L34.5022 29.4108H34.8423L34.1897 28.4339L34.2334 28.4279ZM33.8656 28.2083H33.4967V27.4672H33.9642C34.2057 27.4672 34.481 27.5063 34.481 27.8194C34.481 28.1795 34.2024 28.2083 33.8637 28.2083" fill="white"/>
<path d="M25.9363 25.6809H21.4259V18.6871C21.4259 17.0193 21.3959 14.8724 19.0801 14.8724C16.731 14.8724 16.3716 16.6895 16.3716 18.5656V25.6804H11.8612V11.2983H16.1911V13.2638H16.2517C16.6851 12.5302 17.3112 11.9267 18.0635 11.5176C18.8159 11.1084 19.6662 10.909 20.5239 10.9406C25.0953 10.9406 25.9382 13.9178 25.9382 17.7911L25.9363 25.6809ZM6.77205 9.33236C6.25438 9.33245 5.74829 9.18055 5.31781 8.89585C4.88733 8.61116 4.5518 8.20646 4.35361 7.73293C4.15542 7.25941 4.10348 6.73833 4.20438 6.23559C4.30528 5.73284 4.55449 5.27102 4.92048 4.90851C5.28646 4.546 5.75279 4.29908 6.2605 4.199C6.76821 4.09891 7.29448 4.15014 7.77279 4.34621C8.25109 4.54227 8.65993 4.87438 8.94761 5.30051C9.23529 5.72665 9.3889 6.22769 9.38899 6.74027C9.38905 7.08061 9.3214 7.41762 9.18992 7.73208C9.05844 8.04653 8.86572 8.33226 8.62271 8.57296C8.37971 8.81366 8.09118 9.00461 7.77365 9.1349C7.45611 9.2652 7.11578 9.3323 6.77205 9.33236ZM9.02722 25.6809H4.51219V11.2983H9.02722V25.6809ZM28.1849 0.0018551H2.24576C1.65701 -0.00472345 1.08969 0.220404 0.668493 0.627765C0.2473 1.03513 0.00669703 1.5914 -0.000488281 2.17434V27.9645C0.0064511 28.5478 0.246913 29.1044 0.668091 29.5122C1.08927 29.92 1.65672 30.1455 2.24576 30.1393H28.1849C28.7751 30.1467 29.3441 29.9217 29.7669 29.514C30.1898 29.1062 30.4319 28.5489 30.44 27.9645V2.17248C30.4316 1.58838 30.1894 1.03148 29.7665 0.624126C29.3437 0.216774 28.7748 -0.00770997 28.1849 -6.44747e-06" fill="#F6B50E"/>
<path d="M33.9041 26.2424C33.3554 26.2476 32.831 26.4678 32.4458 26.8547C32.0606 27.2417 31.8458 27.764 31.8484 28.3074C31.8511 28.8508 32.0709 29.371 32.4599 29.7543C32.8489 30.1376 33.3753 30.3528 33.9241 30.3528C34.4729 30.3528 34.9993 30.1376 35.3883 29.7543C35.7773 29.371 35.9971 28.8508 35.9998 28.3074C36.0024 27.764 35.7876 27.2417 35.4024 26.8547C35.0172 26.4678 34.4928 26.2476 33.9441 26.2424H33.9041ZM33.9041 30.1175C33.5442 30.1234 33.1906 30.0235 32.888 29.8304C32.5854 29.6374 32.3474 29.3598 32.2041 29.0328C32.0608 28.7058 32.0187 28.3441 32.083 27.9934C32.1474 27.6427 32.3153 27.3188 32.5656 27.0626C32.8159 26.8064 33.1372 26.6294 33.4891 26.5541C33.8409 26.4787 34.2075 26.5084 34.5423 26.6393C34.8771 26.7702 35.1652 26.9965 35.3702 27.2895C35.5751 27.5825 35.6877 27.9291 35.6937 28.2855C35.6937 28.2957 35.6937 28.3055 35.6937 28.3157C35.7038 28.7833 35.5259 29.2356 35.1992 29.5733C34.8725 29.911 34.4237 30.1064 33.9516 30.1165H33.9046" fill="white"/>
</g>
<defs>
<clipPath id="clip0_335_426">
<rect width="36" height="30.3896" fill="white"/>
</clipPath>
</defs>
</svg>
