<svg width="449" height="360" viewBox="0 0 449 360" fill="none" xmlns="http://www.w3.org/2000/svg">
<path fill-rule="evenodd" clip-rule="evenodd" d="M258.055 359.412C311.73 359.412 358.833 319.606 332.38 265.54C305.927 211.475 404.218 213.221 433.09 175.854C468.301 130.284 458.104 -63.1551 232.061 54.7747C195.852 73.6657 102.858 35.3403 72.0115 54.3567C35.7022 76.7408 -15.383 122.576 35.7022 169.528C60.8658 192.656 -29.3515 252.684 10.1619 306.454C48.717 358.92 75.7435 308.905 134.443 319.606C193.143 330.308 218.191 359.412 258.055 359.412Z" fill="#303841"/>
<path d="M195.755 265.353C195.755 265.353 208.114 259.557 212.728 255.525C217.342 251.492 223.078 241.474 223.078 241.474C223.078 241.474 286.086 286.84 327.17 280.369C336.636 278.878 355.08 272.605 356.257 261.553C359.469 231.373 315.031 223.66 324.737 208.356C330.663 199.014 349.069 212.917 349.069 212.917L425.413 250.355C425.413 250.355 399.038 315.172 335.033 317.769C256.298 320.965 195.755 265.353 195.755 265.353Z" fill="white"/>
<path fill-rule="evenodd" clip-rule="evenodd" d="M135.226 11.5155C134.51 11.2351 130.662 6.53755 125.776 5.68258C123.556 5.29406 125.571 8.11225 123.128 8.13761C115.851 8.21314 104.026 6.85021 101.835 8.13761C100.207 9.09138 103.793 12.4234 101.835 12.5763C83.3666 14.0196 55.1912 32.404 49.0782 41.3231C47.1328 44.1616 62.8669 39.3457 60.36 40.749C57.5463 42.324 54.4258 52.6369 52.56 60.6019C51.2683 66.0868 50.455 73.1456 50.168 80.8245C49.9288 87.4541 50.0245 88.5511 50.9813 92.1759C52.0816 96.2299 52.9427 97.4223 54.4258 96.85C54.952 96.6592 55.1912 95.9438 55.1912 94.6083C55.1912 93.559 55.7653 90.4112 56.4829 87.5972L57.7267 82.5415L58.253 84.6401C58.9227 87.0725 62.8456 94.6083 66.3858 100.093C66.5767 100.384 67.3982 100.014 68.139 98.229C68.814 96.6023 68.5401 94.0037 69.6868 91.2186C72.2989 84.8744 77.4278 76.626 83.3666 70.0233C92.1437 60.2652 95.0558 48.9721 103.283 39.9068C118.638 22.9892 137.909 12.5654 135.226 11.5155Z" fill="white"/>
<path fill-rule="evenodd" clip-rule="evenodd" d="M60.5782 43.0508C58.1152 45.0254 54.4591 61.0418 54.3964 61.3095C53.1047 66.7944 51.8596 85.8415 53.1323 89.4477C54.405 93.0538 57.9688 80.0545 57.9688 80.0545C57.9688 80.0545 63.3555 93.9993 68.1151 97.8227C68.3184 97.986 62.4576 80.5699 60.5782 70.4028C58.0974 56.9817 61.98 41.927 60.5782 43.0508Z" fill="#E7EAEE"/>
<path fill-rule="evenodd" clip-rule="evenodd" d="M152.383 323.555C156.976 322.553 164.725 319.065 167.692 317.872C170.659 316.68 179.7 303.952 182.953 289.596C185.297 279.008 186.493 263.936 185.153 261.408C184.956 261.05 184.232 254.196 186.158 256.434C190.44 261.408 195.523 269.218 211.561 255.224C215.929 251.413 221.719 246.494 220.194 242.145C215.929 229.978 197.44 205.479 194.621 203.623C191.251 201.404 174.217 203.29 148.867 195.83C120.118 187.371 108.147 162.46 96.8968 165.703C87.7986 168.325 66 184.441 60.5293 194.646C34.7018 242.826 66 276.586 73.1278 286.282L80.0485 289.262L80.2877 295.415L80.6225 299.278C81.2445 306.671 81.4837 307.338 84.8325 309.818C93.2045 316.162 109.709 322.076 124.636 324.175C131.572 325.128 146.642 324.795 152.383 323.555Z" fill="white"/>
<path fill-rule="evenodd" clip-rule="evenodd" d="M82.7703 293.162L83.1052 297.026C83.7271 304.418 83.9663 305.086 87.3151 307.566C92.254 311.308 100.023 314.901 108.629 317.649C114.611 319.56 120.997 321.062 127.118 321.922C134.055 322.876 149.125 322.542 154.865 321.302C157.703 320.689 134.362 302.408 120.612 307.566C110.052 311.528 85.1635 281.31 95.2829 273.416C106.635 264.56 85.8332 229.631 85.1635 222.048C84.4937 214.465 81.8561 212.653 81.7791 212.919C81.7021 213.185 81.7021 214.092 81.9092 216.278C82.8017 225.701 82.7703 293.162 82.7703 293.162Z" fill="#E7EAEE"/>
<path fill-rule="evenodd" clip-rule="evenodd" d="M80.2781 219.883C81.2825 219.688 82.2552 220.342 82.4506 221.343C86.0613 239.837 101.334 252.357 128.644 258.904C156.115 265.49 174.828 265.134 184.688 258.105C185.52 257.511 184.9 262.593 184.29 262.983C177.859 267.094 155.995 273.229 129.904 267.684C96.5429 260.595 80.879 232.628 78.8135 222.049C78.618 221.048 79.2738 220.078 80.2781 219.883Z" fill="#FFB61D"/>
<path fill-rule="evenodd" clip-rule="evenodd" d="M66.3663 186.517C67.2544 186.011 100.389 223.87 145.861 232.44C191.333 241.01 202.343 235.56 204.113 223.87C204.266 222.862 205.21 222.167 206.221 222.32C207.233 222.472 207.929 223.413 207.777 224.422C205.534 239.236 184.493 242.76 145.238 236.082C106.476 229.487 79.901 213.82 65.6783 189.038C65.1702 188.152 65.4782 187.024 66.3663 186.517Z" fill="#FFB61D"/>
<path fill-rule="evenodd" clip-rule="evenodd" d="M257.22 184.417C255.977 183.988 254.637 183.034 253.776 181.937L252.341 180.173L257.412 175.165C265.21 167.533 271.19 159.711 276.356 150.411C278.079 147.311 282.432 136.961 282.432 135.959C282.432 135.626 282.958 134.29 283.58 132.907C284.537 130.904 285.255 130.141 287.312 128.996C289.752 127.565 292.526 127.088 293.722 127.899C296.019 129.425 296.019 134.242 293.722 142.541C291.187 151.651 287.79 158.185 280.758 167.581C279.657 169.012 277.6 171.826 276.117 173.781C272.147 179.028 269.563 181.556 266.071 183.511C262.626 185.419 260.617 185.657 257.22 184.417ZM291.57 180.125L295.014 181.651C295.728 181.98 303.608 185.754 313.072 190.288C328.331 197.598 347.712 206.882 347.83 206.882C348.021 206.882 348.919 204.812 349.121 202.398C349.6 197.2 351.37 190.141 353.427 185.228C354.384 183.034 355.149 180.292 355.149 180.054C355.149 179.945 354.371 179.632 353.098 179.12C351.582 178.511 349.365 177.619 346.921 176.453C334.865 170.681 311.28 158.901 308.361 157.136C305.491 155.467 304.917 155.324 304.917 156.421C304.917 157.852 301.999 164.481 299.75 168.058C298.554 170.014 296.21 173.543 294.536 175.88L291.57 180.125ZM347.016 198.297C348.388 199.09 346.012 200.252 345.438 200.443C342.057 200.729 338.078 200.096 334.817 198.202C333.112 196.996 319.688 189.561 310.783 184.629C306.712 182.374 303.586 180.642 302.956 180.268C300.946 179.076 299.033 177.788 298.698 177.407C297.693 176.119 298.65 175.546 301.473 175.785C303.169 175.928 344.053 196.585 347.016 198.297ZM152.546 323.162C156.236 322.357 161.965 319.947 165.613 318.412C166.505 318.036 167.272 317.714 167.855 317.479C170.822 316.287 179.863 303.559 183.116 289.203C185.46 278.615 186.656 263.543 185.317 261.015C184.509 259.551 189.307 264.463 192.881 268.12L192.883 268.122L192.9 268.14C193.975 269.241 194.938 270.226 195.602 270.888C216.461 291.54 247.509 308.138 279.753 315.912C295.827 319.823 307.261 321.206 322.618 321.206C348.404 321.206 368.736 316.15 387.202 305.037C388.073 304.513 388.89 304.031 389.669 303.571L389.681 303.564L389.685 303.562C396.122 299.763 399.957 297.499 410.453 285.721C422.226 272.51 432.698 241.842 436.191 231.254C437.721 226.484 441.453 207.514 441.453 202.78C441.453 197.175 439.492 194.529 436.812 191.81C432.076 187.184 425.666 185.514 420.355 187.518L417.868 188.471L417.102 185.944C416.002 182.128 413.706 179.076 410.165 176.786C404.903 173.305 404.138 173.066 399.401 173.066C395.718 173.066 394.713 173.257 392.369 174.354L389.642 175.594L389.068 173.877C387.968 170.347 384.277 165.427 381.414 164.004C378.874 162.742 374.478 162.626 371.415 163.193C364.717 164.433 359.933 167.533 357.972 171.874C357.398 173.209 356.68 174.258 356.393 174.258C356.154 174.258 346.729 171.634 335.487 166.674C333.591 165.835 331.809 165.047 330.136 164.308C309.948 155.387 305.572 153.454 305.97 151.031C306.304 148.98 306.209 147.836 305.635 146.071C304.63 143.114 303.482 142.303 300.229 142.303C297.645 142.303 297.645 142.303 297.932 141.015C299.463 133.718 299.415 129.521 297.789 126.85C296.689 125.085 295.397 124.37 292.431 123.94C290.709 123.702 289.895 123.845 287.982 124.894C286.69 125.562 285.59 126.039 285.494 125.944C285.398 125.848 285.733 123.225 286.259 120.125C290.182 97.1837 287.152 77.4175 277.153 56.4318C277.057 56.231 276.946 55.9936 276.819 55.7218C273.78 49.2158 261.558 23.0549 226.603 9.85452C225.021 9.25717 223.524 8.67957 222.085 8.12445L222.084 8.12405C210.178 3.52924 202.262 0.474649 183.164 0.506348C161.758 0.541877 154.507 3.55881 140.395 9.99761C138.433 10.9038 136.711 11.4285 136.567 11.2377C136.424 10.9992 135.515 10.4269 134.606 9.94991C133.697 9.47297 131.736 8.2806 130.3 7.3267C126.186 4.5604 123.651 3.41573 122.359 3.7019C120.876 4.08346 120.876 5.32352 122.359 5.89586C122.981 6.13433 123.698 6.94514 123.985 7.75595C124.607 9.47297 125.325 9.66374 125.755 8.2329C125.947 7.70826 126.234 7.3267 126.377 7.42209C126.432 7.44911 126.612 7.53352 126.888 7.66232L126.89 7.66322L126.891 7.66373L126.892 7.66397L126.892 7.66402C127.591 7.99039 128.897 8.59966 130.3 9.28219C132.262 10.2361 134.415 11.2377 134.989 11.4761C136.041 11.8577 135.706 12.1439 131.161 14.8148C113.413 25.2122 98.965 41.3808 90.88 59.791C89.6362 62.5573 88.5358 64.2743 87.3877 65.2282C84.4694 67.6606 78.7286 74.5763 77.3891 77.2949C76.6715 78.7735 75.1406 81.0628 73.9446 82.3983C72.7964 83.7337 71.5526 85.4507 71.122 86.1662C70.7393 86.9293 70.3565 87.4539 70.213 87.3585C70.1173 87.2155 70.2609 84.8784 70.5957 82.1598C71.3134 75.8164 71.3134 74.1471 70.7393 74.004C69.8781 73.7655 68.6343 77.1042 68.1081 81.2536C67.7253 83.7814 67.6297 87.597 67.8689 91.508L68.1559 97.7083L64.7592 92.2234C63.5911 90.3892 62.4408 88.555 61.624 87.2524L61.6207 87.2473L61.6203 87.2466L61.62 87.2462C61.1007 86.418 60.7166 85.8056 60.5493 85.5461C59.3055 83.7337 58.5879 81.0151 59.1141 80.1089C59.4011 79.5843 59.3533 79.3458 58.8749 79.3458C57.8703 79.3458 55.9088 82.5414 54.6171 86.2139C53.9952 87.9309 53.3733 89.3617 53.1819 89.3617C52.4643 89.3617 52.7992 72.287 53.5646 66.8021C55.1434 55.9754 59.3055 42.6208 61.1712 42.6208C61.554 42.6208 61.8888 42.4301 61.8888 42.1439C61.8888 41.2854 60.645 41.6192 59.6403 42.7162C57.3919 45.1487 54.4258 52.6367 52.56 60.6018C51.2683 66.0867 50.455 73.1455 50.168 80.8243C49.9288 87.4539 50.0245 88.5509 50.9813 92.1757C52.0816 96.2298 52.9427 97.4221 54.4258 96.8498C54.952 96.659 55.1912 95.9436 55.1912 94.6081C55.1912 93.5589 55.7653 90.411 56.4829 87.597L57.7267 82.5414L58.253 84.6399C58.9227 87.0724 62.8456 94.6081 66.3858 100.093C68.8257 103.813 68.8735 104.052 69.6868 109.87C70.1173 113.161 71.4569 121.166 74.5665 133.479C77.314 144.359 92.76 155.152 96.6166 157.846C97.1248 158.201 97.4318 158.416 97.4819 158.471C97.9603 158.996 98.6301 159.282 99.0128 159.139C99.4434 158.996 99.6826 159.187 99.6826 159.712C99.6826 160.188 100.017 160.809 100.4 161.095C100.879 161.429 101.213 162.716 101.309 164.958C101.548 169.441 104.897 178.026 107.481 180.84C109.155 182.653 112.647 183.416 116.522 182.748C119.058 182.367 119.775 182.08 119.536 181.508C119.393 181.126 120.302 181.603 121.546 182.557C136.089 193.622 150.824 200.252 167.376 203.114C173.787 204.211 184.408 204.831 190.196 204.402C193.91 204.159 194.929 204.093 195.118 204.457C195.189 204.595 195.142 204.794 195.076 205.069C194.741 206.405 195.172 207.216 202.204 219.092C207.801 228.487 208.28 229.107 214.499 235.451C227.703 249.044 242.103 259.584 258.416 267.74C273.773 275.371 298.291 281.715 320.704 283.718C343.118 285.721 359.216 265.212 359.168 259.966C359.072 252.764 358.068 248.042 355.628 243.464C353.236 239.028 351.657 237.502 344.481 232.732C336.492 227.438 331.564 223.098 328.311 218.471C326.254 215.562 325.488 212.271 325.488 210.506C325.488 209.362 326.971 206.786 329.172 206.262C331.181 205.737 331.564 205.785 333.813 206.882C335.152 207.502 338.644 209.123 341.515 210.506C344.433 211.842 347.256 213.177 347.83 213.464C349.522 213.932 350.238 217.235 350.626 219.025L350.626 219.026C350.712 219.426 350.783 219.75 350.844 219.95C351.513 222.43 354.683 225.632 356.728 226.723C360.319 228.637 369.167 228.893 371.607 226.27C372.229 225.602 374.291 224.781 374.716 225.03C375.141 225.279 376.677 227.343 376.677 229.012C376.725 231.874 378.208 234.497 381.366 237.12C387.346 242.08 391.986 243.273 396.675 241.079C399.114 239.934 401.114 239.487 401.114 239.487C401.114 239.487 403.108 242.024 403.229 242.891C404.168 249.668 414.232 252.509 416.911 252.795C417.525 252.856 418.72 252.594 419.933 252.328C421.556 251.972 423.213 251.609 423.561 252.001C424.244 252.77 412.127 272.748 410.453 275.276C394.522 299.123 363.521 313.718 325.584 315.244C300.946 316.246 270.663 309.378 244.399 296.882C227.607 288.821 212.729 278.948 196.798 265.117C194.023 262.732 190.818 260.014 189.67 259.06C188.522 258.154 185.795 255.053 183.69 252.192C180.15 247.422 178.141 245.705 178.141 247.327C178.141 248.042 180.437 252.43 183.068 256.77C184.121 258.487 184.79 259.68 184.551 259.489C184.312 259.298 183.546 262.732 182.829 267.12C180.485 281.19 176.61 295.069 172.687 303.702C170.534 308.376 166.406 311.867 165.162 312.821C160.57 316.302 153.694 317.867 144.174 318.821C132.118 320.014 114.37 317.343 100.831 312.287C97.2427 310.952 88.0096 307.088 87.3877 306.659C87.3503 306.622 87.1383 305.25 86.8425 303.335C86.7591 302.795 86.6691 302.212 86.5744 301.603C84.8521 289.823 82.4601 244.465 82.4601 223.479C82.4601 214.799 82.3644 212.891 81.7904 212.891C80.5943 212.891 80.1159 214.036 79.5897 218.138C78.3937 227.486 78.6329 276.278 79.9246 286.532L80.2116 288.869L78.5851 287.963C76.0974 286.532 66.625 276.945 63.324 272.51C60.5295 268.718 58.8686 263.861 57.6259 260.227C57.3369 259.382 57.0705 258.603 56.8178 257.92C49.8809 238.746 52.3208 217.231 61.8888 197.867C70.0217 181.365 80.0203 172.208 94.6594 167.772C97.0514 167.057 99.1564 166.293 99.3956 166.103C100.305 165.244 94.468 165.673 91.2627 166.675C80.8336 169.87 69.926 178.599 62.5108 189.759C52.0816 205.403 47.3933 228.487 50.6942 248.185C51.4597 252.859 54.5693 262.971 55.4304 263.686C55.5066 263.762 55.9001 264.585 56.4952 265.83L56.4954 265.83C58.1409 269.272 61.3275 275.936 63.6111 278.948C66.3858 282.716 74.7578 290.92 78.2502 293.448L80.4508 295.022L80.7857 298.885C81.4076 306.278 81.6468 306.945 84.9957 309.425C93.3677 315.769 109.873 321.683 124.799 323.782C131.736 324.735 146.805 324.402 152.546 323.162ZM314.246 278.376C286.451 275.944 252.867 262.732 228.564 242.318C218.326 233.685 205.027 216.898 199.764 207.597C198.664 205.689 197.851 204.783 196.894 204.545C195.889 204.259 196.75 203.972 200.865 203.305C218.231 200.348 235.118 193.146 248.753 182.891L250.762 181.413L251.336 182.796C252.628 185.896 257.603 189.044 261.287 189.044C262.77 189.044 267.745 186.802 270.759 184.751L272.816 183.368L274.491 185.038C276.022 186.564 276.309 186.659 279.179 186.659C282.48 186.659 286.451 185.181 288.651 183.082L289.847 181.985L293.244 184.227C295.062 185.514 300.133 188.328 304.487 190.57C310.993 193.909 317.882 197.772 324.436 201.778L325.488 202.446L324.484 203.782C323.431 205.212 321.471 207.931 321.471 212.081C321.471 216.755 326.346 225.152 335.678 230.92C343.01 235.451 355.628 244.363 355.149 257.391C355.091 258.964 353.331 262.875 350.987 266.405C349.456 268.647 345.199 271.985 341.323 273.941C334.722 277.232 323.096 279.139 314.246 278.376ZM59.1619 64.2741C60.4536 64.5603 61.3147 64.9896 61.1234 65.1803C60.5015 65.8004 57.2005 65.5142 56.435 64.7511C55.239 63.6064 55.5261 62.7956 57.2005 62.4617C58.0616 62.3186 59.3533 61.6032 60.0709 60.8878C60.7885 60.1724 61.4104 59.8385 61.4104 60.077C61.4104 60.697 59.0184 62.891 57.8224 63.3679C57.057 63.7018 57.2962 63.8449 59.1619 64.2741ZM78.2023 65.0376C79.5897 64.2745 79.3027 63.7498 77.6761 63.9883C76.0495 64.2268 75.9538 64.036 77.0063 62.4144C77.4369 61.7943 77.6761 60.8881 77.5804 60.4112C77.4369 59.7911 77.102 60.0773 76.3366 61.6035C75.7625 62.7005 74.9492 63.6067 74.5665 63.6067C73.3705 63.6067 73.2748 64.5606 74.423 64.9899C75.906 65.6099 77.0542 65.6099 78.2023 65.0376ZM61.6496 38.9961C60.5015 39.1869 56.9134 40.6177 53.756 42.1917C50.5507 43.7179 47.8238 45.0057 47.6324 44.958C42.7527 44.4333 49.5461 36.3252 61.8888 28.0263C73.7054 20.0613 81.6947 15.8641 89.1099 13.7179C93.7504 12.3824 98.965 12.1916 100.448 13.2886C101.261 13.9087 100.974 13.9563 97.4341 14.004C89.7797 14.004 80.9292 17.915 66.5293 27.5017C59.0663 32.4619 50.4072 39.5684 50.4072 40.7131C50.4072 40.9516 51.7945 40.4747 53.5168 39.7115C57.2005 38.0422 60.9799 37.1837 62.6543 37.5653C64.4244 38.0422 64.0416 38.6622 61.6496 38.9961ZM80.1638 43.098C84.6608 42.1918 84.8521 42.1441 84.8521 41.6672C84.8521 41.4287 83.1299 41.1902 80.9771 41.0948L77.102 40.9517L80.69 36.8977C82.6515 34.656 84.9478 32.4144 85.7611 31.8897C87.5312 30.745 87.6269 29.9342 86.1917 29.4573L85.0913 29.1234L86.2873 28.6942C86.9571 28.4557 88.201 28.3603 89.0621 28.5034C90.3538 28.6942 90.6408 28.5988 90.4973 27.9311C90.3538 27.2633 89.8275 27.1202 87.4833 27.1679C80.6422 27.2633 77.7239 29.0757 83.082 29.9342C84.5651 30.1727 85.8089 30.5543 85.8089 30.7927C85.8089 30.9835 85.5697 31.1743 85.2827 31.1743C84.3737 31.1743 76.6715 38.9486 75.7147 40.8563C74.2316 43.6703 75.0449 44.0996 80.1638 43.098ZM111.738 24.5922C110.351 24.6876 110.016 24.9261 110.112 25.5938L110.126 25.691L110.126 25.6911C110.18 26.0435 110.211 26.2461 110.132 26.3078C110.025 26.3912 109.717 26.2172 108.993 25.8078L108.868 25.7369C107.959 25.2599 107.863 25.0215 108.389 24.6399C108.724 24.3537 109.633 23.9245 110.351 23.7814L111.69 23.4475L110.686 22.3982C110.16 21.7782 109.873 21.2059 110.016 21.0151C110.399 20.6335 115.087 21.1582 115.757 21.6828C116.044 21.9213 116.474 21.8736 116.762 21.5874C117.431 20.9197 118.34 21.4444 118.34 22.4936C118.34 23.066 118.197 23.1137 117.766 22.6844C117.383 22.3029 117.049 22.3029 116.618 22.6367C116.235 22.9706 115.948 22.9706 115.709 22.589C115.566 22.3506 114.657 22.1121 113.7 22.1121C112.817 22.1121 112.399 22.1121 112.314 22.2801C112.238 22.4305 112.429 22.7158 112.791 23.2567L112.791 23.2568C113.554 24.4455 113.509 24.4491 111.755 24.5909L111.738 24.5922ZM104.467 11.9053C104.467 11.2853 103.893 10.1883 103.175 9.47286L101.835 8.1374L109.011 8.42357C112.982 8.61435 117.479 9.0436 119.058 9.47286C120.637 9.85441 122.455 10.1406 123.124 10.1406C124.129 10.1406 123.938 9.9498 122.072 8.94821C118.819 7.27889 114.657 6.46808 106.667 5.89574C97.0992 5.22802 92.2673 6.13422 93.1763 8.51896C93.3198 8.99591 94.0853 9.23438 95.2334 9.23438C97.5776 9.23438 101.405 10.6175 102.697 11.9053C104.084 13.2884 104.467 13.2884 104.467 11.9053ZM81.1206 138.201C84.9956 143.162 90.1146 148.79 92.5066 150.697C93.9418 151.842 95.1856 152.796 95.2813 152.796C95.3291 152.796 94.2767 150.602 92.9371 147.931C87.5312 137.2 84.3737 126.516 82.8907 114.211C82.5558 111.492 82.0296 109.203 81.4555 108.249C80.3073 106.341 80.3073 103.861 81.5033 101.524C82.1252 100.284 82.4601 98.71 82.4601 96.993V94.3697L80.1638 96.7545C77.9153 99.0915 75.7625 100.045 75.7625 98.6146C75.7625 97.5653 79.3027 92.5096 81.1684 90.9357C82.6515 89.6956 82.8428 89.2664 83.3212 85.5462C83.6561 83.3045 84.4216 79.3459 85.0435 76.7226C85.7133 74.0994 86.096 71.8578 86.0003 71.7624C85.6654 71.4285 74.423 84.3012 72.8921 88.4079C72.556 89.3095 71.6482 90.888 70.9306 91.8419L69.6868 93.4341C69.6868 93.4341 70.0732 95.6637 70.5001 98.4656C70.9314 101.296 71.1338 103.243 71.314 104.976C71.5551 107.295 71.7567 109.232 72.4137 112.398C73.1791 116.309 73.9446 119.696 74.1359 119.934C74.2794 120.22 74.9014 122.414 75.5233 124.847C76.8628 130.236 79.1113 135.578 81.1206 138.201ZM275.256 183.321L274.251 182.319C274.251 182.319 290.926 161.198 293.914 153.416C296.194 147.477 297.536 145.793 299.346 145.793C300.359 145.793 301.185 146.023 301.568 146.596C302.238 147.597 302.883 148.837 302.022 153.082C300.587 159.95 298.386 164.481 291.784 174.259C290.254 176.5 288.292 178.98 287.431 179.839C285.422 181.699 280.901 183.607 278.27 184.036C276.596 184.274 276.117 184.179 275.256 183.321Z" fill="#00160A"/>
<path d="M407.726 229.978C413.678 213.811 412.777 210.367 411.744 210.03C411.744 210.03 409.471 211.317 408.467 214.036C406.601 219.139 400.215 232.494 397.823 234.879C395 237.693 395 237.693 392.13 237.693C389.259 237.693 380.981 233.383 379.854 229.135C378.05 222.338 385.815 198.726 386.006 197.39L384.715 196.484C383.853 197.295 372.652 231.158 357.924 222.335C356.238 221.324 352.662 216.564 352.375 214.036C350.781 206.691 358.095 181.007 359.339 175.732C360.452 171.01 366.248 166.627 373.376 166.627C384.332 166.627 382.86 176.175 387.767 179.539C389.942 181.03 393.516 178.327 394.617 178.122C400.789 176.977 403.154 178.31 407.678 181.89C411.17 184.653 413.754 190.122 416.598 192.049C418.178 193.119 419.854 191.656 420.403 191.381C422.654 190.254 427.484 191.095 428.823 192.049C430.787 192.902 435.599 197.514 436.359 200.196C439.805 212.353 428.925 239.303 424.818 244.359C418.019 252.728 401.774 246.145 407.726 229.978Z" fill="white"/>
<path fill-rule="evenodd" clip-rule="evenodd" d="M132.692 185.679C145.801 193.931 159.317 199.32 174.721 200.799C186.873 201.943 203.257 200.369 215.025 196.554C224.928 193.358 238.324 184.506 247.27 177.018C264.636 162.519 275.591 139.871 280.375 115.832C281.045 112.446 282.066 103.934 282.018 95.492C282.018 85.6669 277.681 58.8176 264.54 43.3364C237.436 11.4064 192.883 -2.97709 155.439 9.31269C141.932 13.746 127.551 21.7783 116.691 32.2712C103.009 45.578 92.9145 63.7021 88.896 82.2076C84.686 101.763 90.1624 125.133 99.6826 144.306C107.289 159.569 119.823 177.524 132.692 185.679ZM260.426 128.042C251.432 154.99 227.99 175.117 198.52 181.222C194.023 182.128 190.914 182.462 184.599 182.557C180.15 182.7 175.701 182.653 174.792 182.557C154.173 180.077 138.481 172.494 124.033 158.09C117.718 151.746 115.039 148.312 111.116 141.54C104.945 130.808 101.644 119.839 100.639 106.627C97.1949 61.3647 129.678 23.6381 175.414 19.7272C193.354 18.2009 213.255 23.6858 228.373 34.3695C233.97 38.3281 244.112 48.3441 247.27 53.0182C248.561 54.8782 261.095 73.1454 263.296 83.6382C266.119 97.2789 265.018 114.354 260.426 128.042Z" fill="white"/>
<path fill-rule="evenodd" clip-rule="evenodd" d="M282.036 95.492C282.036 127.505 266.846 162.504 247.243 177.451C237.891 184.583 225.669 193.218 215.025 196.554C199.427 201.443 174.721 200.798 174.721 200.798C174.721 200.798 199.927 197.439 209.267 193.692C236.052 182.945 250.674 166.448 259.702 150.62C277.524 119.376 282.036 94.7143 282.036 95.492Z" fill="#E7EAEE"/>
<path fill-rule="evenodd" clip-rule="evenodd" d="M175.27 176.834C162.497 175.212 149.819 170.681 139.581 163.956C133.506 159.998 124.32 150.697 119.871 144.068C113.508 134.529 109.298 124.322 107.241 113.352C105.758 105.387 105.806 93.1295 107.289 86.023C108.82 78.7734 110.782 73.2408 114.274 66.2296C118.34 58.1215 122.646 52.1597 129.104 45.7209C140.108 34.7511 152.881 27.7876 168.094 24.449C173.022 23.3997 190.866 22.5412 191.488 23.352C191.631 23.5905 192.588 24.2105 193.593 24.7352C194.598 25.3075 197.277 27.3107 199.477 29.2662C202.778 32.1279 204.261 33.9403 207.132 38.4236C209.093 41.476 210.672 44.2423 210.672 44.4808C210.672 45.0054 212.203 45.9593 213.064 45.9593C214.26 45.9593 215.073 42.3822 215.312 36.0865C215.456 32.6048 215.743 29.7431 215.934 29.7431C216.604 29.7431 223.971 33.7972 227.416 36.0865C234.161 40.5698 240.907 46.8655 245.882 53.4474C248.131 56.4045 248.466 57.1676 248.466 58.98C248.466 60.6493 248.944 61.9371 250.427 64.5126C254.159 70.9991 257.077 79.1549 258.847 88.1692C259.995 94.2265 259.995 105.673 258.799 112.017C255.546 129.473 245.882 146.834 233.3 157.851C222.632 167.152 211.294 172.875 197.898 175.689C193.306 176.691 179.528 177.358 175.27 176.834ZM141.064 144.211C141.495 143.734 141.782 143.018 141.638 142.684C141.595 142.584 140.996 142.303 140.12 141.893C138.076 140.935 134.522 139.269 132.982 137.533C126.859 130.57 124.61 125.371 123.223 114.64C121.883 104.195 123.008 97.1334 125.423 85.7846C126.601 80.2484 129.732 75.6755 131.68 72.8304C133.005 70.8959 133.782 69.7603 133.027 69.6638C131.161 69.3776 130.874 69.5207 128.913 71.3808C124.703 75.3871 122.789 78.5827 120.78 84.7353C117.671 94.3697 117.07 120.406 123.223 132.144C129.376 143.882 139.964 145.451 141.064 144.211ZM209.093 104.147C208.281 111.557 204.835 122.271 200.817 126.946C198.951 129.139 192.102 132.907 186.321 132.144C180.737 131.407 176.37 128.806 172.639 123.225C169.434 118.408 167.778 112.561 166.659 105.197C164.726 92.48 173.165 77.6768 176.801 74.0043C180.485 70.2364 183.116 68.9009 186.465 68.8532C189.718 68.8532 191.823 69.5686 195.124 71.9057C201.152 76.1028 210.672 89.7499 209.093 104.147ZM144.605 64.7036C145.561 63.6066 145.705 63.0819 145.418 61.0311C145.226 59.1233 144.844 58.3601 143.839 57.5493C142.069 56.1185 139.868 56.1185 138.242 57.6447C137.094 58.7417 136.95 59.1233 137.094 61.7465C137.237 64.5605 137.333 64.7512 138.912 65.6098C141.017 66.7544 143.074 66.4206 144.605 64.7036ZM174.457 35.2758C165.846 41.4285 162.114 43.9563 158.239 46.341C155.177 48.2488 154.22 48.2965 154.22 46.5795C154.22 45.6733 154.89 44.6717 156.612 43.0978L159.004 40.9038L154.364 40.2838C149.149 39.6161 144.078 38.1852 142.978 37.0882C141.16 35.2281 142.739 34.7989 147.906 35.7528C150.202 36.1343 154.651 36.6113 157.808 36.7067L163.549 36.9451L167.711 33.9404C176.849 27.3585 186.321 23.6383 190.866 24.783C193.689 25.4507 193.354 26.2138 190.148 26.5954C186.465 27.0246 184.216 28.2647 174.457 35.2758Z" fill="white"/>
<path d="M186.752 125.611C186.752 125.372 187.039 125.133 187.422 125.133C187.804 125.133 188.283 125.372 188.426 125.611C188.57 125.898 188.283 126.09 187.756 126.09C187.182 126.09 186.752 125.898 186.752 125.611Z" fill="white"/>
<path d="M189.622 125.184C189.622 124.657 190.818 124.179 192.158 124.179C193.21 124.227 193.21 124.227 192.301 124.897C191.249 125.71 189.622 125.853 189.622 125.184Z" fill="white"/>
<path d="M182.207 123.947C182.063 123.564 181.872 122.895 181.729 122.512C181.585 122.033 181.824 121.794 182.446 121.794C182.972 121.794 183.403 122.081 183.403 122.464C183.403 122.847 183.546 123.469 183.69 123.899C183.881 124.425 183.738 124.665 183.212 124.665C182.781 124.665 182.303 124.33 182.207 123.947Z" fill="white"/>
<path d="M184.742 122.748C184.503 121.317 185.03 120.84 186.752 120.84C187.278 120.84 187.709 121.317 187.9 122.128C188.283 123.511 187.661 124.179 185.986 124.179C185.221 124.179 184.886 123.845 184.742 122.748Z" fill="white"/>
<path d="M179.863 122.989C178.954 122.271 178.954 122.271 179.958 122.271C180.58 122.271 181.011 122.558 181.011 122.989C181.011 123.85 181.011 123.85 179.863 122.989Z" fill="white"/>
<path d="M189.479 122.939C188.857 122.319 189.144 120.459 189.909 120.173C191.297 119.648 191.918 119.886 192.206 121.126C192.397 121.842 192.493 122.462 192.397 122.51C192.014 122.939 189.766 123.225 189.479 122.939Z" fill="white"/>
<path d="M193.736 121.946C193.593 121.802 193.449 121.18 193.449 120.606C193.449 119.793 193.832 119.458 194.98 119.219C195.985 119.028 196.607 119.123 196.894 119.506C197.372 120.271 197.372 121.228 196.942 121.467C196.081 121.946 194.071 122.233 193.736 121.946Z" fill="white"/>
<path d="M177.662 120.463C177.662 119.889 178.093 119.411 178.715 119.267C179.958 118.932 179.911 118.885 180.15 120.128C180.245 120.846 180.006 121.133 179.002 121.229C177.949 121.372 177.662 121.181 177.662 120.463Z" fill="white"/>
<path d="M181.298 120.513C180.628 119.795 181.059 118.455 181.968 118.455C182.59 118.455 182.925 118.79 182.925 119.364C182.925 120.273 181.824 121.039 181.298 120.513Z" fill="white"/>
<path d="M184.168 119.08C183.786 118.171 184.599 117.502 186.178 117.502C186.895 117.502 187.23 117.789 187.23 118.411C187.23 118.937 186.8 119.415 186.178 119.607C184.599 119.989 184.503 119.989 184.168 119.08Z" fill="white"/>
<path d="M197.994 118.934C198.138 118.695 198.377 118.455 198.52 118.455C198.664 118.455 198.616 118.695 198.472 118.934C198.329 119.221 198.09 119.412 197.946 119.412C197.803 119.412 197.851 119.221 197.994 118.934Z" fill="white"/>
<path d="M188.474 118.127C188.091 117.17 188.57 116.691 190.101 116.452C190.962 116.357 191.344 116.548 191.44 117.218C191.775 118.796 189.048 119.658 188.474 118.127Z" fill="white"/>
<path d="M176.992 117.316C176.562 115.737 176.657 115.594 177.901 115.594C178.571 115.594 179.097 115.785 179.097 116.024C179.097 116.264 179.241 116.79 179.384 117.172C179.528 117.651 179.241 117.938 178.428 118.081C177.519 118.273 177.184 118.081 176.992 117.316Z" fill="white"/>
<path d="M192.971 116.791C192.971 115.93 193.306 115.547 194.215 115.308C195.554 114.973 196.32 115.643 196.32 117.174C196.32 117.796 195.937 117.987 194.645 117.987C193.162 117.987 192.971 117.843 192.971 116.791Z" fill="white"/>
<path d="M175.557 116.788C175.414 116.405 175.509 116.071 175.748 116.071C176.035 116.071 176.227 116.405 176.227 116.788C176.227 117.171 176.131 117.505 176.035 117.505C175.94 117.505 175.748 117.171 175.557 116.788Z" fill="white"/>
<path d="M180.389 117.175C179.719 116.553 180.102 115.213 180.963 114.974C181.489 114.83 182.016 114.878 182.159 115.022C182.733 115.548 182.398 116.935 181.681 117.222C180.772 117.557 180.772 117.557 180.389 117.175Z" fill="white"/>
<path d="M197.468 116.834C196.942 115.451 197.516 114.401 198.855 114.258C199.86 114.115 200.147 114.306 200.147 115.069C200.147 116.643 199.621 117.502 198.664 117.502C198.138 117.502 197.611 117.215 197.468 116.834Z" fill="white"/>
<path d="M183.738 116.219C183.164 115.693 183.355 114.736 184.168 114.449C185.077 114.114 186.991 115.071 186.465 115.597C185.795 116.172 184.073 116.602 183.738 116.219Z" fill="white"/>
<path d="M187.9 115.027C187.469 114.357 189 113.209 190.244 113.209C190.818 113.209 191.057 113.496 190.962 114.022C190.77 114.979 188.33 115.745 187.9 115.027Z" fill="white"/>
<path d="M174.792 114.694C174.792 114.455 174.648 113.928 174.505 113.498C174.361 113.067 174.409 112.732 174.696 112.732C175.318 112.732 175.796 114.55 175.222 114.933C174.983 115.077 174.792 114.981 174.792 114.694Z" fill="white"/>
<path d="M176.083 113.596C175.796 112.544 176.37 111.778 177.471 111.778C178.093 111.778 178.715 113.644 178.332 114.266C177.806 115.079 176.323 114.601 176.083 113.596Z" fill="white"/>
<path d="M179.432 113.837C178.715 113.12 179.145 111.398 180.102 111.158C180.82 110.967 181.202 111.206 181.585 112.067C181.872 112.689 182.016 113.311 181.92 113.407C181.441 113.837 179.719 114.172 179.432 113.837Z" fill="white"/>
<path d="M192.349 113.835C191.727 113.213 192.014 112.83 193.449 112.304C194.645 111.921 194.98 111.969 195.22 112.543C195.65 113.691 193.258 114.792 192.349 113.835Z" fill="white"/>
<path d="M196.559 112.736C196.081 111.971 196.75 111.301 197.994 111.301C199.477 111.301 199.908 112.545 198.568 112.928C197.133 113.311 196.894 113.263 196.559 112.736Z" fill="white"/>
<path d="M200.625 111.591C200.625 110.874 201.487 110.108 201.869 110.491C202.204 110.826 201.534 112.261 201.056 112.261C200.817 112.261 200.625 111.974 200.625 111.591Z" fill="white"/>
<path d="M174.17 110.973C173.978 110.83 173.835 110.208 173.883 109.682C173.883 108.773 173.931 108.773 174.361 109.825C174.84 110.973 174.744 111.548 174.17 110.973Z" fill="white"/>
<path d="M175.079 110.258C174.648 108.583 174.696 108.44 175.94 108.44C177.327 108.44 178.188 110.21 177.136 110.88C176.036 111.549 175.414 111.358 175.079 110.258Z" fill="white"/>
<path d="M191.536 111.206C191.536 111.063 191.775 110.3 192.062 109.441C192.732 107.534 194.215 107.438 194.55 109.298C194.693 110.014 194.741 110.634 194.693 110.682C194.454 110.968 191.536 111.397 191.536 111.206Z" fill="white"/>
<path d="M178.475 110.02C178.284 109.876 178.141 109.302 178.141 108.776C178.141 108.01 178.284 107.962 178.858 108.441C179.241 108.776 179.576 109.35 179.576 109.685C179.576 110.402 179.002 110.594 178.475 110.02Z" fill="white"/>
<path d="M195.698 109.06C195.411 107.581 196.033 106.913 197.516 107.104C198.233 107.199 198.473 107.629 198.473 108.678C198.473 109.87 198.281 110.157 197.229 110.252C196.176 110.395 195.937 110.157 195.698 109.06Z" fill="white"/>
<path d="M200.386 109.25C199.764 107.343 199.956 106.77 201.247 106.627C202.395 106.484 202.539 106.627 202.539 107.867C202.539 108.917 202.252 109.346 201.534 109.537C201.008 109.68 200.482 109.537 200.386 109.25Z" fill="white"/>
<path d="M173.452 106.535C173.452 105.626 173.548 105.243 173.691 105.722C173.787 106.152 173.787 106.918 173.691 107.396C173.548 107.827 173.452 107.444 173.452 106.535Z" fill="white"/>
<path d="M174.648 107.152C174.026 106.58 174.313 104.72 175.079 104.433C176.179 104.004 176.705 104.529 176.705 106.103C176.705 107.104 176.466 107.486 175.844 107.486C175.366 107.486 174.792 107.343 174.648 107.152Z" fill="white"/>
<path d="M177.519 105.864C177.327 105.149 177.232 104.386 177.423 104.243C177.901 103.766 178.188 104.529 178.045 105.912L177.901 107.248L177.519 105.864Z" fill="white"/>
<path d="M192.971 105.533C192.971 105.006 193.21 104.719 193.449 104.863C193.736 105.006 193.928 105.485 193.928 105.867C193.928 106.25 193.736 106.537 193.449 106.537C193.21 106.537 192.971 106.107 192.971 105.533Z" fill="white"/>
<path d="M195.124 106.158C194.454 105.44 194.98 104.149 196.081 103.861C197.468 103.527 197.516 103.527 197.946 104.914C198.233 105.775 198.042 105.966 196.798 106.158C196.033 106.301 195.267 106.254 195.124 106.158Z" fill="white"/>
<path d="M199.525 105.244C198.999 104.767 199.142 103.193 199.669 103.193C199.956 103.193 200.147 103.002 200.147 102.716C200.147 102.478 199.86 102.239 199.477 102.239C198.664 102.239 197.994 99.9023 198.664 99.2345C199.525 98.376 200.482 99.2822 201.056 101.619C201.391 102.859 201.726 104.29 201.869 104.767C202.061 105.387 201.869 105.578 200.96 105.578C200.338 105.578 199.669 105.435 199.525 105.244Z" fill="white"/>
<path d="M202.108 102.716C201.774 101.285 200.912 98.4238 200.291 96.3252C199.334 93.2728 199.238 92.5096 199.764 92.1758C200.099 91.9373 200.53 91.7465 200.673 91.7465C201.199 91.7465 203.113 101.524 202.922 103.432L202.778 105.34L202.108 102.716Z" fill="white"/>
<path d="M172.974 102.48C172.974 101.715 173.069 101.428 173.213 101.906C173.309 102.337 173.309 103.007 173.213 103.341C173.069 103.628 172.974 103.294 172.974 102.48Z" fill="white"/>
<path d="M173.931 102.387C174.122 100.712 175.509 100.33 175.892 101.861C176.227 103.104 176.323 102.961 174.887 103.439C173.883 103.726 173.787 103.631 173.931 102.387Z" fill="white"/>
<path d="M194.119 101.953C193.736 100.57 194.55 99.7591 196.081 99.9499C197.229 100.093 197.659 102.144 196.703 102.764C195.507 103.527 194.406 103.193 194.119 101.953Z" fill="white"/>
<path d="M176.705 101.576C176.705 100.762 176.944 100.332 177.471 100.332C177.949 100.332 178.14 100.667 178.045 101.384C177.806 102.915 176.705 103.059 176.705 101.576Z" fill="white"/>
<path d="M172.448 99.5698C172.448 99.0438 172.591 98.9003 172.734 99.2828C172.878 99.6176 172.83 100.048 172.687 100.191C172.543 100.383 172.4 100.096 172.448 99.5698Z" fill="white"/>
<path d="M173.356 99.4284C173.356 98.7107 173.644 98.4237 174.361 98.4237C175.031 98.4237 175.27 98.6629 175.174 99.237C174.935 100.481 173.356 100.624 173.356 99.4284Z" fill="white"/>
<path d="M175.988 99.0004C175.653 98.1393 175.653 98.1393 177.088 97.7566C177.949 97.4695 178.141 97.6131 178.141 98.3307C178.141 99.4788 176.418 100.053 175.988 99.0004Z" fill="white"/>
<path d="M193.306 98.3338C192.971 97.1378 193.593 96.5159 195.267 96.5159C196.081 96.5159 196.32 96.8029 196.32 97.7119C196.32 98.4295 196.033 98.9079 195.65 98.9079C195.267 98.9079 194.645 99.0514 194.263 99.1949C193.832 99.3384 193.497 99.0514 193.306 98.3338Z" fill="white"/>
<path d="M197.468 97.2364C197.085 96.2796 197.659 95.562 198.76 95.562C199.429 95.562 199.669 95.8968 199.669 96.758C199.669 97.6191 199.429 97.954 198.712 97.954C198.186 97.954 197.612 97.6191 197.468 97.2364Z" fill="white"/>
<path d="M172.878 96.5688C172.878 95.5642 173.978 94.416 174.457 94.9423C174.648 95.0858 174.792 95.7555 174.792 96.3775C174.792 97.1429 174.505 97.4778 173.835 97.4778C173.213 97.4778 172.878 97.1429 172.878 96.5688Z" fill="white"/>
<path d="M175.509 95.9972C175.127 94.8012 175.557 94.275 177.184 94.0358C178.667 93.8444 179.145 95.4231 177.854 96.3799C176.61 97.2889 175.844 97.1454 175.509 95.9972Z" fill="white"/>
<path d="M192.827 95.7052C192.493 95.419 192.349 93.6543 192.636 93.6543C192.684 93.6543 193.402 93.4635 194.263 93.225C195.698 92.7958 195.794 92.8435 195.746 94.1312C195.698 95.0851 195.411 95.5621 194.693 95.7528C193.402 96.0867 193.21 96.0867 192.827 95.7052Z" fill="white"/>
<path d="M191.057 94.6091C191.057 94.2744 191.201 94.1309 191.392 94.2744C191.536 94.4657 191.536 94.7526 191.392 94.9438C191.201 95.0873 191.057 94.9438 191.057 94.6091Z" fill="white"/>
<path d="M196.415 93.8502C196.559 93.0369 198.042 91.8409 198.377 92.2236C198.52 92.3672 198.76 92.9412 198.903 93.5632C199.238 94.52 199.095 94.6156 197.755 94.6156C196.607 94.6156 196.272 94.4243 196.415 93.8502Z" fill="white"/>
<path d="M173.356 93.8018C173.356 93.5626 173.596 93.0842 173.835 92.7015C174.218 92.1274 174.313 92.1752 174.313 93.0842C174.313 93.6583 174.122 94.1367 173.835 94.1367C173.596 94.1367 173.356 93.9932 173.356 93.8018Z" fill="white"/>
<path d="M174.792 92.752C174.792 91.4125 175.796 90.9819 176.562 91.9866C177.04 92.7042 177.04 92.9434 176.562 93.2783C175.557 93.9002 174.792 93.7088 174.792 92.752Z" fill="white"/>
<path d="M189.335 92.1305C188.474 91.1737 188.474 91.1259 189.287 91.4129C189.766 91.6043 190.388 91.7478 190.627 91.7478C190.866 91.7478 191.057 92.0827 191.057 92.4654C191.057 93.4701 190.388 93.3744 189.335 92.1305Z" fill="white"/>
<path d="M179.049 92.0802C176.992 90.5063 176.705 86.9769 178.619 86.9769C179.911 86.9769 181.107 88.9801 180.915 90.8401C180.772 92.5572 180.198 92.9387 179.049 92.0802Z" fill="white"/>
<path d="M192.158 92.3669C192.349 92.2235 192.636 92.2235 192.827 92.3669C192.971 92.5582 192.827 92.7017 192.492 92.7017C192.158 92.7017 192.014 92.5582 192.158 92.3669Z" fill="white"/>
<path d="M199.382 90.51C199.525 90.0794 199.669 89.6489 199.669 89.5532C199.669 89.4575 199.908 89.3618 200.147 89.3618C200.434 89.3618 200.625 89.7924 200.625 90.3186C200.625 90.8927 200.291 91.2754 199.86 91.2754C199.334 91.2754 199.19 91.0362 199.382 90.51Z" fill="white"/>
<path d="M174.313 90.3634C174.313 89.2664 175.318 87.454 175.892 87.454C176.897 87.454 176.179 90.5064 175.127 90.6972C174.696 90.7926 174.313 90.6495 174.313 90.3634Z" fill="white"/>
<path d="M185.077 89.8411L183.642 89.5062L184.934 89.1713C186.273 88.7886 187.23 89.0756 187.23 89.8889C187.23 90.3673 187.182 90.3673 185.077 89.8411Z" fill="white"/>
<path d="M183.403 87.5542C183.403 85.5928 184.503 85.3057 185.508 87.028C186.178 88.1762 186.226 88.4154 185.604 88.4154C185.221 88.4154 184.599 88.5589 184.168 88.7024C183.594 88.9416 183.403 88.6546 183.403 87.5542Z" fill="white"/>
<path d="M191.727 88.2171C189.574 87.2632 188.187 84.7353 188.187 81.7306C188.187 79.5843 188.378 79.0597 189.67 77.8673C190.483 77.1042 191.297 76.4841 191.536 76.4841C192.588 76.4841 196.463 80.1566 197.755 82.446L199.238 85.0692L197.659 86.7385C195.841 88.6463 193.832 89.1709 191.727 88.2171Z" fill="white"/>
<path d="M181.729 86.9783C181.585 86.7392 181.681 86.5001 181.92 86.5001C182.207 86.5001 182.446 86.7392 182.446 86.9783C182.446 87.2652 182.35 87.4565 182.255 87.4565C182.111 87.4565 181.872 87.2652 181.729 86.9783Z" fill="white"/>
<path d="M175.461 86.2172C175.605 85.7866 175.749 85.3561 175.749 85.2604C175.749 85.1647 176.179 85.069 176.705 85.069C177.901 85.069 177.949 85.8345 176.753 86.5042C175.461 87.174 175.127 87.1262 175.461 86.2172Z" fill="white"/>
<path d="M179.241 85.6475C178.141 85.504 177.806 84.8821 178.523 84.4515C178.715 84.308 179.576 84.0688 180.437 83.8775C181.729 83.5904 181.968 83.6861 181.968 84.4994C181.968 85.504 180.963 85.9346 179.241 85.6475Z" fill="white"/>
<path d="M182.925 84.0224C182.925 83.4484 182.972 83.1135 183.068 83.2092C183.116 83.3048 183.499 83.7832 183.834 84.2616C184.408 84.9314 184.36 85.0749 183.69 85.0749C183.212 85.0749 182.925 84.6922 182.925 84.0224Z" fill="white"/>
<path d="M176.227 83.6882C176.227 83.4013 176.466 83.0666 176.705 82.9231C176.992 82.7797 177.183 82.9709 177.183 83.3535C177.183 83.7839 176.992 84.1186 176.705 84.1186C176.466 84.1186 176.227 83.9273 176.227 83.6882Z" fill="white"/>
<path d="M177.997 82.9751C177.614 82.0183 181.011 80.9659 181.585 81.8748C182.016 82.6403 181.585 82.9751 179.767 83.3579C178.667 83.5971 178.188 83.5014 177.997 82.9751Z" fill="white"/>
<path d="M182.494 81.4455C182.494 80.9195 182.637 80.776 182.781 81.1586C182.924 81.4933 182.877 81.9237 182.733 82.0671C182.59 82.2584 182.446 81.9715 182.494 81.4455Z" fill="white"/>
<path d="M178.428 80.6816C179.002 79.6323 180.676 77.9153 181.107 77.9153C181.585 77.9153 181.633 80.1569 181.154 80.4431C180.915 80.5385 180.15 80.777 179.432 80.9678C178.38 81.2062 178.141 81.1585 178.428 80.6816Z" fill="white"/>
<path d="M182.255 79.5885C181.729 78.1552 181.968 77.5342 183.116 77.343C184.312 77.1042 184.312 77.1042 183.546 78.5852C182.59 80.4962 182.637 80.4962 182.255 79.5885Z" fill="white"/>
<path d="M181.968 76.73C181.968 76.6343 182.925 75.9645 184.121 75.2948C185.556 74.4337 186.56 74.1466 187.278 74.338C188.139 74.625 187.9 74.8164 185.795 75.821C183.451 76.8735 181.968 77.2562 181.968 76.73Z" fill="white"/>
<path d="M208.519 34.465C207.227 32.6049 204.5 29.6001 202.539 27.7877C200.578 25.9753 199.286 24.4968 199.669 24.4968C200.721 24.4968 208.758 26.6907 210.767 27.5492C212.442 28.2647 212.49 28.36 212.059 29.8386C211.82 30.6971 211.629 32.8434 211.629 34.6081C211.629 36.4205 211.485 37.8513 211.294 37.8513C211.055 37.8513 209.859 36.3251 208.519 34.465Z" fill="white"/>
<path d="M111.164 178.933C109.203 177.931 108.772 177.359 106.285 172.446C102.697 165.483 102.601 163.861 105.997 167.82C107.337 169.394 110.447 172.637 112.886 175.022C117.049 179.028 117.24 179.314 115.853 179.123C114.848 178.98 114.465 179.076 114.704 179.457C115.278 180.316 113.461 180.077 111.164 178.933Z" fill="white"/>
<path fill-rule="evenodd" clip-rule="evenodd" d="M191.339 265.828C190.942 264.888 191.385 263.805 192.328 263.409L193.358 262.973C203.379 258.698 209.131 256.131 213.04 252.053C216.948 247.976 217.416 241.986 218.15 238.342C218.351 237.342 220.623 239.098 221.626 239.299C222.629 239.5 223.279 240.474 223.078 241.474C222.195 245.856 219.817 250.033 215.99 253.998C212.176 257.95 204.79 262.186 193.765 266.814C192.822 267.21 191.736 266.768 191.339 265.828Z" fill="#00160A"/>
<path fill-rule="evenodd" clip-rule="evenodd" d="M236.656 75.526C237.535 75.0042 238.672 75.2918 239.196 76.1683C244.436 84.9449 247.243 94.9777 247.243 105.416C247.243 137.039 221.53 162.675 189.81 162.675C181.381 162.675 173.206 160.862 165.72 157.409C164.792 156.981 161.284 153.57 164.817 154.957C168.35 156.345 182.02 159.458 189.909 159.458C219.582 159.458 240.574 134.999 240.574 105.416C240.574 95.6475 236.656 86.9769 236.012 78.0579C235.937 77.024 235.777 76.0477 236.656 75.526Z" fill="#00160A"/>
<path fill-rule="evenodd" clip-rule="evenodd" d="M53.1697 215.32C53.8246 214.536 54.9928 212.953 55.779 213.605C59.0043 216.284 62.4461 219.387 66.1277 219.986C69.9587 220.609 74.5037 220.609 79.7567 219.975C80.7724 219.852 81.6956 220.574 81.8186 221.587C81.9415 222.599 81.2178 223.52 80.202 223.642C74.6236 224.316 69.7352 224.316 65.5309 223.632C61.1771 222.923 57.1282 221.011 53.4076 217.922C52.6214 217.269 52.5149 216.104 53.1697 215.32Z" fill="#00160A"/>
<path d="M92.5065 150.697C90.1145 148.79 84.9956 143.162 81.1206 138.201C79.1113 135.578 76.8628 130.236 75.5233 124.847C74.9013 122.414 74.2794 120.22 74.1359 119.934C73.9445 119.696 73.1791 116.309 72.4136 112.398C71.2655 106.866 71.5083 105.083 70.5 98.4656C70.0731 95.6636 69.6868 93.4341 69.6868 93.4341L70.9306 91.8419C71.6482 90.888 72.5559 89.3095 72.892 88.4079C74.4229 84.3012 85.6654 71.4285 86.0003 71.7624C86.0959 71.8577 85.7132 74.0994 85.0435 76.7226C84.4215 79.3458 83.6561 83.3045 83.3212 85.5462C82.8428 89.2664 82.6515 89.6956 81.1684 90.9357C79.3026 92.5096 75.7625 97.5653 75.7625 98.6146C75.7625 100.045 77.9153 99.0915 80.1638 96.7545L82.4601 94.3697V96.9929C82.4601 98.7099 82.1252 100.284 81.5033 101.524C80.3073 103.861 80.3073 106.341 81.4554 108.249C82.0295 109.203 82.5558 111.492 82.8907 114.211C84.3737 126.516 87.5312 137.2 92.9371 147.931C94.2766 150.602 95.3291 152.796 95.2813 152.796C95.1856 152.796 93.9417 151.842 92.5065 150.697Z" fill="white"/>
<path fill-rule="evenodd" clip-rule="evenodd" d="M291.57 180.125L295.014 181.651C295.728 181.98 303.608 185.754 313.072 190.288C328.331 197.598 347.712 206.882 347.83 206.882C348.021 206.882 348.919 204.812 349.121 202.399C349.6 197.2 351.37 190.141 353.427 185.228C354.384 183.035 355.149 180.293 355.149 180.054C355.149 179.945 354.372 179.632 353.098 179.12C351.583 178.511 349.365 177.619 346.921 176.453C334.865 170.682 311.28 158.901 308.362 157.136C305.491 155.467 304.917 155.324 304.917 156.421C304.917 157.852 301.999 164.481 299.75 168.058C298.554 170.014 296.21 173.543 294.536 175.88L291.57 180.125ZM347.016 198.297C348.388 199.09 346.012 200.252 345.438 200.443C342.057 200.729 338.078 200.096 334.817 198.202C333.112 196.996 319.688 189.561 310.783 184.629C306.712 182.374 303.586 180.642 302.956 180.268C300.946 179.076 299.033 177.788 298.698 177.407C297.693 176.119 298.65 175.547 301.473 175.785C303.169 175.928 344.053 196.585 347.016 198.297Z" fill="white"/>
<path d="M257.22 184.417C255.977 183.988 254.637 183.034 253.776 181.937L252.341 180.173L257.412 175.165C265.21 167.533 270.951 159.193 276.117 149.893C277.84 146.793 282.958 134.29 283.58 132.907C284.537 130.904 285.255 130.141 287.312 128.996C289.752 127.565 292.527 127.088 293.723 127.899C296.019 129.425 296.019 134.242 293.723 142.541C291.187 151.651 287.79 158.185 280.758 167.581C279.658 169.012 277.6 171.826 276.117 173.781C272.147 179.028 269.563 181.556 266.071 183.511C262.626 185.419 260.617 185.657 257.22 184.417Z" fill="white"/>
<path d="M275.256 183.321L274.252 182.319C274.252 182.319 290.926 161.198 293.914 153.416C296.194 147.477 297.536 145.793 299.347 145.793C300.359 145.793 301.186 146.023 301.568 146.596C302.238 147.597 302.884 148.837 302.022 153.082C300.587 159.95 298.387 164.481 291.785 174.259C290.254 176.5 288.292 178.98 287.431 179.839C285.422 181.699 280.901 183.607 278.27 184.036C276.596 184.274 276.117 184.179 275.256 183.321Z" fill="white"/>
<path fill-rule="evenodd" clip-rule="evenodd" d="M303.265 161.235C304.23 159.035 304.917 157.115 304.917 156.421C304.917 155.324 305.491 155.467 308.362 157.136C311.28 158.901 334.865 170.682 346.921 176.453C351.418 178.599 355.149 179.816 355.149 180.054C355.149 180.293 302.242 163.568 303.265 161.235Z" fill="#E7EAEE"/>
<path fill-rule="evenodd" clip-rule="evenodd" d="M139.581 163.956C133.506 159.998 124.32 150.697 119.871 144.068C113.508 134.529 109.298 124.322 107.241 113.352C105.758 105.387 105.806 93.1296 107.289 86.0231C108.82 78.7735 110.782 73.2409 114.274 66.2298C118.34 58.1217 122.646 52.1598 129.104 45.721C135.438 39.4069 107.289 65.5184 114.274 112.237C119.871 151.388 143.926 166.811 139.581 163.956Z" fill="#E7EAEE"/>
</svg>
