<svg width="164" height="29" viewBox="0 0 164 29" fill="none" xmlns="http://www.w3.org/2000/svg">
<path d="M14.8 28.5L8.96 17.9H7.32V28.5H0.48V0.419999H11.96C14.1733 0.419999 16.0533 0.806666 17.6 1.58C19.1733 2.35333 20.3467 3.42 21.12 4.78C21.8933 6.11333 22.28 7.60667 22.28 9.26C22.28 11.1267 21.7467 12.7933 20.68 14.26C19.64 15.7267 18.0933 16.7667 16.04 17.38L22.52 28.5H14.8ZM7.32 13.06H11.56C12.8133 13.06 13.7467 12.7533 14.36 12.14C15 11.5267 15.32 10.66 15.32 9.54C15.32 8.47333 15 7.63333 14.36 7.02C13.7467 6.40667 12.8133 6.1 11.56 6.1H7.32V13.06ZM47.6137 16.98C47.6137 17.62 47.5738 18.2867 47.4938 18.98H32.0138C32.1204 20.3667 32.5604 21.4333 33.3338 22.18C34.1338 22.9 35.1071 23.26 36.2538 23.26C37.9604 23.26 39.1471 22.54 39.8138 21.1H47.0938C46.7204 22.5667 46.0404 23.8867 45.0538 25.06C44.0938 26.2333 42.8804 27.1533 41.4138 27.82C39.9471 28.4867 38.3071 28.82 36.4938 28.82C34.3071 28.82 32.3604 28.3533 30.6538 27.42C28.9471 26.4867 27.6138 25.1533 26.6538 23.42C25.6938 21.6867 25.2138 19.66 25.2138 17.34C25.2138 15.02 25.6804 12.9933 26.6138 11.26C27.5738 9.52667 28.9071 8.19333 30.6138 7.26C32.3204 6.32667 34.2804 5.86 36.4938 5.86C38.6538 5.86 40.5738 6.31333 42.2538 7.22C43.9338 8.12667 45.2404 9.42 46.1738 11.1C47.1338 12.78 47.6137 14.74 47.6137 16.98ZM40.6138 15.18C40.6138 14.0067 40.2138 13.0733 39.4138 12.38C38.6138 11.6867 37.6138 11.34 36.4138 11.34C35.2671 11.34 34.2938 11.6733 33.4938 12.34C32.7204 13.0067 32.2404 13.9533 32.0538 15.18H40.6138ZM60.3022 28.82C58.3555 28.82 56.6222 28.4867 55.1022 27.82C53.5822 27.1533 52.3822 26.2467 51.5022 25.1C50.6222 23.9267 50.1289 22.62 50.0222 21.18H56.7822C56.8622 21.9533 57.2222 22.58 57.8622 23.06C58.5022 23.54 59.2889 23.78 60.2222 23.78C61.0755 23.78 61.7289 23.62 62.1822 23.3C62.6622 22.9533 62.9022 22.5133 62.9022 21.98C62.9022 21.34 62.5689 20.8733 61.9022 20.58C61.2355 20.26 60.1555 19.9133 58.6622 19.54C57.0622 19.1667 55.7289 18.78 54.6622 18.38C53.5955 17.9533 52.6755 17.3 51.9022 16.42C51.1289 15.5133 50.7422 14.3 50.7422 12.78C50.7422 11.5 51.0889 10.34 51.7822 9.3C52.5022 8.23333 53.5422 7.39333 54.9022 6.78C56.2889 6.16666 57.9289 5.86 59.8222 5.86C62.6222 5.86 64.8222 6.55333 66.4222 7.94C68.0489 9.32667 68.9822 11.1667 69.2222 13.46H62.9022C62.7955 12.6867 62.4489 12.0733 61.8622 11.62C61.3022 11.1667 60.5555 10.94 59.6222 10.94C58.8222 10.94 58.2089 11.1 57.7822 11.42C57.3555 11.7133 57.1422 12.1267 57.1422 12.66C57.1422 13.3 57.4755 13.78 58.1422 14.1C58.8355 14.42 59.9022 14.74 61.3422 15.06C62.9955 15.4867 64.3422 15.9133 65.3822 16.34C66.4222 16.74 67.3289 17.4067 68.1022 18.34C68.9022 19.2467 69.3155 20.4733 69.3422 22.02C69.3422 23.3267 68.9689 24.5 68.2222 25.54C67.5022 26.5533 66.4489 27.3533 65.0622 27.94C63.7022 28.5267 62.1155 28.82 60.3022 28.82ZM95.5669 6.18V28.5H88.7269V25.46C88.0335 26.4467 87.0869 27.2467 85.8869 27.86C84.7135 28.4467 83.4069 28.74 81.9669 28.74C80.2602 28.74 78.7535 28.3667 77.4469 27.62C76.1402 26.8467 75.1269 25.74 74.4069 24.3C73.6869 22.86 73.3269 21.1667 73.3269 19.22V6.18H80.1269V18.3C80.1269 19.7933 80.5135 20.9533 81.2869 21.78C82.0602 22.6067 83.1002 23.02 84.4069 23.02C85.7402 23.02 86.7935 22.6067 87.5669 21.78C88.3402 20.9533 88.7269 19.7933 88.7269 18.3V6.18H95.5669ZM128.96 5.94C131.733 5.94 133.933 6.78 135.56 8.46C137.213 10.14 138.04 12.4733 138.04 15.46V28.5H131.24V16.38C131.24 14.94 130.853 13.8333 130.08 13.06C129.333 12.26 128.293 11.86 126.96 11.86C125.627 11.86 124.573 12.26 123.8 13.06C123.053 13.8333 122.68 14.94 122.68 16.38V28.5H115.88V16.38C115.88 14.94 115.493 13.8333 114.72 13.06C113.973 12.26 112.933 11.86 111.6 11.86C110.267 11.86 109.213 12.26 108.44 13.06C107.693 13.8333 107.32 14.94 107.32 16.38V28.5H100.48V6.18H107.32V8.98C108.013 8.04667 108.92 7.31333 110.04 6.78C111.16 6.22 112.427 5.94 113.84 5.94C115.52 5.94 117.013 6.3 118.32 7.02C119.653 7.74 120.693 8.76667 121.44 10.1C122.213 8.87333 123.267 7.87333 124.6 7.1C125.933 6.32667 127.387 5.94 128.96 5.94ZM163.864 16.98C163.864 17.62 163.824 18.2867 163.744 18.98H148.264C148.37 20.3667 148.81 21.4333 149.584 22.18C150.384 22.9 151.357 23.26 152.504 23.26C154.21 23.26 155.397 22.54 156.064 21.1H163.344C162.97 22.5667 162.29 23.8867 161.304 25.06C160.344 26.2333 159.13 27.1533 157.664 27.82C156.197 28.4867 154.557 28.82 152.744 28.82C150.557 28.82 148.61 28.3533 146.904 27.42C145.197 26.4867 143.864 25.1533 142.904 23.42C141.944 21.6867 141.464 19.66 141.464 17.34C141.464 15.02 141.93 12.9933 142.864 11.26C143.824 9.52667 145.157 8.19333 146.864 7.26C148.57 6.32667 150.53 5.86 152.744 5.86C154.904 5.86 156.824 6.31333 158.504 7.22C160.184 8.12667 161.49 9.42 162.424 11.1C163.384 12.78 163.864 14.74 163.864 16.98ZM156.864 15.18C156.864 14.0067 156.464 13.0733 155.664 12.38C154.864 11.6867 153.864 11.34 152.664 11.34C151.517 11.34 150.544 11.6733 149.744 12.34C148.97 13.0067 148.49 13.9533 148.304 15.18H156.864Z" fill="#00160A"/>
</svg>
