<svg width="12" height="12" viewBox="0 0 12 12" fill="none" xmlns="http://www.w3.org/2000/svg">
<path d="M11.9799 4.53926C11.942 4.42449 11.8732 4.32367 11.7817 4.24905C11.6903 4.17443 11.5801 4.1292 11.4646 4.11885L8.05521 3.59804L6.52729 0.353968C6.47823 0.247879 6.40162 0.158409 6.30625 0.0958058C6.21087 0.0332031 6.10059 0 5.98803 0C5.87547 0 5.76518 0.0332031 5.66981 0.0958058C5.57443 0.158409 5.49783 0.247879 5.44876 0.353968L3.92084 3.59176L0.511482 4.11885C0.400586 4.13535 0.296329 4.18408 0.210541 4.2595C0.124754 4.33492 0.060871 4.43402 0.0261423 4.54553C-0.00564746 4.65451 -0.00850021 4.7705 0.0178902 4.88104C0.0442806 4.99159 0.0989178 5.09252 0.175938 5.17301L2.65057 7.68293L2.05139 11.247C2.02999 11.3647 2.0412 11.4863 2.08366 11.5974C2.12613 11.7086 2.1981 11.8048 2.29106 11.8745C2.38167 11.9423 2.48854 11.9824 2.59967 11.9901C2.7108 11.9979 2.8218 11.9731 2.9202 11.9184L5.98803 10.2431L9.04387 11.9247C9.12796 11.9744 9.22294 12.0003 9.31949 12C9.44642 12.0005 9.5702 11.9587 9.67301 11.8808C9.76597 11.811 9.83794 11.7149 9.88041 11.6037C9.92288 11.4925 9.93408 11.3709 9.91269 11.2533L9.3135 7.68921L11.7881 5.17929C11.8746 5.10254 11.9386 5.00165 11.9725 4.88836C12.0065 4.77506 12.009 4.65401 11.9799 4.53926ZM8.29489 7.04918C8.22462 7.12036 8.17205 7.20846 8.14176 7.3058C8.11147 7.40314 8.10439 7.50677 8.12112 7.60764L8.55254 10.2368L6.2996 8.98182C6.21291 8.93348 6.1162 8.90819 6.01799 8.90819C5.91977 8.90819 5.82306 8.93348 5.73637 8.98182L3.48344 10.2368L3.91485 7.60764C3.93159 7.50677 3.9245 7.40314 3.89422 7.3058C3.86393 7.20846 3.81136 7.12036 3.74109 7.04918L1.94353 5.16674L4.4661 4.78398C4.56317 4.76984 4.65544 4.73098 4.73483 4.67081C4.81423 4.61064 4.87831 4.531 4.92148 4.43886L5.98803 2.04816L7.11449 4.44514C7.15766 4.53728 7.22175 4.61692 7.30114 4.67709C7.38053 4.73726 7.47281 4.77611 7.56987 4.79025L10.0924 5.17301L8.29489 7.04918Z" fill="#EEEEEE"/>
</svg>
