<svg width="36" height="36" viewBox="0 0 36 36" fill="none" xmlns="http://www.w3.org/2000/svg">
<path fill-rule="evenodd" clip-rule="evenodd" d="M2.99566 18.2527C11.5735 14.4913 17.3074 12.0601 20.1973 10.8675C28.3623 7.47301 30.0595 6.87668 31.1604 6.83081C31.3898 6.83081 31.9402 6.87668 32.3072 7.15191C32.5824 7.38126 32.6742 7.70236 32.72 7.93171C32.7659 8.16107 32.8118 8.66565 32.7659 9.07849C32.3072 13.7115 30.4265 25.0416 29.4173 30.225C29.0045 32.4268 28.1788 33.1607 27.399 33.2525C25.7018 33.3901 24.3715 32.1057 22.7202 31.0507C20.1514 29.3535 18.6835 28.2984 16.1606 26.6471C13.2708 24.7205 15.1515 23.6655 16.8028 21.9682C17.2157 21.5095 24.7844 14.6747 24.922 14.0326C24.922 13.9408 24.9678 13.6656 24.7844 13.528C24.6009 13.3904 24.3715 13.4362 24.188 13.4821C23.9128 13.528 19.7844 16.2802 11.757 21.693C10.5644 22.5187 9.50934 22.8856 8.54605 22.8856C7.49102 22.8856 5.4727 22.2893 3.95895 21.7847C2.12412 21.1884 0.656246 20.8673 0.793859 19.8582C0.885601 19.3536 1.61954 18.8031 2.99566 18.2527Z" fill="#F6B50E"/>
</svg>
